<svg height="16.01" viewBox="0 0 16.031294 16.010071" width="16.031" xmlns="http://www.w3.org/2000/svg"><title>Gnome Symbolic Icon Theme</title><path d="M1.031 0s-1 0-1 1L0 10.01c0 .833.574 1.506 1.063 1.75.488.244.937.25.937.25h4v2H.469A.464.464 0 0 0 0 14.48v1.062c0 .263.206.47.469.47H13.53a.464.464 0 0 0 .469-.47V14.48a.464.464 0 0 0-.469-.469H8v-2h4c2 0 2-2 2-2v-5H2.969L2.5 10.041a.52.52 0 0 1-.531.47.52.52 0 0 1-.469-.532l.5-5.5a.515.515 0 0 1 .406-.469.489.489 0 0 1 .094 0H13L13.031 3c0-1-.965-.99-.965-.99H8L6.031 0z" style="line-height:normal;-inkscape-font-specification:Sans;text-indent:0;text-align:start;text-decoration-line:none;text-transform:none;marker:none" color="#000" font-weight="400" font-family="Sans" overflow="visible" fill="#bebebe"/></svg>