<svg height="16" width="16" xmlns="http://www.w3.org/2000/svg"><title>Gnome Symbolic Icon Theme</title><g color="#000" fill="#bebebe"><path d="M5.969 7.969a2.969 2.969 0 1 1-5.938 0 2.969 2.969 0 1 1 5.938 0zM15.938 12.969a2.969 2.969 0 1 1-5.938 0 2.969 2.969 0 1 1 5.938 0zM15.938 2.969a2.969 2.969 0 1 1-5.938 0 2.969 2.969 0 1 1 5.938 0z" style="marker:none" overflow="visible"/><path d="M12.625 2.156L2.562 7.031.75 7.938l1.812.906 10.032 5.062.906-1.812L5.28 7.938l8.219-4-.875-1.782z" style="text-indent:0;text-align:start;line-height:normal;text-transform:none;block-progression:tb;marker:none;-inkscape-font-specification:Sans" font-weight="400" overflow="visible" font-family="Sans"/></g></svg>