<svg xmlns="http://www.w3.org/2000/svg" width="16" height="16" version="1" viewBox="0 0 16 16">
    <path d="M3.504 8.014c-1.921 0-3.503 1.55-3.503 3.47a3.521 3.521 0 0 0 3.503 3.504 3.521 3.521 0 0 0 3.504-3.503c0-1.921-1.583-3.471-3.504-3.471zm0 1.992c.84 0 1.51.639 1.51 1.479 0 .84-.67 1.51-1.51 1.51s-1.51-.67-1.51-1.51.67-1.479 1.51-1.479zm8-1.992c-1.921 0-3.503 1.55-3.503 3.47a3.521 3.521 0 0 0 3.503 3.504 3.521 3.521 0 0 0 3.504-3.503c0-1.921-1.583-3.471-3.504-3.471zm0 1.992c.84 0 1.51.639 1.51 1.479 0 .84-.67 1.51-1.51 1.51s-1.51-.67-1.51-1.51.67-1.479 1.51-1.479z" overflow="visible"/>
    <path d="M5 2h2v9.516H5zm8 0h2v9.563h-2z" overflow="visible"/>
    <path d="M5 2h10v2H5z" overflow="visible"/>
</svg>