<svg xmlns="http://www.w3.org/2000/svg" width="16" height="16" version="1" viewBox="0 0 16 16">
    <path fill-rule="evenodd" d="M3 9h1v1H3zm-1 1h1v1H2zm1 1h1v1H3zm-1 1h1v1H2zm1 1h1v1H3zm-1 1h1v1H2zm2 0h1v1H4zm2 0h1v1H6zm2 0h1v1H8zm2 0h1v1h-1z" overflow="visible"/>
    <path d="M2.813 1A1.032 1.032 0 0 0 2 2v8h2V3h5v3h3v7.997h2V5.562a1.013 1.013 0 0 0-.281-.718L10.156 1.28A1.012 1.012 0 0 0 9.438 1H3a1.464 1.464 0 0 0-.094 0 1.464 1.464 0 0 0-.093 0z" overflow="visible"/>
    <path fill-rule="evenodd" d="M3 15h1v1H3zm2 0h1v1H5zm2 0h1v1H7zm2 0h1v1H9zm2 0h1v1h-1zm1-1.187h1V15h-1z" overflow="visible"/>
</svg>