<?xml version="1.0"?>
<svg xmlns="http://www.w3.org/2000/svg" height="16" width="16" viewBox="0 0 16 16" version="1">
    <title>
        Gnome Symbolic Icon Theme
    </title>
    <path d="M1.75 4C.798 4 0 4.798 0 5.75v4.5C0 11.202.798 12 1.75 12h.125l-.781 1.563L.375 15h9.25l-.719-1.438L8.125 12h.125c.952 0 1.75-.798 1.75-1.75v-4.5C10 4.798 9.202 4 8.25 4h-6.5zM2 6h6v4H2V6z" font-weight="400" color="#bebebe" fill="#bebebe" overflow="visible" font-family="Sans"/>
    <path d="M7.75 1C6.798 1 6 1.798 6 2.75V3h8v4h-3v3.25c0 .66-.252 1.27-.656 1.75h5.281l-1.5-3h.125C15.202 9 16 8.202 16 7.25v-4.5C16 1.798 15.202 1 14.25 1h-6.5z" font-weight="400" color="#bebebe" fill="#bebebe" overflow="visible" font-family="Andale Mono"/>
</svg>
