<svg height="16.031" width="16.031" xmlns="http://www.w3.org/2000/svg"><title>Gnome Symbolic Icon Theme</title><g color="#000" fill="#bebebe"><path d="M4.031 2.047a2.016 2.016 0 1 1-4.031 0 2.016 2.016 0 1 1 4.031 0zM4.031 13.984a2.016 2.016 0 1 1-4.031 0 2.016 2.016 0 1 1 4.031 0zM16.031 13.984a2.016 2.016 0 1 1-4.031 0 2.016 2.016 0 1 1 4.031 0zM16.031 2.016a2.016 2.016 0 1 1-4.031 0 2.016 2.016 0 1 1 4.031 0z" style="marker:none" overflow="visible"/><path d="M1.062 1.063V15.03h13.97V1.062H1.061zm2 2h9.97v9.968h-9.97V3.062z" style="text-indent:0;text-align:start;line-height:normal;text-transform:none;block-progression:tb;marker:none;-inkscape-font-specification:Sans" font-weight="400" overflow="visible" font-family="Sans"/><path d="M4.969 5.031v6h6.062v-6H4.97zm1 1h4.062v4H5.97v-4z" style="text-indent:0;text-align:start;line-height:normal;text-transform:none;block-progression:tb;marker:none;-inkscape-font-specification:Sans" font-weight="400" overflow="visible" font-family="Sans"/><path d="M12.031 10.516a1.516 1.516 0 1 1-3.031 0 1.516 1.516 0 1 1 3.031 0zM7.031 10.516a1.516 1.516 0 1 1-3.031 0 1.516 1.516 0 1 1 3.031 0zM7.031 5.547a1.516 1.516 0 1 1-3.031 0 1.516 1.516 0 1 1 3.031 0zM12.094 5.547a1.516 1.516 0 1 1-3.032 0 1.516 1.516 0 1 1 3.032 0z" style="marker:none" overflow="visible"/><path d="M10.875 10.219l-.688.687 3.407 3.438.718-.719-3.437-3.406zM5.594 10.219l-3.407 3.406.688.719 3.437-3.438-.718-.687zM13.594 2.219l-3.407 3.406.688.719 3.437-3.438-.718-.687zM2.875 2.219l-.688.687 3.407 3.438.718-.719-3.437-3.406z" style="text-indent:0;text-align:start;line-height:normal;text-transform:none;block-progression:tb;marker:none;-inkscape-font-specification:Sans" font-weight="400" overflow="visible" font-family="Sans"/></g></svg>