<?xml version="1.0"?>
<svg xmlns="http://www.w3.org/2000/svg" height="16" viewBox="0 0 16.000002 16" width="16" version="1">
    <title>
        Gnome Symbolic Icon Theme
    </title>
    <g>
        <path d="M9 0v1H8v1h-.953v1H8v1h-.953v1H8v1h-.953v1H8v1h1v1h1V8h1v1h1V8h1v1h1V8h1V7h1V6h-1V5h1V4h-1V3h1V2h-1V1h-1V0h-1v1h-1V0h-1v1h-1V0z" overflow="visible"/>
        <path d="M6.5 11.982c-.833 0-1.518.685-1.518 1.518s.685 1.518 1.518 1.518c.832 0 1.517-.685 1.517-1.518s-.685-1.518-1.517-1.518zm0 1a.51.51 0 0 1 .517.518.51.51 0 0 1-.517.518.51.51 0 0 1-.518-.518.51.51 0 0 1 .518-.518z" white-space="normal" overflow="visible"/>
        <path d="M.5 10.13v1h1.21L3.368 14h2.07v-1H3.945L2.29 10.13zm13.982-1.185c-.832 0-1.517.685-1.517 1.518 0 .832.685 1.52 1.517 1.52.833 0 1.518-.688 1.518-1.52 0-.833-.685-1.518-1.518-1.518zm0 1a.51.51 0 0 1 .518.518c0 .292-.226.52-.518.52a.511.511 0 0 1-.517-.52.51.51 0 0 1 .517-.518z" white-space="normal" overflow="visible"/>
        <path d="M.5 7.096v1h1.21l1.657 2.867h9.79v-1H3.944L2.29 7.096z" white-space="normal" overflow="visible"/>
        <path d="M5.53 5.963c-.833 0-1.518.687-1.518 1.52C4.012 8.314 4.697 9 5.529 9c.833 0 1.518-.685 1.518-1.518 0-.832-.685-1.52-1.518-1.52zm0 1c.291 0 .517.227.517.52A.51.51 0 0 1 5.529 8a.51.51 0 0 1-.517-.518c0-.292.225-.52.517-.52z" white-space="normal" overflow="visible"/>
        <path d="M.502 3.977l-.002 1 3.533.006 1.059 1.709.851-.528-1.351-2.181zm1.023-.94c.833 0 1.52-.687 1.52-1.52C3.045.686 2.358 0 1.525 0 .693 0 .008.685.008 1.518c0 .832.685 1.52 1.517 1.52zm0-1a.511.511 0 0 1-.517-.52A.51.51 0 0 1 1.525 1c.292 0 .52.225.52.518 0 .292-.228.52-.52.52z" white-space="normal" overflow="visible"/>
        <path d="M2.002 1.014l-.002 1 3.31.006.854.828.695-.719-1.142-1.11zm7.535 10.968c-.833 0-1.52.685-1.52 1.518s.687 1.518 1.52 1.518c.832 0 1.517-.685 1.517-1.518s-.685-1.518-1.517-1.518zm0 1a.51.51 0 0 1 .517.518.51.51 0 0 1-.517.518.511.511 0 0 1-.52-.518c0-.292.228-.518.52-.518zM12.572 11.982c-.832 0-1.518.685-1.518 1.518s.686 1.518 1.518 1.518c.833 0 1.52-.685 1.52-1.518s-.687-1.518-1.52-1.518zm0 1c.292 0 .52.226.52.518a.511.511 0 0 1-.52.518.51.51 0 0 1-.518-.518.51.51 0 0 1 .518-.518z" white-space="normal" overflow="visible"/>
        <path d="M11.775 10.31l-.863.504 1.125 1.938.863-.504zm-3.029-.029l-.867.5 1.156 2 .867-.5zm-2.828.063l-.899.437.97 2 .898-.437z" white-space="normal" overflow="visible"/>
    </g>
</svg>
