<?xml version="1.0"?>
<svg xmlns="http://www.w3.org/2000/svg" height="16.031" width="16.031" viewBox="0 0 16.031 16.031" version="1">
    <title>
        Gnome Symbolic Icon Theme
    </title>
    <g color="#000" fill="#bebebe">
        <path d="M4.031 2.047a2.016 2.016 0 1 1-4.031 0 2.016 2.016 0 1 1 4.031 0zm0 11.937a2.016 2.016 0 1 1-4.031 0 2.016 2.016 0 1 1 4.031 0zm12 0a2.016 2.016 0 1 1-4.031 0 2.016 2.016 0 1 1 4.031 0zm0-11.968a2.016 2.016 0 1 1-4.031 0 2.016 2.016 0 1 1 4.031 0z" overflow="visible"/>
        <path d="M1.062 1.063V15.03h13.97V1.062H1.061zm2 2h9.97v9.968h-9.97V3.062z" font-weight="400" overflow="visible" font-family="Sans"/>
        <path d="M4.969 5.031v6h6.062v-6H4.97zm1 1h4.062v4H5.97v-4z" font-weight="400" overflow="visible" font-family="Sans"/>
        <path d="M12.031 10.516a1.516 1.516 0 1 1-3.031 0 1.516 1.516 0 1 1 3.031 0zm-5 0a1.516 1.516 0 1 1-3.031 0 1.516 1.516 0 1 1 3.031 0zm0-4.969a1.516 1.516 0 1 1-3.031 0 1.516 1.516 0 1 1 3.031 0zm5.063 0a1.516 1.516 0 1 1-3.032 0 1.516 1.516 0 1 1 3.032 0z" overflow="visible"/>
        <path d="M10.875 10.219l-.688.687 3.407 3.438.718-.719-3.437-3.406zm-5.281 0l-3.407 3.406.688.719 3.437-3.438-.718-.687zm8-8l-3.407 3.406.688.719 3.437-3.438-.718-.687zm-10.719 0l-.688.687 3.407 3.438.718-.719-3.437-3.406z" font-weight="400" overflow="visible" font-family="Sans"/>
    </g>
</svg>
