<?xml version="1.0"?>
<svg xmlns="http://www.w3.org/2000/svg" height="16" width="16" viewBox="0 0 16 16" version="1">
    <title>
        Gnome Symbolic Icon Theme
    </title>
    <g>
        <path d="M1.031 1.031V15H15V1.031H1.03zm2 2H13V13H3.03V3.031z" overflow="visible"/>
        <path d="M9.531 8.313c-.466-.065-1.046-.13-1.531.25-.403.315-.766.727-1.094 1.03-.328.305-.66.438-.594.438H2.47v1h3.843c.582 0 .886-.381 1.25-.719a18.87 18.87 0 0 1 1.063-.937c.106-.083.408-.145.781-.094.373.052.7.188 1.094.188.146 0 .204.033.312.125.109.092.24.244.375.437.135.194.282.421.5.625.218.204.562.375.938.375h.844v-1h-.844c-.1 0-.152-.002-.25-.093a3.292 3.292 0 0 1-.375-.47c-.14-.2-.292-.42-.531-.624a1.513 1.513 0 0 0-.97-.375c-.032 0-.502-.092-.968-.156zM5.44 3.884c-.86 0-1.556.722-1.556 1.582 0 .86.696 1.557 1.556 1.557.86 0 1.583-.696 1.583-1.557A1.6 1.6 0 0 0 5.44 3.884zm0 1.002c.32 0 .58.26.58.58 0 .32-.26.554-.58.554a.537.537 0 0 1-.554-.554c0-.32.234-.58.554-.58z" overflow="visible"/>
    </g>
</svg>
