<svg height="16" xmlns="http://www.w3.org/2000/svg" width="16"><title>Gnome Symbolic Icon Theme</title><g fill="#bebebe"><path d="M3 8h10v7.059c0 .492-.472.937-.996.937H4c-.539 0-1-.43-1-1z" style="marker:none" color="#bebebe" overflow="visible"/><path d="M6.688 2.969a1 1 0 0 0-.657.375L3.22 6.813A1 1 0 0 0 3 7.438v1a1 1 0 1 0 2 0V7.78l2.594-3.156a1 1 0 0 0-.907-1.656zM8.906 5.969a1 1 0 1 0-.031 2l2.156.375V8.5a1 1 0 1 0 2 0v-1a1 1 0 0 0-.812-1l-3-.5a1 1 0 0 0-.313-.031z" style="text-indent:0;text-align:start;line-height:normal;text-transform:none;block-progression:tb;marker:none;-inkscape-font-specification:Sans" font-weight="400" color="#000" overflow="visible" font-family="Sans"/></g></svg>