<?xml version="1.0"?>
<svg xmlns="http://www.w3.org/2000/svg" height="16" width="16" viewBox="0 0 16 16" version="1">
    <title>
        Gnome Symbolic Icon Theme
    </title>
    <g color="#000" fill="#bebebe">
        <path d="M1.189 14c0 1.09.91 2 2 2h8.823c1.09 0 2-.91 2-2V3c0-1.09-.91-2-2-2H3.189c-1.09 0-2 .91-2 2h10.823v11H1.189z" font-weight="400" overflow="visible" font-family="Sans"/>
        <path d="M.594 12a.502.502 0 1 0 .093 1H2.5a.5.5 0 1 0 0-1H.687a.5.5 0 0 0-.093 0zm0-2a.502.502 0 1 0 .093 1H2.5a.5.5 0 1 0 0-1H.687a.5.5 0 0 0-.093 0zm0-2a.502.502 0 1 0 .093 1H2.5a.5.5 0 1 0 0-1H.687a.5.5 0 0 0-.093 0zm0-2a.502.502 0 1 0 .093 1H2.5a.5.5 0 1 0 0-1H.687a.5.5 0 0 0-.093 0zm0-2a.502.502 0 1 0 .093 1H2.5a.5.5 0 1 0 0-1H.687a.5.5 0 0 0-.093 0z" font-weight="400" overflow="visible" font-family="Sans"/>
        <path d="M7 10c.328.066.666.007 1 0 .334-.007.669.04 1 0 .624-.074 1.196-.462 1.523-.998a2.41 2.41 0 0 0 .26-1.817A2.807 2.807 0 0 0 9.75 5.652 3.366 3.366 0 0 0 8.009 5a3.737 3.737 0 0 0-2.565.746 3.69 3.69 0 0 0-1.382 2.285 3.647 3.647 0 0 0 .185 1.895c.228.6.618 1.137 1.119 1.54.5.402 1.11.668 1.744.76A3.647 3.647 0 0 0 9 12v-1c-.453.299-1 .453-1.542.437a2.677 2.677 0 0 1-1.513-.53 2.676 2.676 0 0 1-.932-1.304A2.677 2.677 0 0 1 5 8a2.818 2.818 0 0 1 1.154-1.511A3.13 3.13 0 0 1 8 6c.537.026 1.082.193 1.483.551.2.18.362.404.456.656.095.252.12.53.061.793-.054.24-.18.464-.355.637a1.294 1.294 0 0 1-.645.34V8a1.628 1.628 0 0 0-.595-.737 1.628 1.628 0 0 0-.905-.277c-.32 0-.64.098-.905.277-.266.18-.476.44-.595.737-.158.394-.152.856.033 1.238.186.383.55.678.967.762m1.036-.977a.708.708 0 0 1-.814.132.707.707 0 0 1-.378-.732.707.707 0 0 1 .453-.554A.706.706 0 0 1 8 8" font-size="6.386" font-weight="700" letter-spacing="0" word-spacing="0" font-family="Cantarell"/>
    </g>
</svg>
