<svg xmlns="http://www.w3.org/2000/svg" width="16" height="16" version="1" viewBox="0 0 16 16">
    <path d="M2.813 1A1 1 0 0 0 2 2v13a1 1 0 0 0 1 1h10a1 1 0 0 0 1-1V5.562a1 1 0 0 0-.281-.718L10.156 1.28A1 1 0 0 0 9.438 1H3a1 1 0 0 0-.093 0 1 1 0 0 0-.094 0zM4 3h5v3h3v8H4V3z" overflow="visible"/>
    <path d="M8.563 10.344c-.467-.065-1.046-.13-1.532.25-.403.315-.765.727-1.093 1.03-.329.305-.66.438-.594.438H3v1h2.344c.582 0 .886-.381 1.25-.718.364-.338.75-.694 1.062-.938.107-.083.409-.145.782-.094.372.052.7.188 1.093.188.147 0 .204.033.313.125.108.092.24.244.375.437.134.194.282.422.5.625.218.204.561.375.937.375h.844v-1h-.844c-.099 0-.151-.002-.25-.093a3.292 3.292 0 0 1-.375-.469c-.14-.2-.292-.421-.531-.625a1.513 1.513 0 0 0-.969-.375c-.033 0-.502-.092-.969-.156zM6.419 5.862c-.86 0-1.557.723-1.557 1.583S5.558 9 6.42 9C7.279 9.001 8 8.305 8 7.445a1.6 1.6 0 0 0-1.58-1.583zm0 1.002c.32 0 .58.261.58.58 0 .32-.26.555-.58.555a.537.537 0 0 1-.554-.554c0-.32.234-.58.554-.58z" overflow="visible"/>
</svg>