<svg height="16" width="16" xmlns="http://www.w3.org/2000/svg"><title>Gnome Symbolic Icon Theme</title><g color="#000" fill="#bebebe"><path d="M2.813 1A1 1 0 0 0 2 2v13a1 1 0 0 0 1 1h10a1 1 0 0 0 1-1V5.562a1 1 0 0 0-.281-.718L10.156 1.28A1 1 0 0 0 9.438 1H3a1 1 0 0 0-.093 0 1 1 0 0 0-.094 0zM4 3h5v3h3v8H4V3z" style="text-indent:0;text-align:start;line-height:normal;text-transform:none;block-progression:tb;marker:none;-inkscape-font-specification:Sans" font-weight="400" overflow="visible" font-family="Sans"/><path d="M6.419 4.999c-.86 0-1.557.722-1.557 1.582 0 .86.696 1.557 1.557 1.557C7.279 8.138 8 7.442 8 6.58A1.6 1.6 0 0 0 6.42 5zm0 1.002c.32 0 .58.26.58.58 0 .32-.26.554-.58.554a.537.537 0 0 1-.554-.554c0-.32.234-.58.554-.58z" style="text-indent:0;text-align:start;line-height:normal;text-transform:none;block-progression:tb;marker:none;-inkscape-font-specification:Sans" font-weight="400" overflow="visible" font-family="Sans"/><path style="marker:none" overflow="visible" d="M9 8h2v1H9zM5 10h6v1H5zM5 12h6v1H5z"/></g></svg>