<svg height="16" width="16" xmlns="http://www.w3.org/2000/svg"><title>Gnome Symbolic Icon Theme</title><g font-weight="400" color="#bebebe" fill="#bebebe"><path d="M8.78 5.008a1.023 1.023 0 0 0-.47.281l-3.03 3c-.236.23-.345.583-.282.906v.813H7.468L6.282 11.28c-.214.22-.321.54-.281.844a1.464 1.464 0 0 0 0 .094V13h1a1.03 1.03 0 0 0 .719-.281l3-2.993c.183-.19.287-.454.281-.718a.87.87 0 0 0 0-.125v-.875H8.436l1.312-1.282c.215-.219.321-.54.281-.843a1.464 1.464 0 0 0 0-.094v-.781h-1a1.015 1.015 0 0 0-.25 0z" style="text-indent:0;text-align:start;line-height:normal;text-transform:none;block-progression:tb;marker:none;-inkscape-font-specification:Bitstream Vera Sans" font-size="xx-small" overflow="visible" font-family="Bitstream Vera Sans"/><path d="M5.469 0c-.492 0-.797.228-1.032.469C4.202.709 4 1.028 4 1.5V2H2v14h12V2h-2V1.563c-.024-.43-.17-.72-.406-1A1.523 1.523 0 0 0 10.437.03v-.03H5.47zm.53 2h4v2h2v10H4V4h2V2z" style="text-indent:0;text-align:start;line-height:normal;text-transform:none;block-progression:tb;marker:none;-inkscape-font-specification:Sans" opacity=".5" overflow="visible" font-family="Sans"/></g></svg>