<?xml version="1.0"?>
<svg xmlns="http://www.w3.org/2000/svg" height="16.001" width="16" viewBox="0 0 16 16.001" version="1">
    <title>
        Gnome Symbolic Icon Theme
    </title>
    <g transform="translate(-81 -467)">
        <path d="M88.969 467c-3.306 0-6.024 3.007-5.969 5.718.062 3.022.934 4.695 1.125 5.281h1.4c-1.16-2.291-1.048-5.156-1.048-5.156 0-2.373 2.006-4.313 4.492-4.313 2.485 0 4.5 1.921 4.492 4.375-.023 1.675-.172 2.284-1.005 4.813h1.57c.225-.645.974-2.066.974-4.906 0-2.83-2.726-5.813-6.031-5.813z"/>
        <rect height="5.132" rx="1.862" ry="1.861" transform="matrix(-.96317 -.26888 -.30267 .9531 0 0)" width="3.145" x="-234.411" y="431.702"/>
        <rect height="5.132" rx="1.862" ry="1.861" transform="matrix(.96317 -.26888 .30267 .9531 0 0)" width="3.145" x="-64.605" y="479.606"/>
        <rect height="1.969" rx=".984" ry=".984" width="3.906" x="87.063" y="480.969" overflow="visible"/>
        <path d="M93.594 476.406a.5.5 0 0 0-.063.969l1.469.531-.031 1.75c-.005.532-.136.868-.313 1.063-.176.195-.402.281-.719.281h-4.156a.5.5 0 1 0 0 1h4.156c.548 0 1.093-.21 1.47-.625.375-.415.555-1.009.562-1.719l.031-2.094v-.343l-.313-.125-1.78-.656a.5.5 0 0 0-.313-.032z" overflow="visible"/>
    </g>
</svg>
