<svg xmlns="http://www.w3.org/2000/svg" width="16" height="16" version="1" viewBox="0 0 16 16">
    <g transform="translate(-61 -467)">
        <rect width="3.568" height="6.052" x="-77.762" y="475.238" rx="1.863" ry="1.863" transform="matrix(.95983 -.2806 .2902 .95697 0 0)"/>
        <path d="M68.969 468c-3.306 0-6.024 3.008-5.969 5.719.048 2.365.809 4.695 1 5.281h1.526c-1.162-2.292-1.05-5.156-1.05-5.156 0-2.373 2.007-4.313 4.493-4.313 2.485 0 4.5 1.827 4.492 4.282-.023 1.674-.172 2.658-1.005 5.187h1.57c.225-.645.974-3.19.974-5.281 0-2.83-2.726-5.719-6.031-5.719z"/>
        <rect width="3.568" height="6.052" x="-209.84" y="436.545" rx="1.863" ry="1.863" transform="matrix(-.95983 -.2806 -.2902 .95697 0 0)"/>
    </g>
</svg>
