<?xml version="1.0"?>
<svg xmlns="http://www.w3.org/2000/svg" height="16" width="16" viewBox="0 0 16 16" version="1">
    <title>
        Gnome Symbolic Icon Theme
    </title>
    <g color="#bebebe" font-weight="400" fill="#bebebe">
        <path d="M3.196 0A2.215 2.215 0 0 0 1 2.201V9.8c0 1.199.994 2.2 2.196 2.2h6.609A2.215 2.215 0 0 0 12 9.799V2.2C12 1.001 11.006 0 9.805 0h-6.61zM6.5 2C8.421 2 10 3.579 10 5.5S8.421 9 6.5 9H2.994L3 5.5C2.977 3.579 4.58 2 6.5 2zm0 2C5.66 4 5 4.66 5 5.5S5.66 7 6.5 7 8 6.34 8 5.5 7.34 4 6.5 4z" font-family="sans-serif" white-space="normal" overflow="visible"/>
        <path d="M13 4v9.813c0 .13-.063.187-.187.187H6.188C6.064 14 6 13.943 6 13.812V13H4v.813C4 15.012 4.986 16 6.188 16h6.625A2.197 2.197 0 0 0 15 13.812V6.189a2.21 2.21 0 0 0-2-2.188z" font-family="Sans" overflow="visible"/>
    </g>
</svg>
