<svg height="16" width="16" xmlns="http://www.w3.org/2000/svg"><title>Gnome Symbolic Icon Theme</title><g transform="translate(-201 -567)" fill="#bebebe"><path d="M204.188 567a2.197 2.197 0 0 0-2.188 2.188v11.625c0 1.2.986 2.187 2.188 2.187h9.625a2.197 2.197 0 0 0 2.187-2.188v-11.625c0-1.2-.986-2.187-2.188-2.187h-9.625zm0 2h9.625c.123 0 .187.057.187.188v11.625c0 .13-.064.187-.188.187h-9.625c-.123 0-.187-.057-.187-.188v-11.625c0-.13.064-.187.188-.187z" style="text-indent:0;text-align:start;line-height:normal;text-transform:none;block-progression:tb;marker:none;-inkscape-font-specification:Sans" font-weight="400" color="#bebebe" overflow="visible" font-family="Sans"/><rect height="7" rx="0" ry="0" style="marker:none" width="6" x="206" y="571" color="#000" overflow="visible"/><path d="M205.063 572v1H213v-1h-7.938zM205.063 574v1H213v-1h-7.938zM205.063 576v1H213v-1h-7.938z" style="text-indent:0;text-align:start;line-height:normal;text-transform:none;block-progression:tb;marker:none;-inkscape-font-specification:Sans" font-weight="400" color="#000" overflow="visible" font-family="Sans"/><path d="M207 570v9h1v-9h-1zM209 570v9h1v-9h-1zM211 570v9h1v-9h-1z" style="text-indent:0;text-align:start;line-height:normal;text-transform:none;block-progression:tb;marker:none;-inkscape-font-specification:Sans" font-weight="400" color="#000" overflow="visible" font-family="Sans"/></g></svg>