<?xml version="1.0"?>
<svg xmlns="http://www.w3.org/2000/svg" height="16" width="16" viewBox="0 0 16 16" version="1">
    <title>
        Gnome Symbolic Icon Theme
    </title>
    <g fill="#bebebe">
        <path d="M2.5 1A2.495 2.495 0 0 0 0 3.5v8C0 12.885 1.115 14 2.5 14v-2a.499.499 0 0 1-.5-.5V10h12v1.5c0 .277-.223.5-.5.5v2c1.385 0 2.5-1.115 2.5-2.5v-8C16 2.115 14.885 1 13.5 1h-11z"/>
        <path d="M2.875 11.039c0 2.69 2.299 4.904 5.116 4.904 2.817 0 5.134-2.213 5.134-4.904h-2.017c0 1.652-1.387 2.977-3.117 2.977s-3.099-1.325-3.099-2.977z" font-weight="400" color="#bebebe" overflow="visible" font-family="Sans"/>
        <path d="M6 11c0 1.099.902 2 2 2 1.099 0 2-.901 2-2H9c0 .558-.442 1-1 1s-1-.442-1-1H6z" font-weight="400" color="#bebebe" overflow="visible" font-family="Sans"/>
    </g>
</svg>
