<?xml version="1.0"?>
<svg xmlns="http://www.w3.org/2000/svg" height="16" width="14" viewBox="0 0 14 16" version="1">
    <title>
        Gnome Symbolic Icon Theme
    </title>
    <g>
        <path d="M2.195 0A2.215 2.215 0 0 0 0 2.201V13.8C0 14.999.994 16 2.195 16h9.61A2.215 2.215 0 0 0 14 13.799V2.2c0-1.199-.994-2.2-2.195-2.2h-9.61zm0 2h9.61c.123 0 .195.07.195.201V13.8c0 .13-.071.201-.195.201h-9.61C2.072 14 2 13.93 2 13.799V2.2c0-.13.071-.201.195-.201z" white-space="normal" overflow="visible"/>
        <path d="M6.844 3c-.266.01-.545.059-.813.125a3.99 3.99 0 0 0-2.906 4.844 3.985 3.985 0 0 0 4.373 2.994l-.388-2.98A.39.39 0 0 1 7 8a1 1 0 1 1 1-1 .797.797 0 0 1-.073.325l2.701 1.387c.386-.83.47-1.78.247-2.68A3.985 3.985 0 0 0 6.844 3z" overflow="visible"/>
        <path d="M7.661 8L9 12c.734 2.056 3 .384 1.497-1z" overflow="visible"/>
    </g>
</svg>
