<svg xmlns="http://www.w3.org/2000/svg" width="16" height="16" version="1" viewBox="0 0 16 16">
    <path d="M204.188 567a2.197 2.197 0 0 0-2.188 2.188v11.625c0 1.2.986 2.187 2.188 2.187h9.625a2.197 2.197 0 0 0 2.187-2.188v-11.625c0-1.2-.986-2.187-2.188-2.187h-9.625zm0 2h9.625c.123 0 .187.057.187.188v11.625c0 .13-.064.187-.188.187h-9.625c-.123 0-.187-.057-.187-.188v-11.625c0-.13.064-.187.188-.187z" overflow="visible"/>
    <rect width="6" height="7" x="206" y="571" overflow="visible" rx="0" ry="0"/>
    <path d="M205.063 572v1H213v-1h-7.938zm0 2v1H213v-1h-7.938zm0 2v1H213v-1h-7.938z" overflow="visible"/>
    <path d="M207 570v9h1v-9h-1zm2 0v9h1v-9h-1zm2 0v9h1v-9h-1z" overflow="visible"/>
</svg>