<svg height="16" width="16.531" xmlns="http://www.w3.org/2000/svg"><title>Gnome Symbolic Icon Theme</title><g color="#000" font-weight="400" fill="#bebebe"><path d="M8.252.004L7.25.03l.031.5c.047.466-.202.97-.594 1.219-.353.249-.904.198-1.593.219a2.01 2.01 0 0 0-1.032.281c-.328.197-.65.547-.718 1-.159.892.454 1.633 1.156 1.781.807.176 1.644.076 2.625 0 .256-.02.6.02.812.125.334.261.285.403.282.875H2.562l-.218.719-1.97 7L0 15.031H16.53l-.375-1.281-1.813-6.027-1.586 1.536 1.15 3.772H2.624l1.437-5h3.313l1.844-1.968v-.5c-.003-.612-.406-1.097-.844-1.313-.438-.216-.93-.25-1.344-.219-.996.077-1.74.125-2.312 0h-.032c-.199-.042-.417-.21-.343-.625.019-.124.077-.196.218-.28.142-.086.353-.156.532-.157h.03c.565-.017 1.378.118 2.095-.406.818-.599 1.153-1.396 1.062-2.125z" style="line-height:normal;-inkscape-font-specification:Sans;text-indent:0;text-align:start;text-decoration-line:none;text-transform:none;block-progression:tb;marker:none" font-family="Sans" overflow="visible"/><path d="M14.262 4.354a1.047 1.047 0 0 0-1.577.113L7.732 9.419l-.45 1.898 1.87-.39 5-5a1.047 1.047 0 0 0 .11-1.574z" style="line-height:normal;text-indent:0;text-align:start;text-decoration-line:none;text-decoration-style:solid;text-decoration-color:#000;text-transform:none;block-progression:tb;isolation:auto;mix-blend-mode:normal;marker:none" font-family="sans-serif" white-space="normal" clip-rule="evenodd" overflow="visible" fill-rule="evenodd" image-rendering="optimizeQuality" shape-rendering="geometricPrecision" text-rendering="geometricPrecision"/></g></svg>