<svg xmlns="http://www.w3.org/2000/svg" width="16" height="16" version="1" viewBox="0 0 16 16">
    <path d="M284.031 449a3.038 3.038 0 0 0-3.03 3.031v7.938a3.038 3.038 0 0 0 3.03 3.031h8.938a3.038 3.038 0 0 0 3.031-3.031v-7.938a3.038 3.038 0 0 0-3.03-3.031h-8.938zm0 2h8.938c.596 0 1.031.435 1.031 1.031V458h-11v-5.969c0-.596.436-1.031 1.031-1.031zm-1.03 8h5v2h-3.97c-.595 0-1.03-.435-1.03-1.031V459zm6 0h5v.969c0 .596-.436 1.031-1.032 1.031H289v-2z" overflow="visible"/>
    <rect width="11" height="7" x="283" y="451" opacity=".35" overflow="visible" rx="0" ry="0"/>
</svg>