<svg xmlns="http://www.w3.org/2000/svg" width="16" height="16" version="1" viewBox="0 0 16 16">
    <path d="M4.765 9.833a1.096.913 0 0 0 1.883.54c.752-.628 1.952-.628 2.705 0a1.096.913 0 1 0 1.53-1.275 4.08 3.4 0 0 0-5.765 0 1.096.913 0 0 0-.353.736z" overflow="visible"/>
    <path d="M2.706 7.832a1.045.958 0 0 0 1.766.431 5.001 4.585 0 0 1 7.058 0 1.045.958 0 1 0 1.468-1.345 7.105 6.514 0 0 0-9.998 0 1.045.958 0 0 0-.294.914z" overflow="visible"/>
    <path d="M.467 5.667a1.038.965 0 0 0 1.7.584 1.038.965 0 0 0 .09-.086 8.104 7.533 0 0 1 11.474 0 1.038.965 0 1 0 1.434-1.333 10.129 9.416 0 0 0-14.343 0 1.038.965 0 0 0-.358.835z" overflow="visible"/>
    <path d="M10 13a2 2 0 1 1-4 0 2 2 0 1 1 4 0z"/>
</svg>
