<svg xmlns="http://www.w3.org/2000/svg" width="16" height="16" version="1" viewBox="0 0 16 16">
    <path d="M27.063 220.5a1.164 1.164 0 0 0-.688 2c.8.8.8 2.075 0 2.875A1.164 1.164 0 1 0 28 227a4.334 4.334 0 0 0 0-6.125 1.164 1.164 0 0 0-.938-.375z" overflow="visible"/>
    <path d="M27.063 221.125a.555.555 0 0 0-.25.938 2.657 2.657 0 0 1 0 3.75.555.555 0 1 0 .78.78 3.775 3.775 0 0 0 0-5.312.555.555 0 0 0-.53-.156z" overflow="visible"/>
    <path d="M27.125 221.313a.362.362 0 0 0-.219.593.362.362 0 0 0 .032.031 2.825 2.825 0 0 1 0 4 .362.362 0 1 0 .5.5 3.531 3.531 0 0 0 0-5 .362.362 0 0 0-.313-.125z" overflow="visible"/>
    <path d="M10 13a2 2 0 1 1-4 0 2 2 0 1 1 4 0z"/>
</svg>