<svg xmlns="http://www.w3.org/2000/svg" width="16" height="16"><title>Gnome Symbolic Icon Theme</title><g transform="translate(-281 -447)" color="#000" fill="#bebebe"><path d="M284 447c-.578 0-1.06.2-1.469.563a1.7 1.7 0 0 0-.5.75c-.11.332-.111.774.063 1.125l1 2c.088.177.203.427.375.687.24-.073.494-.125.75-.125h9.562c.257 0 .51.052.75.125.172-.26.287-.51.375-.688l1-2c.175-.35.173-.792.063-1.125a1.7 1.7 0 0 0-.5-.75A2.136 2.136 0 0 0 294 447h-10zm.125 2h9.75l-.781 1.563c-.118.237-.177.37-.219.437h-7.75c-.042-.066-.1-.2-.219-.438l-.78-1.562zM285 453c-.487 0-.935.144-1.312.438-.378.293-.688.781-.688 1.343V463h12v-8.219c0-.562-.31-1.05-.687-1.344A2.095 2.095 0 0 0 293 453zm0 1h8v6h-8zm7 7h1v1h-1z" style="text-indent:0;text-align:start;line-height:normal;text-transform:none;block-progression:tb;marker:none;-inkscape-font-specification:Sans" font-weight="400" overflow="visible" font-family="Sans"/><rect width="10" height="2" x="284" y="-451" style="marker:none" rx="0" ry="0" transform="scale(1 -1)" opacity=".35" overflow="visible"/><rect width="6" height="1" x="286" y="458.031" style="marker:none" rx="0" ry="0" overflow="visible"/><path d="M286 455.031h6V456l-6 1z" style="marker:none" opacity=".35" overflow="visible"/></g></svg>