<svg height="16" width="16" xmlns="http://www.w3.org/2000/svg"><title>Gnome Symbolic Icon Theme</title><g fill="#bebebe"><path d="M3.625 3.008C2.171 3.008 1 4.046 1 5.5v7.875A2.62 2.62 0 0 0 3.625 16h8.75A2.62 2.62 0 0 0 15 13.375V5.5c0-1.454-1.17-2.492-2.625-2.492zM4.5 4h7c2.004.537 1.98 6.857 0 8h-7c-2.319-1.577-1.586-7.084 0-8zm7.523 11.05h-1.046v-1.047h1.046z"/><path d="M6 1a1 1 0 1 1-2 0 1 1 0 1 1 2 0zM11.988 1a1 1 0 1 1-2 0 1 1 0 1 1 2 0z" style="marker:none" color="#000" overflow="visible"/><path d="M5.344.656l-.688.688 2.469 2.5L7.25 4h1.312l.219-.031.125-.125 2.438-2.5-.688-.688L8.312 3h-.656L5.344.656z" style="text-indent:0;text-align:start;line-height:normal;text-transform:none;block-progression:tb;marker:none;-inkscape-font-specification:Sans" font-weight="400" color="#000" overflow="visible" font-family="Sans"/></g></svg>