<svg height="16.072" width="16" xmlns="http://www.w3.org/2000/svg"><title>Gnome Symbolic Icon Theme</title><g color="#000" fill="#bebebe"><path d="M7.406 6A.5.5 0 0 0 7 6.5V9H5.5a.5.5 0 1 0 0 1h2a.5.5 0 0 0 .5-.5v-3a.5.5 0 0 0-.594-.5z" style="text-indent:0;text-align:start;line-height:normal;text-transform:none;block-progression:tb;marker:none;-inkscape-font-specification:Sans" font-weight="400" overflow="visible" font-family="Sans"/><path d="M7.474 3.063c-3.56 0-6.443 2.914-6.443 6.474s2.883 6.474 6.443 6.474c3.56 0 6.475-2.914 6.475-6.474s-2.914-6.474-6.475-6.474zm0 1.982a4.482 4.482 0 0 1 4.492 4.492 4.482 4.482 0 0 1-4.492 4.492c-2.488 0-4.46-2.004-4.46-4.492 0-2.489 1.972-4.492 4.46-4.492z" style="text-indent:0;text-align:start;line-height:normal;text-transform:none;block-progression:tb;marker:none;-inkscape-font-specification:Sans" font-weight="400" overflow="visible" font-family="Sans"/><path d="M4.281 1A3.289 3.289 0 0 0 1 4.281c0 .405.084.767.219 1.125 1.206-1.822 3.184-3.102 5.468-3.343A3.263 3.263 0 0 0 4.281 1zm6.438 0c-.953 0-1.809.413-2.406 1.063a7.533 7.533 0 0 1 5.468 3.374A3.14 3.14 0 0 0 14 4.282 3.289 3.289 0 0 0 10.719 1z" style="marker:none" overflow="visible"/><path d="M3.906 12.906a1 1 0 0 0-.469.281l-1.125 1.094a1 1 0 1 0 1.375 1.438l1.125-1.094a1 1 0 0 0-.906-1.719zM10.937 13a1 1 0 0 0-.593 1.656l.906 1a1 1 0 1 0 1.5-1.312l-.906-1a1 1 0 0 0-.907-.344z" style="text-indent:0;text-align:start;line-height:normal;text-transform:none;block-progression:tb;marker:none;-inkscape-font-specification:Sans" font-weight="400" overflow="visible" font-family="Sans"/></g></svg>