<svg xmlns="http://www.w3.org/2000/svg" width="16" height="16" version="1" viewBox="0 0 16 16">
    <path d="M6.5 0C2.922 0 0 2.922 0 6.5S2.922 13 6.5 13c.17 0 .333-.018.5-.031v-2.031c-.167.018-.327.062-.5.062A4.485 4.485 0 0 1 2 6.5C2 4.003 4.003 2 6.5 2S11 4.003 11 6.5c0 .173-.044.333-.063.5h2.032c.013-.167.031-.33.031-.5C13 2.922 10.078 0 6.5 0z" overflow="visible"/>
    <path d="M6.406 3A.5.5 0 0 0 6 3.5V6H4.5a.5.5 0 1 0 0 1h2a.5.5 0 0 0 .5-.5v-3a.5.5 0 0 0-.594-.5zm2.469 5.07A.86.86 0 0 0 8 8.936v6.195a.86.86 0 0 0 .875.868h6.25a.86.86 0 0 0 .875-.868V8.937a.86.86 0 0 0-.875-.868h-6.25zM11 9.06h2v3.966h-2V9.06zm0 4.957h2v.991h-2v-.99z" overflow="visible"/>
</svg>
