<svg height="16" width="16" xmlns="http://www.w3.org/2000/svg"><title>Gnome Symbolic Icon Theme</title><g fill="#bebebe"><path d="M6.406 5A.5.5 0 0 0 6 5.5V8H4.5a.5.5 0 1 0 0 1h2a.5.5 0 0 0 .5-.5v-3a.5.5 0 0 0-.594-.5z" style="text-indent:0;text-align:start;line-height:normal;text-transform:none;block-progression:tb;marker:none;-inkscape-font-specification:Sans" font-weight="400" color="#000" overflow="visible" font-family="Sans"/><path d="M11 11h1.375l1.125 1.094L14.594 11H16v1.469l-1.094 1.062L16 14.594V16h-1.438L13.5 14.937 12.437 16H11v-1.406l1.062-1.063L11 12.47V11z" style="marker:none" color="#bebebe" overflow="visible"/><path d="M6.5 2C2.922 2 0 4.922 0 8.5S2.922 15 6.5 15a6.408 6.408 0 0 0 3.5-1.031v-2.656A4.452 4.452 0 0 1 6.5 13 4.485 4.485 0 0 1 2 8.5C2 6.003 4.003 4 6.5 4S11 6.003 11 8.5c0 .533-.114 1.027-.281 1.5h2.094A6.47 6.47 0 0 0 13 8.5C13 4.922 10.078 2 6.5 2z" style="text-indent:0;text-align:start;line-height:normal;text-transform:none;block-progression:tb;marker:none;-inkscape-font-specification:Sans" font-size="xx-small" font-weight="400" color="#000" overflow="visible" font-family="Sans"/></g></svg>