<?xml version="1.0"?>
<svg xmlns="http://www.w3.org/2000/svg" height="16" width="16" viewBox="0 0 16 16" version="1">
    <title>
        Gnome Symbolic Icon Theme
    </title>
    <g fill="#bebebe">
        <path d="M5 5v2h6V5H5zm0 3v2h4l.25-.125L11 8.125V8H5zm0 3.063V13h3v-1.937H5z"/>
        <path d="M5.469 0c-.49 0-.797.228-1.032.469C4.202.709 4 1.027 4 1.5V2H2v14h8v-2H4V4h2V2h4v2h2v3h2V2h-2v-.437a1.576 1.576 0 0 0-.406-1A1.53 1.53 0 0 0 10.437.03V0H5.47z" font-weight="400" color="#bebebe" overflow="visible" font-family="Sans"/>
        <path d="M12.719 7.969a1.023 1.023 0 0 0-.469.281l-3 2.969a1.08 1.08 0 0 0-.281.937v.813h3.125l-.844 1.25a1.032 1.032 0 0 0-.281.562v1.188h1c.264.004.528-.13.719-.313l3-3a.94.94 0 0 0 .28-.687.87.87 0 0 0 0-.125v-.875h-3.123l.844-1.313a.98.98 0 0 0 .28-.531V7.969h-1.25z" font-size="xx-small" font-weight="400" color="#bebebe" overflow="visible" font-family="Bitstream Vera Sans"/>
    </g>
</svg>
