<svg height="16" width="16" xmlns="http://www.w3.org/2000/svg"><title>Gnome Symbolic Icon Theme</title><g fill="#bebebe"><path style="marker:none" color="#000" overflow="visible" d="M5 5v2h6V5z"/><path d="M5.469 0c-.49 0-.797.228-1.032.469-.235.24-.437.527-.437 1V2H2v14h12V2h-2V1.563a1.577 1.577 0 0 0-.406-1A1.53 1.53 0 0 0 10.437.03v-.03H5.47zm.53 2h4v2h2v10H4V4h2V2z" style="text-indent:0;text-align:start;line-height:normal;text-transform:none;block-progression:tb;marker:none;-inkscape-font-specification:Sans" font-weight="400" color="#bebebe" overflow="visible" font-family="Sans"/><path style="marker:none" color="#000" overflow="visible" d="M5 8v2h6V8zM5 11v2h6v-2z"/></g></svg>