<svg height="16" width="16" xmlns="http://www.w3.org/2000/svg"><title>Gnome Symbolic Icon Theme</title><g color="#bebebe" fill="#bebebe"><path d="M5.469 0c-.492 0-.796.228-1.032.469C4.202.709 4 1.028 4 1.5V2H2v14h12V2h-2V1.563a1.58 1.58 0 0 0-.406-1A1.523 1.523 0 0 0 10.438.03v-.03H5.469zM6 2h4V3.531c.23.132.426.296.625.469H12v10H9.719a1.966 1.966 0 0 1-.719.719c-.12.07-.241.142-.375.187-.031.01-.062.023-.094.031-.04.012-.083.023-.125.032-.13.026-.27.03-.406.03-.18 0-.364-.015-.531-.062-.032-.009-.063-.02-.094-.03-.132-.045-.256-.119-.375-.188a1.966 1.966 0 0 1-.719-.72h-2.28V4h1.312c.209-.184.442-.331.687-.469V2z" style="text-indent:0;text-align:start;line-height:normal;text-transform:none;block-progression:tb;marker:none;-inkscape-font-specification:Sans" font-weight="400" opacity=".35" overflow="visible" font-family="Sans"/><path d="M7.817 4.005c1.643-.092 3.096 1.17 3.188 2.812 0 1.402-.378 1.922-1.594 2.844-.191.144-.326.25-.375.312-.05.063-.031.034-.031.032.007.528-.472 1-1 1-.529 0-1.007-.472-1-1 0-.503.224-.944.468-1.25a3.82 3.82 0 0 1 .72-.688c.203-.16.46-.384.687-.656.093-.112.129-.308.125-.438v-.03a.988.988 0 0 0-1.063-.938c-.563.031-.969.436-.937 1h-2c-.092-1.643 1.17-2.908 2.812-3zm.188 8a1 1 0 1 1 0 2 1 1 0 0 1 0-2z" style="marker:none" overflow="visible"/></g></svg>