<?xml version="1.0"?>
<svg xmlns="http://www.w3.org/2000/svg" height="16.033" width="16" viewBox="0 0 16 16.033" version="1">
    <title>
        Gnome Symbolic Icon Theme
    </title>
    <g>
        <path d="M6.875.01a1 1 0 0 0-.875 1v3.562L4.719 3.291A1.016 1.016 0 1 0 3.28 4.728L6 7.448v1.124l-2.72 2.719a1.016 1.016 0 1 0 1.438 1.437l1.28-1.28v3.562a1 1 0 0 0 1.72.718l4-4a1 1 0 0 0 0-1.437L9.437 8.01l2.282-2.282a1 1 0 0 0 0-1.437l-4-4A1 1 0 0 0 6.875.01zM8 3.447L9.562 5.01 8 6.572V3.447zm0 6l1.562 1.563L8 12.572V9.447z" overflow="visible"/>
        <path d="M3 3.01h1v1H3zm0 9h1v1H3zm3 3h1v1H6zm0-15h1v1H6z"/>
    </g>
</svg>
