<?xml version="1.0"?>
<svg xmlns="http://www.w3.org/2000/svg" height="16" width="16" viewBox="0 0 16 16" version="1">
    <title>
        Gnome Symbolic Icon Theme
    </title>
    <path d="M5 0C3.355 0 2 1.355 2 3v3h2V3c0-.571.429-1 1-1h2c.571 0 1 .429 1 1v.25c.267-.15.557-.25.875-.25H10c0-1.645-1.355-3-3-3zM1.937 9c-.554 0-1.064.45-1 1v5H11v-2H8.875C7.865 13 7 12.135 7 11.125V9z" color="#bebebe" fill="#bebebe" overflow="visible"/>
    <path class="warning" d="M8.875 4A.863.863 0 0 0 8 4.875v6.25c0 .492.382.875.875.875h6.25a.863.863 0 0 0 .875-.875v-6.25A.863.863 0 0 0 15.125 4h-6.25zM11 5h2v4h-2V5zm0 5h2v1h-2v-1z" color="#bebebe" fill="#f57900" overflow="visible"/>
</svg>
