<svg height="16" width="16" xmlns="http://www.w3.org/2000/svg"><title>Gnome Symbolic Icon Theme</title><g font-weight="400" color="#000" fill="#bebebe" font-family="Sans"><path d="M3.469 1a2.468 2.468 0 0 0-2.47 2.469v9.062A2.468 2.468 0 0 0 3.47 15h9.062A2.468 2.468 0 0 0 15 12.531V3.47A2.468 2.468 0 0 0 12.53 1H3.47zm0 1h9.062C13.363 2 14 2.637 14 3.469v9.062C14 13.363 13.363 14 12.53 14H3.47a1.443 1.443 0 0 1-1.47-1.469V3.47C2 2.637 2.637 2 3.47 2z" style="text-indent:0;text-align:start;line-height:normal;text-transform:none;block-progression:tb;marker:none;-inkscape-font-specification:Sans" overflow="visible"/><path d="M14.177 2.823L8.5 8.375 6.562 6.437 4.437 8.562l3 3L8.5 12.625l1.062-1.063 4.615-4.739z" style="text-indent:0;text-align:start;line-height:normal;text-transform:none;block-progression:tb;marker:none;-inkscape-font-specification:Sans" overflow="visible"/></g></svg>