<?xml version="1.0"?>
<svg xmlns="http://www.w3.org/2000/svg" height="16" width="16" viewBox="0 0 16 16" version="1">
    <title>
        Gnome Symbolic Icon Theme
    </title>
    <path d="M3.437 1c-1.373 0-2.5 1.101-2.5 2.469v9.062C.937 13.9 2.064 15 3.437 15h9.125c1.373 0 2.5-1.101 2.5-2.469V3.47c0-1.37-1.127-2.47-2.5-2.47H3.437zm0 1h9.125c.844 0 1.5.64 1.5 1.469v9.062c0 .828-.656 1.469-1.5 1.469H3.437c-.843 0-1.5-.64-1.5-1.469V3.47c0-.828.657-1.469 1.5-1.469z" font-weight="400" color="#000" fill="#bebebe" overflow="visible" font-family="Sans"/>
</svg>
