<svg height="16" xmlns="http://www.w3.org/2000/svg" width="16"><title>Gnome Symbolic Icon Theme</title><g font-weight="400" color="#000" fill="#bebebe" font-family="Sans"><path d="M8 0C5.25 0 3 2.25 3 5c0 1.586.845 2.903 2 3.813V12h6V8.812c1.155-.909 2-2.226 2-3.812 0-2.75-2.25-5-5-5zm0 2c1.669 0 3 1.331 3 3 0 1.116-.595 2.038-1.5 2.563l-.5.312V10H7V7.875l-.5-.313C5.595 7.038 5 6.117 5 5c0-1.669 1.331-3 3-3zM6 15v1h4v-1H6zM5 13v1h6v-1H5z" style="text-indent:0;text-align:start;line-height:normal;text-transform:none;block-progression:tb;marker:none;-inkscape-font-specification:Sans" overflow="visible"/><path d="M7 5v1h2V5H7z" style="text-indent:0;text-align:start;line-height:normal;text-transform:none;block-progression:tb;marker:none;-inkscape-font-specification:Sans" opacity=".35" overflow="visible"/></g></svg>