<svg xmlns="http://www.w3.org/2000/svg" width="16" height="16" version="1" viewBox="0 0 16 16">
    <g transform="translate(-81 -317)">
        <rect width="3" height="2" x="81" y="324" overflow="visible" rx=".5" ry=".5"/>
        <rect width="3" height="2" x="94" y="324" overflow="visible" rx=".5" ry=".5"/>
        <rect width="3" height="2" x="-174.877" y="291.742" overflow="visible" rx=".5" ry=".5" transform="rotate(-45)"/>
        <rect width="3" height="2" x="-161.877" y="291.742" overflow="visible" rx=".5" ry=".5" transform="rotate(-45)"/>
        <rect width="3" height="2" x="-333" y="88" overflow="visible" rx=".5" ry=".5" transform="rotate(-90)"/>
        <rect width="3" height="2" x="-320" y="88" overflow="visible" rx=".5" ry=".5" transform="rotate(-90)"/>
        <rect width="3" height="2" x="-300.742" y="-167.877" overflow="visible" rx=".5" ry=".5" transform="rotate(-135)"/>
        <rect width="3" height="2" x="-287.742" y="-167.877" overflow="visible" rx=".5" ry=".5" transform="rotate(-135)"/>
        <path d="M88.989 321.008a3.98 3.98 0 0 0-3.98 3.979c0 2.197 1.782 4.009 3.98 4.009 2.197 0 4.008-1.812 4.008-4.009s-1.811-3.98-4.008-3.98zm0 1.99c1.116 0 2.018.873 2.018 1.989a2.017 2.017 0 0 1-2.018 2.019c-1.117 0-1.99-.903-1.99-2.019s.873-1.99 1.99-1.99z" overflow="visible"/>
    </g>
</svg>
