<svg height="16" viewBox="0 0 16.000286 16" width="16" xmlns="http://www.w3.org/2000/svg"><title>Gnome Symbolic Icon Theme</title><path d="M0 2v11.01c0 .833.574 1.506 1.063 1.75.488.244.937.25.937.25h12s.449-.006.938-.25c.488-.244 1.077-.917 1.062-1.75v-3H2.969L2.5 13.041a.52.52 0 0 1-.531.47.52.52 0 0 1-.469-.532l.5-3.5a.515.515 0 0 1 .406-.469.489.489 0 0 1 .094 0H14V4c0-1-1-1-1-1H8L6 1c-1.432.002-5 0-5 0S0 1 0 2z" style="line-height:normal;-inkscape-font-specification:Sans;text-indent:0;text-align:start;text-decoration-line:none;text-transform:none;marker:none" color="#000" font-weight="400" font-family="Sans" overflow="visible" fill="#bebebe"/></svg>