<svg height="16" width="16" xmlns="http://www.w3.org/2000/svg"><title>Gnome Symbolic Icon Theme</title><g transform="translate(-101 -317)" fill="#bebebe"><rect height="2" rx=".472" ry=".5" style="marker:none" width="2.972" x="101" y="327" color="#bebebe" overflow="visible"/><rect height="2" rx=".5" ry=".5" style="marker:none" width="3.016" x="113.984" y="327" color="#bebebe" overflow="visible"/><rect height="2" rx=".5" ry=".5" style="marker:none" transform="rotate(-45)" width="3.016" x="-149.873" y="308.006" color="#bebebe" overflow="visible"/><rect height="2" rx=".5" ry=".5" style="marker:none" transform="rotate(-135)" width="3.016" x="-304.019" y="-155.857" color="#bebebe" overflow="visible"/><rect height="2" rx=".5" ry=".5" style="marker:none" transform="rotate(-90)" width="3" x="-323" y="108" color="#bebebe" overflow="visible"/><path d="M107.245 326a.428.428 0 0 0-.374.261l-.837 2.217c-.101.234.127.528.404.522a25395.185 25395.185 0 0 0 5.134 0c.277.006.505-.288.404-.522l-.837-2.217c-.072-.193-.337-.306-.548-.235-.213.07-.82.261-1.586.261a5.147 5.147 0 0 1-1.586-.26.465.465 0 0 0-.174-.027z" style="marker:none" color="#000" overflow="visible"/></g></svg>