<svg height="16" xmlns="http://www.w3.org/2000/svg" width="16"><title>Gnome Symbolic Icon Theme</title><path d="M8 5H7c-.265 0-.53.093-.719.281l-3 3L3 8.562v.875l.281.282 3 3c.188.188.454.281.72.281h1v-1c0-.265-.094-.53-.282-.719L5.438 9l2.28-2.281c.189-.188.282-.454.282-.72v-.999z" style="text-indent:0;text-align:start;line-height:normal;text-transform:none;block-progression:tb;marker:none;-inkscape-font-specification:Bitstream Vera Sans" font-weight="400" color="#000" fill="#bebebe" overflow="visible" font-family="Bitstream Vera Sans"/><path d="M12 4v2.5c0 .84-.66 1.5-1.5 1.5H5v2h5.5c1.921 0 3.5-1.579 3.5-3.5V4h-2z" style="text-indent:0;text-align:start;line-height:normal;text-transform:none;block-progression:tb;marker:none;-inkscape-font-specification:Sans" font-weight="400" color="#000" fill="#bebebe" overflow="visible" font-family="Sans"/></svg>