<svg height="16" xmlns="http://www.w3.org/2000/svg" width="16"><title>Gnome Symbolic Icon Theme</title><g font-weight="400" color="#000" fill="#bebebe" font-family="Bitstream Vera Sans"><path d="M5.985 5.016A.998 1.002 0 0 1 5.001 4c0-2.198 1.797-4.002 3.988-4.002 2.19 0 3.987 1.804 3.987 4.002a.998 1.002 0 1 1-1.996 0A1.98 1.98 0 0 0 8.99 2.001a1.98 1.98 0 0 0-1.992 2 .998 1.002 0 0 1-1.012 1.015zM7.5 12A2.517 2.517 0 0 1 5 9.5a1 1 0 1 1 2 0c0 .288.212.5.5.5.288 0 .5-.212.5-.5a1 1 0 1 1 2 0C10 10.87 8.87 12 7.5 12z" style="text-indent:0;text-align:start;line-height:normal;text-transform:none;block-progression:tb;marker:none;-inkscape-font-specification:Bitstream Vera Sans" overflow="visible"/><path d="M8.781 5a1 1 0 0 0-.78 1v3.469a1 1 0 1 0 2 0V6a1 1 0 0 0-1.22-1zM11.781 3a1 1 0 0 0-.78 1v6.813a1 1 0 1 0 2 0V4a1 1 0 0 0-1.22-1zM5.781 3a1 1 0 0 0-.78 1v5.406a1 1 0 1 0 2 0V4a1 1 0 0 0-1.22-1zM2.781 4a1 1 0 0 0-.78 1v6a1 1 0 1 0 2 0V5a1 1 0 0 0-1.22-1z" style="text-indent:0;text-align:start;line-height:normal;text-transform:none;block-progression:tb;marker:none;-inkscape-font-specification:Bitstream Vera Sans" overflow="visible"/><path d="M11.844 10a1 1 0 0 0-.656.406L8.5 14H6.47L3.78 10.469a1 1 0 1 0-1.562 1.187l3 3.938A1 1 0 0 0 6 16h3a1 1 0 0 0 .813-.406l3-4a1 1 0 0 0-.97-1.594z" style="text-indent:0;text-align:start;line-height:normal;text-transform:none;block-progression:tb;marker:none;-inkscape-font-specification:Bitstream Vera Sans" overflow="visible"/></g></svg>