<svg height="16" width="16" xmlns="http://www.w3.org/2000/svg"><title>Gnome Symbolic Icon Theme</title><g fill="#bebebe"><path d="M12 3c-1.645 0-3 1.355-3 3v4c0 .571-.429 1-1 1H2v2h6c1.645 0 3-1.355 3-3V6c0-.571.429-1 1-1h3V3h-3z" style="text-indent:0;text-align:start;line-height:normal;text-transform:none;block-progression:tb;marker:none;-inkscape-font-specification:Sans" font-weight="400" color="#bebebe" overflow="visible" font-family="Sans"/><path d="M3.875 9a1 1 0 0 0-.594.281l-2 2L.594 12l.687.719 2 2A1.016 1.016 0 1 0 4.72 13.28L3.438 12l1.28-1.281A1 1 0 0 0 3.876 9zM3.875 1a1 1 0 0 0-.594.281l-2 2L.594 4l.687.719 2 2A1.016 1.016 0 1 0 4.72 5.28L3.438 4l1.28-1.281A1 1 0 0 0 3.876 1z" style="text-indent:0;text-align:start;line-height:normal;text-transform:none;block-progression:tb;marker:none;-inkscape-font-specification:Sans" font-weight="400" color="#bebebe" overflow="visible" font-family="Sans"/><path d="M8 3c.23 0 .44.044.656.094-.481.55-.861 1.177-1.031 1.906H2V3h6zm7 8v2h-3c-.23 0-.44-.044-.656-.094.481-.55.861-1.177 1.031-1.906H15z" style="text-indent:0;text-align:start;line-height:normal;text-transform:none;marker:none" font-weight="400" color="#bebebe" overflow="visible" font-family="Andale Mono"/><path style="marker:none" color="#000" overflow="visible" d="M5 9H4v1h1zM5 14H4v1h1zM5 1H4v1h1zM5 6H4v1h1z"/></g></svg>