<?xml version="1.0"?>
<svg xmlns="http://www.w3.org/2000/svg" height="16" width="16" viewBox="0 0 16 16" version="1">
    <title>
        Gnome Symbolic Icon Theme
    </title>
    <g color="#000" fill="#bebebe">
        <path d="M9.875 9a1 1 0 0 0-.594.281l-2 2-.687.719.687.719 2 2a1.016 1.016 0 1 0 1.438-1.438L9.438 12l1.28-1.281A1 1 0 0 0 9.876 9z" font-weight="400" overflow="visible" font-family="Sans"/>
        <path d="M4 3C2.355 3 1 4.355 1 6v4c0 1.645 1.355 3 3 3h1v-2H4c-.571 0-1-.429-1-1V6c0-.571.429-1 1-1h8c.571 0 1 .429 1 1v4c0 .571-.429 1-1 1H8v2h4c1.645 0 3-1.355 3-3V6c0-1.645-1.355-3-3-3H4z" font-weight="400" overflow="visible" font-family="Sans"/>
        <path overflow="visible" d="M10 9h1v1h-1zm0 5h1v1h-1z"/>
    </g>
</svg>
