<?xml version="1.0"?>
<svg xmlns="http://www.w3.org/2000/svg" height="16" width="16" viewBox="0 0 16 16" version="1">
    <title>
        Gnome Symbolic Icon Theme
    </title>
    <g color="#000" fill="#bebebe">
        <path d="M5.781 9a1 1 0 0 0-.5 1.719L6.563 12 5.28 13.281a1.016 1.016 0 1 0 1.44 1.439l2-2 .686-.72-.687-.719-2-2A1 1 0 0 0 5.78 9z" font-weight="400" overflow="visible" font-family="Sans"/>
        <path d="M4 3C2.355 3 1 4.355 1 6v4c0 1.645 1.355 3 3 3h4v-2H4c-.571 0-1-.429-1-1V6c0-.571.429-1 1-1h8c.571 0 1 .429 1 1v4c0 .571-.429 1-1 1h-1v2h1c1.645 0 3-1.355 3-3V6c0-1.645-1.355-3-3-3H4z" font-weight="400" overflow="visible" font-family="Sans"/>
        <path overflow="visible" d="M6 9H5v1h1zm0 5H5v1h1z"/>
    </g>
</svg>
