<svg xmlns="http://www.w3.org/2000/svg" width="16" height="16" version="1" viewBox="0 0 16 16">
    <path d="M12 3c-1.645 0-3 1.355-3 3v4c0 .571-.429 1-1 1H2v2h6c1.645 0 3-1.355 3-3V6c0-.571.429-1 1-1h3V3h-3z" overflow="visible"/>
    <path d="M3.875 9a1 1 0 0 0-.594.281l-2 2L.594 12l.687.719 2 2A1.016 1.016 0 1 0 4.72 13.28L3.438 12l1.28-1.281A1 1 0 0 0 3.876 9zm0-8a1 1 0 0 0-.594.281l-2 2L.594 4l.687.719 2 2A1.016 1.016 0 1 0 4.72 5.28L3.438 4l1.28-1.281A1 1 0 0 0 3.876 1z" overflow="visible"/>
    <path d="M8 3c.23 0 .44.044.656.094-.481.55-.861 1.177-1.031 1.906H2V3h6zm7 8v2h-3c-.23 0-.44-.044-.656-.094.481-.55.861-1.177 1.031-1.906H15zM5 9H4v1h1zm0 5H4v1h1zM5 1H4v1h1zm0 5H4v1h1z" overflow="visible"/>
</svg>