<svg height="16.001" width="16" xmlns="http://www.w3.org/2000/svg"><title>Gnome Symbolic Icon Theme</title><defs><clipPath id="a"><path style="marker:none" color="#bebebe" fill="none" stroke="#fff" stroke-width="2" stroke-linecap="round" stroke-linejoin="round" overflow="visible" d="M21 281h14v11H21z"/></clipPath></defs><g transform="translate(-141 -197)" fill="#bebebe"><path d="M154 198a2 2 0 1 0 0 4 2 2 0 0 0 0-4zm0 1a1 1 0 1 1 0 2 1 1 0 0 1 0-2z" style="marker:none" opacity=".5" color="#000" overflow="visible"/><rect height="10" rx="2.5" ry="2.5" style="marker:none" width="5" x="144" y="198" color="#bebebe" overflow="visible"/><path clip-path="url(#a)" d="M27.969 273.625a4.531 4.531 0 0 0-4.532 4.531v5.813a4.531 4.531 0 0 0 9.063 0v-5.813a4.531 4.531 0 0 0-4.531-4.531zm0 1a3.514 3.514 0 0 1 3.531 3.531v5.813a3.514 3.514 0 0 1-3.531 3.531 3.514 3.514 0 0 1-3.532-3.531v-5.813a3.514 3.514 0 0 1 3.532-3.531z" style="text-indent:0;text-align:start;line-height:normal;text-transform:none;block-progression:tb;marker:none;-inkscape-font-specification:Sans" transform="matrix(.99397 0 0 1 118.707 -78.486)" font-weight="400" color="#bebebe" overflow="visible" font-family="Sans"/><path d="M143 202.5a.5.5 0 1 1-1 0 .5.5 0 1 1 1 0zM151 202.5a.5.5 0 1 1-1 0 .5.5 0 1 1 1 0z" style="marker:none" color="#bebebe" overflow="visible"/><path d="M142.906 211a1.001 1.001 0 1 0 .094 2h7a1 1 0 1 0 0-2h-7a1 1 0 0 0-.094 0z" style="text-indent:0;text-align:start;line-height:normal;text-transform:none;block-progression:tb;marker:none;-inkscape-font-specification:Sans" font-weight="400" color="#bebebe" overflow="visible" font-family="Sans"/><path style="marker:none" color="#bebebe" overflow="visible" d="M142 212h9v1h-9z"/><path style="marker:none" color="#bebebe" overflow="visible" d="M145 209h3v4h-3z"/><path d="M156 210a2 2 0 1 1-4 0 2 2 0 1 1 4 0z" style="marker:none" color="#000" overflow="visible"/><path d="M154 203a2 2 0 1 0 0 4 2 2 0 0 0 0-4zm0 1a1 1 0 1 1 0 2 1 1 0 0 1 0-2z" style="marker:none" opacity=".5" color="#000" overflow="visible"/></g></svg>