<?xml version="1.0"?>
<svg xmlns="http://www.w3.org/2000/svg" height="16.001" width="16" viewBox="0 0 16 16.001" version="1">
    <title>
        Gnome Symbolic Icon Theme
    </title>
    <defs>
        <clipPath id="a">
            <path stroke="#fff" stroke-width="2" stroke-linecap="round" stroke-linejoin="round" overflow="visible" d="M21 281h14v11H21z"/>
        </clipPath>
    </defs>
    <g transform="translate(-161 -197)">
        <path d="M174 198a2 2 0 1 0 0 4 2 2 0 0 0 0-4zm0 1a1 1 0 1 1 0 2 1 1 0 0 1 0-2z" opacity=".5" overflow="visible"/>
        <rect height="10.013" rx="2.5" ry="2.5" width="5" x="164" y="197.987" overflow="visible"/>
        <path clip-path="url(#a)" d="M27.969 273.625a4.531 4.531 0 0 0-4.532 4.531v5.813a4.531 4.531 0 0 0 9.063 0v-5.813a4.531 4.531 0 0 0-4.531-4.531zm0 1a3.514 3.514 0 0 1 3.531 3.531v5.813a3.514 3.514 0 0 1-3.531 3.531 3.514 3.514 0 0 1-3.532-3.531v-5.813a3.514 3.514 0 0 1 3.532-3.531z" transform="matrix(.99397 0 0 1 138.707 -78.486)" overflow="visible"/>
        <path d="M163 202.5a.5.5 0 1 1-1 0 .5.5 0 1 1 1 0zm8 0a.5.5 0 1 1-1 0 .5.5 0 1 1 1 0z" overflow="visible"/>
        <path d="M162.906 211a1.001 1.001 0 1 0 .094 2h7a1 1 0 1 0 0-2h-7a1 1 0 0 0-.094 0z" overflow="visible"/>
        <path overflow="visible" d="M162 212h9v1h-9z"/>
        <path overflow="visible" d="M165 209h3v4h-3z"/>
        <path d="M176 210a2 2 0 1 1-4 0 2 2 0 1 1 4 0zm0-5a2 2 0 1 1-4 0 2 2 0 1 1 4 0z" overflow="visible"/>
    </g>
</svg>
