<svg xmlns="http://www.w3.org/2000/svg" width="16" height="16.001" version="1" viewBox="0 0 16 16.001">
    <path d="M154 198a2 2 0 1 0 0 4 2 2 0 0 0 0-4zm0 1a1 1 0 1 1 0 2 1 1 0 0 1 0-2z" opacity=".5" overflow="visible"/>
    <rect width="5" height="10" x="144" y="198" overflow="visible" rx="2.5" ry="2.5"/>
    <path d="M27.969 273.625a4.531 4.531 0 0 0-4.532 4.531v5.813a4.531 4.531 0 0 0 9.063 0v-5.813a4.531 4.531 0 0 0-4.531-4.531zm0 1a3.514 3.514 0 0 1 3.531 3.531v5.813a3.514 3.514 0 0 1-3.531 3.531 3.514 3.514 0 0 1-3.532-3.531v-5.813a3.514 3.514 0 0 1 3.532-3.531zM143 202.5a.5.5 0 1 1-1 0 .5.5 0 1 1 1 0zm8 0a.5.5 0 1 1-1 0 .5.5 0 1 1 1 0zm-8.094 8.5a1.001 1.001 0 1 0 .094 2h7a1 1 0 1 0 0-2h-7a1 1 0 0 0-.094 0z" overflow="visible"/>
    <path d="M142 212h9v1h-9z" overflow="visible"/>
    <path d="M145 209h3v4h-3zm11 1a2 2 0 1 1-4 0 2 2 0 1 1 4 0z" overflow="visible"/>
    <path d="M154 203a2 2 0 1 0 0 4 2 2 0 0 0 0-4zm0 1a1 1 0 1 1 0 2 1 1 0 0 1 0-2z" opacity=".5" overflow="visible"/>
</svg>