<svg xmlns="http://www.w3.org/2000/svg" width="16" height="16.002" version="1" viewBox="0 0 16 16.002">
    <g transform="translate(-181 -197)">
        <rect width="5" height="10.013" x="184" y="197.987" overflow="visible" rx="2.5" ry="2.5"/>
        <path d="M186.507 195.139a4.504 4.531 0 0 0-4.504 4.531v5.813a4.504 4.532 0 0 0 9.008 0v-5.813a4.504 4.531 0 0 0-4.504-4.531zm0 1a3.493 3.514 0 0 1 3.51 3.531v5.813a3.493 3.514 0 0 1-3.51 3.531 3.493 3.514 0 0 1-3.51-3.531v-5.813a3.493 3.514 0 0 1 3.51-3.531z" overflow="visible"/>
        <path d="M183 202.5a.5.5 0 1 1-1 0 .5.5 0 1 1 1 0zm8 0a.5.5 0 1 1-1 0 .5.5 0 1 1 1 0zm-8.125 8.5a1.002 1.002 0 1 0 .125 2h7.031a1 1 0 1 0 0-2H183a1 1 0 0 0-.125 0z" overflow="visible"/>
        <path d="M182 212h9v1h-9z" overflow="visible"/>
        <path d="M185 209h3v4h-3zm11 1a2 2 0 1 1-4 0 2 2 0 1 1 4 0zm0-5a2 2 0 1 1-4 0 2 2 0 1 1 4 0zm0-5a2 2 0 1 1-4 0 2 2 0 1 1 4 0z" overflow="visible"/>
    </g>
</svg>
