<?xml version="1.0"?>
<svg xmlns="http://www.w3.org/2000/svg" height="16.001" width="16" viewBox="0 0 16 16.001" version="1">
    <title>
        Gnome Symbolic Icon Theme
    </title>
    <defs>
        <clipPath id="a">
            <path stroke="#fff" stroke-width="2" stroke-linecap="round" stroke-linejoin="round" overflow="visible" d="M21 281h14v11H21z"/>
        </clipPath>
    </defs>
    <g transform="translate(-121 -197)">
        <rect height="10.013" rx="2.5" ry="2.5" width="5" x="124" y="197.987" overflow="visible"/>
        <path clip-path="url(#a)" d="M27.969 273.625a4.531 4.531 0 0 0-4.532 4.531v5.813a4.531 4.531 0 0 0 9.063 0v-5.813a4.531 4.531 0 0 0-4.531-4.531zm0 1a3.514 3.514 0 0 1 3.531 3.531v5.813a3.514 3.514 0 0 1-3.531 3.531 3.514 3.514 0 0 1-3.532-3.531v-5.813a3.514 3.514 0 0 1 3.532-3.531z" transform="matrix(.99397 0 0 1 98.707 -78.486)" overflow="visible"/>
        <path d="M123 202.5a.5.5 0 1 1-1 0 .5.5 0 1 1 1 0zm8 0a.5.5 0 1 1-1 0 .5.5 0 1 1 1 0z" overflow="visible"/>
        <path d="M122.906 211a1.001 1.001 0 1 0 .094 2h7a1 1 0 1 0 0-2h-7a1 1 0 0 0-.094 0z" overflow="visible"/>
        <path overflow="visible" d="M122 212h9v1h-9z"/>
        <path overflow="visible" d="M125 209h3v4h-3z"/>
        <path d="M134 197.992c-1.098 0-2.008.91-2.008 2.008 0 1.099.91 2.008 2.008 2.008 1.099 0 2.008-.91 2.008-2.008 0-1.099-.91-2.008-2.008-2.008zm0 1.016a.98.98 0 0 1 .992.992.979.979 0 0 1-.992.992.979.979 0 0 1-.992-.992.98.98 0 0 1 .992-.992zm0 3.984c-1.098 0-2.008.91-2.008 2.008 0 1.099.91 2.008 2.008 2.008 1.099 0 2.008-.91 2.008-2.008 0-1.099-.91-2.008-2.008-2.008zm0 1.016a.98.98 0 0 1 .992.992.979.979 0 0 1-.992.992.979.979 0 0 1-.992-.992.98.98 0 0 1 .992-.992z" opacity=".5" overflow="visible"/>
        <path d="M132 208h1.375l1.125 1.094 1.094-1.094H137v1.469l-1.094 1.062 1.094 1.063V213h-1.437l-1.063-1.063-1.062 1.063H132v-1.406l1.063-1.063L132 209.47V208z" overflow="visible"/>
    </g>
</svg>
