<svg xmlns="http://www.w3.org/2000/svg" width="16" height="16" version="1" viewBox="0 0 16 16">
    <path d="M8 2v1h1v-.969A12.13 12.13 0 0 0 8 2zm1 1v1h1V3zm1 0h1v-.594a9.508 9.508 0 0 0-1-.218zm1 0v1h1V3zm1 0h.5c-.165-.084-.327-.145-.5-.219zm0 1v1h1V4zm1 0h1v1h1a7.865 7.865 0 0 0-2-1.719zm2 1v1h-1v1h-1v1h-1v1h-1v1h-1V9H9v1H8V9H7v1H6V9H5V8H4V7H3V6H2V5h-.563C-.128 6.851 1 9.376 1 12c0 5.215 1.39 6 7 6s7-.784 7-6c0-2.374 1.296-5.441 0-7zM2 5h1V4h-.563c-.144.124-.3.242-.437.375zm1-1h1V3h-.063A8.017 8.017 0 0 0 3 3.563zm1-1h1v-.5c-.346.125-.68.303-1 .469zm1 0v1h1V3zm1 0h1v-.938a8.79 8.79 0 0 0-1 .157zm1 0v1h1V3zm1 1v1h1V4zm1 1v1h1V5zm1 0h1V4h-1zm1 0v1h1V5zm1 1v1h1V6zm1 0h1V5h-1zm-1 1h-1v1h1zm-1 1h-1v1h1zm-1 0V7H9v1zM9 8H8v1h1zM8 8V7H7v1zM7 8H6v1h1zM6 8V7H5v1zM5 7V6H4v1zM4 6V5H3v1zm0-1h1V4H4zm1 0v1h1V5zm1 0h1V4H6zm1 0v1h1V5zm1 1v1h1V6zM7 6H6v1h1zm3 1h1V6h-1z" opacity=".35" overflow="visible"/>
    <path d="M0 16V0h16v16z" overflow="visible"/>
    <path d="M10 13a2 2 0 1 1-4 0 2 2 0 0 1 4 0z"/>
</svg>
