<svg height="16" width="16" xmlns="http://www.w3.org/2000/svg"><title>Gnome Symbolic Icon Theme</title><path d="M5 7c-.31 0-.615.09-.812.281L.594 11l3.656 3.719c.198.19.44.281.75.281h1v-1c0-.257-.13-.529-.312-.719L4.406 12h3.625c.022-.277.113-1 .723-2H4.375l1.219-1.281C5.777 8.529 6 8.257 6 8V7z" style="text-indent:0;text-align:start;line-height:normal;text-transform:none;block-progression:tb;marker:none;-inkscape-font-specification:Sans" font-weight="400" opacity=".5" color="#000" fill="#bebebe" overflow="visible" font-family="Sans"/><path class="error" d="M12.5 9a3.5 3.5 0 1 0 0 7 3.5 3.5 0 0 0 0-7zM10 11.969h5V13h-5v-1.031z" style="marker:none" color="#bebebe" fill="#ef2929" overflow="visible"/><path d="M12.48 8.031L15.406 5 11.75 1.281C11.552 1.091 11.31 1 11 1h-1v1c0 .257.13.529.313.719L11.593 4H7c-.528-.007-1 .472-1 1s.472 1.007 1 1h4.625l-1.219 1.281c-.182.19-.406.462-.406.719v.426c.62-.377 1.909-.507 2.48-.395z" style="text-indent:0;text-align:start;line-height:normal;text-transform:none;block-progression:tb;marker:none;-inkscape-font-specification:Sans" font-weight="400" opacity=".5" color="#000" fill="#bebebe" overflow="visible" font-family="Sans"/></svg>