<?xml version="1.0"?>
<svg xmlns="http://www.w3.org/2000/svg" height="16" width="16" viewBox="0 0 16 16" version="1">
    <title>
        Gnome Symbolic Icon Theme
    </title>
    <g fill="#bebebe">
        <path d="M.022 9v6h3v-3h-2V9h-1zM12 .022v7h2v5h-2v3h3v-15h-3zM4 12v3h3v-3H4zm4 0v3h3v-3H8zM4 6v1h3V6H4zm4-3v4h3V3H8z" opacity=".35" color="#bebebe" overflow="visible"/>
        <path d="M5 9.5a1.5 1.5 0 1 1-3 0 1.5 1.5 0 1 1 3 0zm4 0a1.5 1.5 0 1 1-3 0 1.5 1.5 0 1 1 3 0zm4 0a1.5 1.5 0 1 1-3 0 1.5 1.5 0 1 1 3 0z"/>
    </g>
</svg>
