<svg xmlns="http://www.w3.org/2000/svg" width="16" height="16" version="1" viewBox="0 0 16 16">
    <path d="M245 248v1.01h3v.99h-5v2h12v-2h-5v-.99h3V248h-8z" opacity=".5" overflow="visible" white-space="normal"/>
    <path d="M249 238c-1.645 0-3 1.355-3 3v1h-1v1.01h8V242h-1v-1c0-1.645-1.355-3-3-3zm0 2c.564 0 1 .436 1 1v1h-2v-1c0-.564.436-1 1-1z" opacity=".5" overflow="visible"/>
    <circle cx="244.5" cy="245.5" r="1.5"/>
    <circle cx="248.5" cy="245.5" r="1.5"/>
    <circle cx="252.5" cy="245.5" r="1.5"/>
</svg>