<svg xmlns="http://www.w3.org/2000/svg" width="16" height="16" version="1" viewBox="0 0 16 16">
    <path d="M7.848 4.969c1.642-.092 3.096 1.17 3.188 2.812 0 1.402-.378 1.922-1.594 2.844-.191.144-.326.25-.375.313-.05.062-.031.033-.031.03.007.529-.472 1-1 1-.529 0-1.007-.471-1-1 0-.502.224-.943.468-1.25a3.82 3.82 0 0 1 .72-.687c.203-.16.46-.384.687-.656.093-.112.129-.308.125-.438v-.03a.988.988 0 0 0-1.063-.938c-.563.031-.969.437-.937 1h-2c-.092-1.643 1.17-2.908 2.812-3zm.188 8a1 1 0 1 1 0 2 1 1 0 0 1 0-2z" overflow="visible"/>
    <path d="M.467 5.667a1.038.965 0 0 0 1.7.584 1.038.965 0 0 0 .09-.086 8.104 7.533 0 0 1 11.474 0 1.038.965 0 1 0 1.434-1.333 10.129 9.416 0 0 0-14.343 0 1.038.965 0 0 0-.358.835z" opacity=".35" overflow="visible"/>
    <path d="M5 10h1.016c.024-.343.139-.72.514-1H5zM3 8h1.016c-.016-.68.102-1.652.664-2.18C4.096 6 3.433 6.503 3 7zm10 0h-1.016c.016-.68-.102-1.652-.664-2.18.584.18 1.247.683 1.68 1.18z" opacity=".35"/>
</svg>
