<?xml version="1.0"?>
<svg xmlns="http://www.w3.org/2000/svg" height="16" width="16" viewBox="0 0 16 16" version="1">
    <title>
        Gnome Symbolic Icon Theme
    </title>
    <g fill="#bebebe">
        <path d="M0 9v6h3V9H0zm12-9v15h3V0h-3z" font-weight="400" opacity=".35" color="#000" fill-rule="evenodd" overflow="visible" font-family="Sans"/>
        <path d="M7.848 4.969c1.642-.092 3.096 1.17 3.188 2.812 0 1.402-.378 1.922-1.594 2.844-.191.144-.326.25-.375.313-.05.062-.031.033-.031.03.007.529-.472 1-1 1-.529 0-1.007-.471-1-1 0-.502.224-.943.468-1.25a3.82 3.82 0 0 1 .72-.687c.203-.16.46-.384.687-.656.093-.112.129-.308.125-.438v-.03a.988.988 0 0 0-1.063-.938c-.563.031-.969.437-.937 1h-2c-.092-1.643 1.17-2.908 2.812-3zm.188 8a1 1 0 1 1 0 2 1 1 0 0 1 0-2z" color="#bebebe" overflow="visible"/>
        <path d="M8 3v1.031c1.18 0 2.262.532 3 1.375V3H8zM4 6v9h2.406a1.956 1.956 0 0 1-.312-1.031c0-.65.375-1.148.875-1.5-.501-.348-.884-.825-.875-1.5 0-.782.344-1.413.687-1.844.078-.098.14-.135.219-.219H5.031a.938.938 0 0 1-.937-.875A3.683 3.683 0 0 1 4.562 6H4zm7 4.5a7.612 7.612 0 0 1-1 .875c-.09.068-.17.144-.219.188 0 .003-.03-.005-.031 0-.008.01-.031.029-.031.03-.011.012-.005.038-.031.063-.14.34-.297.607-.594.813.5.352.875.85.875 1.5 0 .373-.125.733-.313 1.031H11v-4.5z" font-weight="400" opacity=".35" color="#000" fill-rule="evenodd" overflow="visible" font-family="Sans"/>
    </g>
</svg>
