<svg xmlns="http://www.w3.org/2000/svg" width="16" height="16" version="1" viewBox="0 0 16 16">
    <path d="M-72-38v1h1v-.969A12.13 12.13 0 0 0-72-38zm1 1v1h1v-1zm1 0h1v-.594a9.508 9.508 0 0 0-1-.218zm1 0v1h1v-1zm1 0h.5c-.165-.084-.327-.145-.5-.219zm0 1v1h1v-1zm1 0h1v1h1a7.865 7.865 0 0 0-2-1.719zm2 1v1h-1v1h-1v1h-1v1h-1v1h-1v-1h-1v1h-1v-1h-1v1h-1v-1h-1v-1h-1v-1h-1v-1h-1v-1h-.563c-1.565 1.851-.437 4.376-.437 7 0 5.215 1.39 6 7 6s7-.784 7-6c0-2.374 1.296-5.441 0-7zm-13 0h1v-1h-.563c-.144.124-.3.242-.437.375zm1-1h1v-1h-.063a8.017 8.017 0 0 0-.937.563zm1-1h1v-.5c-.346.125-.68.303-1 .469zm1 0v1h1v-1zm1 0h1v-.938a8.79 8.79 0 0 0-1 .157zm1 0v1h1v-1zm1 1v1h1v-1zm1 1v1h1v-1zm1 0h1v-1h-1zm1 0v1h1v-1zm1 1v1h1v-1zm1 0h1v-1h-1zm-1 1h-1v1h1zm-1 1h-1v1h1zm-1 0v-1h-1v1zm-1 0h-1v1h1zm-1 0v-1h-1v1zm-1 0h-1v1h1zm-1 0v-1h-1v1zm-1-1v-1h-1v1zm-1-1v-1h-1v1zm0-1h1v-1h-1zm1 0v1h1v-1zm1 0h1v-1h-1zm1 0v1h1v-1zm1 1v1h1v-1zm-1 0h-1v1h1zm3 1h1v-1h-1z" opacity=".35" overflow="visible"/>
    <path d="M0 16V0h16v16z" overflow="visible"/>
    <path d="M10 13a2 2 0 1 1-4 0 2 2 0 0 1 4 0z"/>
</svg>