<svg xmlns="http://www.w3.org/2000/svg" width="16" height="16" version="1" viewBox="0 0 16 16">
    <path d="M5 7c-.31 0-.615.09-.813.281L.594 11l3.656 3.719c.198.19.44.281.75.281h1v-1c0-.257-.13-.529-.313-.719L4.407 12H9c.528.007 1-.472 1-1s-.472-1.007-1-1H4.375l1.219-1.281C5.776 8.529 6 8.257 6 8V7zm6.594 2c.31 0 .614-.09.812-.281L16 5l-3.656-3.719c-.198-.19-.44-.281-.75-.281h-1v1c0 .257.13.529.312.719L12.187 4H7c-.528-.007-1 .472-1 1s.472 1.007 1 1h5.219L11 7.281c-.183.19-.406.462-.406.719v1z" overflow="visible"/>
</svg>
