<svg xmlns="http://www.w3.org/2000/svg" width="16" height="16" version="1" viewBox="0 0 16 16">
    <g transform="translate(-161 -177)">
        <circle cx="169" cy="190" r="2" opacity=".32" overflow="visible"/>
        <path d="M169 179c-2.814 0-5.172 1-7 2.586V183h1.48c1.52-1.264 3.22-2 5.52-2 2.3 0 4 .78 5.52 2H176v-1.381c-1.64-1.466-4.186-2.619-7-2.619z" opacity=".32" overflow="visible"/>
        <path d="M169 182c-1.504 0-2.86.36-3.875 1h7.688c-1.021-.627-2.35-1-3.813-1z" opacity=".32" overflow="visible"/>
        <rect width="3.008" height="3.008" x="163.492" y="184" display="block" overflow="visible" rx="1.496" ry="1.496"/>
        <rect width="3.008" height="3.008" x="167.492" y="184" display="block" overflow="visible" rx="1.496" ry="1.496"/>
        <rect width="3.008" height="3.008" x="171.492" y="184" display="block" overflow="visible" rx="1.496" ry="1.496"/>
    </g>
</svg>
