<svg height="16" width="16" xmlns="http://www.w3.org/2000/svg"><title>Gnome Symbolic Icon Theme</title><g transform="translate(-241 -237)" fill="#bebebe"><path d="M245 248v1.01h3v.99h-5v2h12v-2h-5v-.99h3V248h-8z" style="line-height:normal;text-indent:0;text-align:start;text-decoration-line:none;text-decoration-style:solid;text-decoration-color:#000;text-transform:none;block-progression:tb;isolation:auto;mix-blend-mode:normal;marker:none" color="#bebebe" font-weight="400" font-family="sans-serif" white-space="normal" overflow="visible" opacity=".5"/><path d="M249 238c-1.645 0-3 1.355-3 3v1h-1v1.01h8V242h-1v-1c0-1.645-1.355-3-3-3zm0 2c.564 0 1 .436 1 1v1h-2v-1c0-.564.436-1 1-1z" style="marker:none" color="#bebebe" overflow="visible" opacity=".5"/><circle cx="244.5" cy="245.5" r="1.5"/><circle cx="248.5" cy="245.5" r="1.5"/><circle cx="252.5" cy="245.5" r="1.5"/></g></svg>