<svg xmlns="http://www.w3.org/2000/svg" width="16" height="16" version="1" viewBox="0 0 16 16">
    <path d="M8.01 1a1.046 1.046 0 0 0-.664.255 1.967 1.967 0 0 0-.401.482c-.225.358-.404.787-.577 1.222-.173.435-.336.873-.493 1.218-.158.345-.35.588-.363.597a2.902 2.902 0 0 1-.7.143c-.388.034-.871.043-1.353.063-.482.02-.961.05-1.384.141a2.067 2.067 0 0 0-.6.215.997.997 0 0 0-.462.527.957.957 0 0 0 .048.689c.085.195.208.36.35.518.282.316.65.612 1.026.905.375.293.758.58 1.05.83.29.252.468.501.473.516.005.015.01.319-.075.686-.086.367-.224.816-.353 1.264-.13.449-.25.895-.29 1.311-.02.208-.022.41.026.618a.985.985 0 0 0 .377.587c.214.152.474.188.692.17a2.08 2.08 0 0 0 .618-.162c.4-.162.806-.407 1.21-.66.405-.254.805-.518 1.143-.708.337-.19.64-.276.656-.276.016 0 .317.09.653.282.335.192.732.458 1.135.715.402.257.806.506 1.205.672.199.082.398.147.617.167.218.02.478-.017.693-.167a.982.982 0 0 0 .382-.582c.05-.207.05-.41.032-.618-.036-.417-.153-.864-.278-1.314-.125-.45-.26-.9-.343-1.268a2.644 2.644 0 0 1-.07-.686c.005-.015.186-.264.479-.512.293-.249.68-.532 1.057-.822.378-.29.746-.583 1.032-.897.143-.157.269-.32.356-.514a.955.955 0 0 0 .053-.688 1.002 1.002 0 0 0-.458-.532 2.067 2.067 0 0 0-.598-.22c-.422-.095-.9-.126-1.382-.15-.482-.024-.967-.039-1.355-.077a2.912 2.912 0 0 1-.699-.148 2.7 2.7 0 0 1-.357-.598c-.155-.346-.314-.786-.482-1.223-.17-.436-.345-.866-.566-1.225a1.958 1.958 0 0 0-.396-.485A1.048 1.048 0 0 0 8.01 1zm-.004 1.005c.043.038.114.12.19.241.154.252.323.648.486 1.07.163.421.324.87.501 1.266s.33.748.691 1.003c.36.255.751.289 1.196.332.445.044.939.057 1.405.08.466.024.908.061 1.203.128.143.032.245.072.295.1a1.13 1.13 0 0 1-.18.248c-.2.22-.535.497-.9.777-.366.28-.76.566-1.096.851-.335.285-.634.532-.774.942-.14.41-.054.782.041 1.204.095.422.235.879.356 1.313.121.435.221.851.247 1.143a1.04 1.04 0 0 1-.01.301 1.18 1.18 0 0 1-.3-.087c-.277-.115-.653-.34-1.042-.59-.39-.248-.795-.519-1.18-.74-.384-.22-.719-.417-1.166-.42-.447-.001-.786.193-1.173.41-.386.218-.794.487-1.185.732s-.77.467-1.05.58a1.219 1.219 0 0 1-.3.087 1.089 1.089 0 0 1-.007-.303c.028-.292.133-.706.258-1.14.124-.433.269-.888.367-1.31.098-.42.189-.791.052-1.202-.136-.411-.434-.66-.767-.948-.334-.288-.725-.578-1.088-.861-.362-.284-.697-.563-.895-.785a1.111 1.111 0 0 1-.176-.25c.05-.028.151-.067.294-.098.296-.064.738-.098 1.204-.117.466-.02.958-.028 1.403-.068.445-.04.84-.072 1.202-.324.363-.253.518-.602.698-.997.18-.395.347-.843.514-1.263.167-.42.337-.814.495-1.064a1.14 1.14 0 0 1 .19-.241z" overflow="visible" white-space="normal"/>
</svg>
