<?xml version="1.0"?>
<svg xmlns="http://www.w3.org/2000/svg" height="16" width="16" viewBox="0 0 16 16" version="1">
    <title>
        Gnome Symbolic Icon Theme
    </title>
    <g>
        <path d="M2 1v7c0 2.072 1.51 3.681 2.844 4.875a20.44 20.44 0 0 0 2.656 2l.5.281.531-.312s1.295-.798 2.625-2C12.487 11.64 14 10.044 14 8V1H2zm2 2h8v5c0 .92-.987 2.318-2.156 3.375-.906.819-1.48 1.139-1.844 1.375-.354-.222-.929-.525-1.844-1.344C4.99 10.363 4 8.98 4 8V3z" overflow="visible"/>
        <path d="M8 4v7.5c-.42-.294-.581-.355-1.156-.875C5.755 9.641 5 8.357 5 8V4h3z" overflow="visible"/>
    </g>
</svg>
