<?xml version="1.0"?>
<svg xmlns="http://www.w3.org/2000/svg" height="16" width="16" viewBox="0 0 16 16" version="1">
    <title>
        Gnome Symbolic Icon Theme
    </title>
    <g fill="#bebebe">
        <path d="M13 15v-4.5H9.5z"/>
        <path d="M3.5 1A2.495 2.495 0 0 0 1 3.5v5C1 9.885 2.115 11 3.5 11h9c1.385 0 2.5-1.115 2.5-2.5v-5C15 2.115 13.885 1 12.5 1h-9zM5 3h1c.276 0 .538.1.719.281L8 4.562l1.281-1.28C9.462 3.1 9.724 3 10 3h1v1c0 .276-.1.538-.281.719L9.438 6l1.28 1.281c.182.181.282.443.282.719v1h-1c-.276 0-.538-.1-.719-.281L8 7.438l-1.281 1.28A1.015 1.015 0 0 1 6 9H5V8c0-.276.1-.538.281-.719L6.563 6 5.28 4.719A1.015 1.015 0 0 1 5 4V3z"/>
    </g>
</svg>
