<svg height="16" width="16.001" xmlns="http://www.w3.org/2000/svg"><title>Gnome Symbolic Icon Theme</title><path d="M4.001 2v-.969h7V2zM3.47.031c-.49 0-.796.229-1.031.469C2.204.74 2 1.059 2 1.531V2h-2v2h15V2h-2v-.375a1.664 1.664 0 0 0-.406-1.031 1.53 1.53 0 0 0-1.156-.532v-.03H3.47zM12.001 5h2c1.674 2.927 1.138 5.854 0 8.781-.435 1.12-.982 2.219-2.187 2.219H3.189C1.984 16 1.412 14.91 1 13.781-.04 10.92-.598 8.027 1.001 5h2c-1.721 2.948-.985 5.97 0 9h9c1.096-3.033 1.632-6.05 0-9zm-4.969-.017V13h.97V4.984zm1.97 0c1.761 2.224.83 5.632 0 8.017h1c.824-2.308 1.839-5.627 0-8.016zm-3.97 0c-1.817 2.61-.856 5.813 0 8.017h.97c-.866-2.222-1.663-5.469 0-8.016z" style="text-indent:0;text-align:start;line-height:normal;text-transform:none;marker:none" font-weight="400" color="#bebebe" fill="#bebebe" overflow="visible" font-family="Bitstream Vera Sans"/></svg>