<?xml version="1.0"?>
<svg xmlns="http://www.w3.org/2000/svg" height="16" width="16" viewBox="0 0 16 16" version="1">
    <title>
        Gnome Symbolic Icon Theme
    </title>
    <g>
        <path d="M1.781 5a1 1 0 0 0-.5 1.719l2 2 .72.687.718-.687 2-2A1.016 1.016 0 1 0 5.28 5.28L4 6.562 2.718 5.28A1 1 0 0 0 1.78 5z" overflow="visible"/>
        <path d="M6 1C4.355 1 3 2.355 3 4v4h2V4c0-.571.429-1 1-1h4c.571 0 1 .429 1 1v8c0 .571-.429 1-1 1H6v2h4c1.645 0 3-1.355 3-3V4c0-1.645-1.355-3-3-3H6z" overflow="visible"/>
        <path overflow="visible" d="M7 6V5H6v1zM2 6V5H1v1z"/>
    </g>
</svg>
