<?xml version="1.0"?>
<svg xmlns="http://www.w3.org/2000/svg" height="16" width="16" viewBox="0 0 16 16" version="1">
    <title>
        Gnome Symbolic Icon Theme
    </title>
    <g>
        <path d="M9.536 0C8.259 0 7.222.973 7.081 2.219 6.756 2.097 6.423 2 6.055 2a2.992 2.992 0 0 0-2.983 3c0 .098.022.185.031.281A1.992 1.992 0 0 0 .089 7c0 1.105.89 2 1.989 2h1.025a1.492 1.5 0 0 1 1.803-1.906 1.492 1.5 0 0 1 .03 0 1.492 1.5 0 0 1 1.337-.438 1.492 1.5 0 0 1 .839-.593A1.492 1.5 0 0 1 8.51 4.968a1.492 1.5 0 0 1 1.461 1.093 1.492 1.5 0 0 1 .84.594 1.492 1.5 0 0 1 1.398.407A1.492 1.5 0 0 1 13.979 9h.53c.823 0 1.49-.672 1.49-1.5S15.333 6 14.51 6c-.207 0-.413.05-.591.125.052-.202.093-.407.093-.625 0-1.23-.888-2.228-2.051-2.438a2.5 2.5 0 0 0 .062-.562c0-1.38-1.113-2.5-2.486-2.5z" overflow="visible"/>
        <path d="M8.438 5.938a.5.5 0 0 0-.438.53v.657L7.719 7a.503.503 0 1 0-.438.906L8 8.25v1.813L6.344 9.03l.062-.875a.502.502 0 1 0-1-.093l-.03.406-.595-.375a.5.5 0 1 0-.531.844l.656.406-.312.25a.503.503 0 1 0 .594.812l.656-.5 1.687 1.032L5.813 12l-.657-.469a.5.5 0 1 0-.593.782l.343.25-.687.406a.512.512 0 1 0 .531.875l.625-.375.031.375a.501.501 0 1 0 1-.063l-.062-.906L8 11.844v1.812L7.281 14a.503.503 0 1 0 .438.906L8 14.781v.688a.5.5 0 1 0 1 0v-.688l.281.125A.503.503 0 1 0 9.72 14L9 13.656v-1.812l1.656 1-.062.937a.5.5 0 1 0 1 .031l.031-.375.594.375a.5.5 0 1 0 .531-.843l-.688-.407.344-.25a.503.503 0 1 0-.594-.812l-.656.5-1.687-1.031 1.687-1.031.688.468a.5.5 0 1 0 .562-.812l-.312-.219.687-.438a.512.512 0 1 0-.531-.874l-.625.374-.031-.374a.501.501 0 1 0-1 .062l.062.906L9 10.062V8.25l.719-.344A.503.503 0 1 0 9.28 7L9 7.125v-.656a.5.5 0 0 0-.563-.532z" overflow="visible"/>
    </g>
</svg>
