<svg height="16.009" viewBox="0 0 16.021761 16.009432" width="16.022" xmlns="http://www.w3.org/2000/svg"><title>Gnome Symbolic Icon Theme</title><g color="#000" font-weight="400" font-family="sans-serif" white-space="normal" fill="#bebebe"><path d="M8.053.111a3.496 3.496 0 0 0-1.99.073A1 1 0 1 0 6.7 2.078a1.493 1.493 0 0 1 1.584.408 1.5 1.5 0 0 1 .27 1.617c-.239.548-.77.9-1.366.903a1 1 0 1 0 .012 2 3.506 3.506 0 0 0 3.188-2.104 3.51 3.51 0 0 0-.63-3.767A3.493 3.493 0 0 0 8.054.11z" style="line-height:normal;font-variant-ligatures:normal;font-variant-position:normal;font-variant-caps:normal;font-variant-numeric:normal;font-variant-alternates:normal;font-feature-settings:normal;text-indent:0;text-align:start;text-decoration-line:none;text-decoration-style:solid;text-decoration-color:#000;text-transform:none;text-orientation:mixed;shape-padding:0;isolation:auto;mix-blend-mode:normal;marker:none" overflow="visible"/><path d="M0 5.006v2h7.38v-2z" style="line-height:normal;font-variant-ligatures:normal;font-variant-position:normal;font-variant-caps:normal;font-variant-numeric:normal;font-variant-alternates:normal;font-feature-settings:normal;text-indent:0;text-align:start;text-decoration-line:none;text-decoration-style:solid;text-decoration-color:#000;text-transform:none;text-orientation:mixed;shape-padding:0;isolation:auto;mix-blend-mode:normal" overflow="visible" fill-rule="evenodd"/><path d="M13.904 4.125a2.842 2.842 0 0 0-1.666.014 1 1 0 1 0 .608 1.906c.335-.107.684-.01.931.283.248.292.314.732.157 1.1-.158.367-.48.574-.827.576a1 1 0 1 0 .012 2c1.158-.007 2.196-.724 2.652-1.787a3.058 3.058 0 0 0-.468-3.182 2.909 2.909 0 0 0-1.399-.91z" style="line-height:normal;font-variant-ligatures:normal;font-variant-position:normal;font-variant-caps:normal;font-variant-numeric:normal;font-variant-alternates:normal;font-feature-settings:normal;text-indent:0;text-align:start;text-decoration-line:none;text-decoration-style:solid;text-decoration-color:#000;text-transform:none;text-orientation:mixed;shape-padding:0;isolation:auto;mix-blend-mode:normal;marker:none" overflow="visible"/><path d="M7 8.006v2h6v-2z" style="line-height:normal;font-variant-ligatures:normal;font-variant-position:normal;font-variant-caps:normal;font-variant-numeric:normal;font-variant-alternates:normal;font-feature-settings:normal;text-indent:0;text-align:start;text-decoration-line:none;text-decoration-style:solid;text-decoration-color:#000;text-transform:none;text-orientation:mixed;shape-padding:0;isolation:auto;mix-blend-mode:normal" overflow="visible" fill-rule="evenodd"/><path d="M9.465 16a2.498 2.498 0 0 1-1.47-.324.991.991 0 1 1 .991-1.717.513.513 0 0 0 .596-.053.52.52 0 0 0 .156-.582.516.516 0 0 0-.49-.346.991.991 0 1 1 0-1.982c1.05 0 1.995.663 2.354 1.65.358.987.06 2.102-.745 2.778-.402.338-.89.532-1.392.576z" style="line-height:normal;font-variant-ligatures:normal;font-variant-position:normal;font-variant-caps:normal;font-variant-numeric:normal;font-variant-alternates:normal;font-feature-settings:normal;text-indent:0;text-align:start;text-decoration-line:none;text-decoration-style:solid;text-decoration-color:#000;text-transform:none;text-orientation:mixed;shape-padding:0;isolation:auto;mix-blend-mode:normal;marker:none" overflow="visible"/><path d="M1 11.002v2h8.375v-2z" style="line-height:normal;font-variant-ligatures:normal;font-variant-position:normal;font-variant-caps:normal;font-variant-numeric:normal;font-variant-alternates:normal;font-feature-settings:normal;text-indent:0;text-align:start;text-decoration-line:none;text-decoration-style:solid;text-decoration-color:#000;text-transform:none;text-orientation:mixed;shape-padding:0;isolation:auto;mix-blend-mode:normal" overflow="visible" fill-rule="evenodd"/></g></svg>