<svg height="16" width="16" xmlns="http://www.w3.org/2000/svg"><title>Gnome Symbolic Icon Theme</title><path d="M9.5 2a2.49 2.49 0 0 0-2.469 2.219C6.704 4.097 6.37 4 6 4a3 3 0 0 0-3 3c0 .098.022.185.031.281C2.731 7.102 2.375 7 2 7a2 2 0 1 0 0 4h5V8.875C7 7.865 7.865 7 8.875 7h5.062a2.499 2.499 0 0 0-2-1.938A2.5 2.5 0 0 0 9.5 2z" style="marker:none" color="#000" fill="#bebebe" overflow="visible"/><path class="warning" d="M8.875 8A.863.863 0 0 0 8 8.875v6.25c0 .492.383.875.875.875h6.25a.863.863 0 0 0 .875-.875v-6.25A.863.863 0 0 0 15.125 8h-6.25zM11 9h2v4h-2V9zm0 5h2v1h-2v-1z" style="marker:none" color="#bebebe" fill="#f57900" overflow="visible"/></svg>