<svg xmlns="http://www.w3.org/2000/svg" width="16" height="16" version="1" viewBox="0 0 16 16">
    <path d="M7.996 2.994C5.246 2.994 2.989 5.25 2.989 8c0 2.75 2.257 5.006 5.007 5.006 2.75 0 5.006-2.256 5.006-5.006 0-2.75-2.257-5.006-5.006-5.006zM14 7c.138.713.112 1.37 0 2l2-1zM2 7a5.387 5.387 0 0 0 0 2L0 8zm7 7a5.387 5.387 0 0 1-2 0l1 2zM9 2a5.387 5.387 0 0 0-2 0l1-2zM4.465 12.95a5.387 5.387 0 0 1-1.415-1.414l-.707 2.12zm8.485-8.486a5.387 5.387 0 0 0-1.414-1.414l2.121-.707zm-9.9 0A5.387 5.387 0 0 1 4.465 3.05l-2.122-.707zm8.486 8.486a5.387 5.387 0 0 0 1.414-1.414l.707 2.12z" overflow="visible"/>
</svg>
