<?xml version="1.0"?>
<svg xmlns="http://www.w3.org/2000/svg" height="16" viewBox="0 0 16 16" width="16" version="1">
    <title>
        Gnome Symbolic Icon Theme
    </title>
    <g>
        <path d="M9.5 10A2.5 2.5 0 0 0 7 12.5c0 .218.041.423.094.625A1.549 1.549 0 0 0 6.5 13a1.5 1.5 0 1 0 0 3h8a1.5 1.5 0 1 0 0-3 2 2 0 0 0-2-2c-.316 0-.61.088-.875.219A2.47 2.47 0 0 0 9.5 10z" overflow="visible"/>
        <path d="M6.82 1.107C3.526 1.672.999 4.548.999 8c0 2.33 1.155 4.394 2.916 5.668.311-.813 1.064-1.394 1.942-1.639A3.806 3.806 0 0 1 7.37 9.475a8.69 8.69 0 0 1-1.373-4.69c0-1.314.3-2.556.823-3.678z" overflow="visible"/>
        <path d="M8 1c-.402 0-.795.042-1.18.107a8.69 8.69 0 0 0-.822 3.678 8.69 8.69 0 0 0 1.373 4.69 3.567 3.567 0 0 1 2.13-.715c.997 0 1.82.484 2.486 1.125.18-.035.315-.125.513-.125.775 0 1.474.288 2.02.756.305-.782.48-1.628.48-2.516 0-3.854-3.146-7-7-7z" overflow="visible" opacity=".35"/>
    </g>
</svg>
