<?xml version="1.0"?>
<svg xmlns="http://www.w3.org/2000/svg" height="16" width="16" viewBox="0 0 16 16" version="1">
    <title>
        Gnome Symbolic Icon Theme
    </title>
    <g transform="translate(-542 -382)">
        <path d="M544 382c-1.09 0-2 .91-2 2v9c0 1.09.91 2 2 2h7c1.09 0 2-.91 2-2v-9c0-1.09-.91-2-2-2h-7zm0 2h7v9h-7v-9z" overflow="visible"/>
        <path d="M554 385v2h1v9h-9c0 1.09.91 2 2 2h7c1.09 0 2-.91 2-2v-9c0-1.09-.91-2-2-2z" overflow="visible"/>
        <rect x="545" y="385" rx=".5" height="1" ry=".5" width="4" overflow="visible"/>
        <rect x="545" y="387" rx=".5" height="1" ry=".5" width="5" overflow="visible"/>
        <rect x="545" y="389" rx=".5" height="1" ry=".5" width="3" overflow="visible"/>
        <rect x="545" y="391" rx=".5" height="1" ry=".5" width="5" overflow="visible"/>
    </g>
</svg>
