<svg height="16" xmlns="http://www.w3.org/2000/svg" width="16"><title>Gnome Symbolic Icon Theme</title><g transform="translate(-542 -382)" color="#000" fill="#bebebe"><path d="M544 382c-1.09 0-2 .91-2 2v9c0 1.09.91 2 2 2h7c1.09 0 2-.91 2-2v-9c0-1.09-.91-2-2-2h-7zm0 2h7v9h-7v-9z" style="text-indent:0;text-align:start;line-height:normal;text-transform:none;block-progression:tb;marker:none;-inkscape-font-specification:Sans" font-weight="400" overflow="visible" font-family="Sans"/><path d="M554 385v2h1v9h-9c0 1.09.91 2 2 2h7c1.09 0 2-.91 2-2v-9c0-1.09-.91-2-2-2z" style="text-indent:0;text-align:start;line-height:normal;text-transform:none;block-progression:tb;marker:none;-inkscape-font-specification:Sans" font-weight="400" overflow="visible" font-family="Sans"/><rect x="545" y="385" rx=".5" height="1" ry=".5" style="marker:none" width="4" overflow="visible"/><rect x="545" y="387" rx=".5" height="1" ry=".5" style="marker:none" width="5" overflow="visible"/><rect x="545" y="389" rx=".5" height="1" ry=".5" style="marker:none" width="3" overflow="visible"/><rect x="545" y="391" rx=".5" height="1" ry=".5" style="marker:none" width="5" overflow="visible"/></g></svg>