<svg height="16" xmlns="http://www.w3.org/2000/svg" width="16"><title>Gnome Symbolic Icon Theme</title><g color="#000" fill="#bebebe"><path d="M3.504 8.014c-1.921 0-3.503 1.55-3.503 3.47a3.521 3.521 0 0 0 3.503 3.504 3.521 3.521 0 0 0 3.504-3.503c0-1.921-1.583-3.471-3.504-3.471zm0 1.992c.84 0 1.51.639 1.51 1.479 0 .84-.67 1.51-1.51 1.51s-1.51-.67-1.51-1.51.67-1.479 1.51-1.479zM11.504 8.014c-1.921 0-3.503 1.55-3.503 3.47a3.521 3.521 0 0 0 3.503 3.504 3.521 3.521 0 0 0 3.504-3.503c0-1.921-1.583-3.471-3.504-3.471zm0 1.992c.84 0 1.51.639 1.51 1.479 0 .84-.67 1.51-1.51 1.51s-1.51-.67-1.51-1.51.67-1.479 1.51-1.479z" style="text-indent:0;text-align:start;line-height:normal;text-transform:none;block-progression:tb;marker:none;-inkscape-font-specification:Sans" font-weight="400" overflow="visible" font-family="Sans"/><path style="marker:none" overflow="visible" d="M5 2h2v9.516H5zM13 2h2v9.563h-2z"/><path style="marker:none" overflow="visible" d="M5 2h10v2H5z"/></g></svg>