<svg xmlns="http://www.w3.org/2000/svg" width="16" height="16" version="1" viewBox="0 0 16 16">
    <path d="M544 382c-1.09 0-2 .91-2 2v9c0 1.09.91 2 2 2h7c1.09 0 2-.91 2-2v-9c0-1.09-.91-2-2-2h-7zm0 2h7v9h-7v-9z" overflow="visible"/>
    <path d="M554 385v2h1v9h-9c0 1.09.91 2 2 2h7c1.09 0 2-.91 2-2v-9c0-1.09-.91-2-2-2z" overflow="visible"/>
    <rect width="4" height="1" x="545" y="385" overflow="visible" rx=".5" ry=".5"/>
    <rect width="5" height="1" x="545" y="387" overflow="visible" rx=".5" ry=".5"/>
    <rect width="3" height="1" x="545" y="389" overflow="visible" rx=".5" ry=".5"/>
    <rect width="5" height="1" x="545" y="391" overflow="visible" rx=".5" ry=".5"/>
</svg>