<svg xmlns="http://www.w3.org/2000/svg" width="16" height="16.009"><title>Gnome Symbolic Icon Theme</title><g font-weight="400" color="#000" fill="#bebebe" font-family="Sans"><path d="M5.406 6.009a.502.502 0 1 0 .094 1h6a.5.5 0 1 0 0-1h-6a.5.5 0 0 0-.094 0zM5.406 8.009a.502.502 0 1 0 .094 1h5a.5.5 0 1 0 0-1h-5a.5.5 0 0 0-.094 0zM5.406 10.009a.502.502 0 1 0 .094 1h6a.5.5 0 1 0 0-1h-6a.5.5 0 0 0-.094 0zM5.406 12.009a.502.502 0 1 0 .094 1h3a.5.5 0 1 0 0-1h-3a.5.5 0 0 0-.094 0z" style="text-indent:0;text-align:start;line-height:normal;text-transform:none;block-progression:tb;marker:none;-inkscape-font-specification:Sans" overflow="visible"/><path d="M4 1.009c-1.09 0-2 .91-2 2v11c0 1.09.91 2 2 2h9c1.09 0 2-.91 2-2v-11c0-1.09-.91-2-2-2v13H4v-13z" style="text-indent:0;text-align:start;line-height:normal;text-transform:none;block-progression:tb;marker:none;-inkscape-font-specification:Sans" overflow="visible"/><path d="M5.406.009a.5.5 0 0 0-.406.5v3a.5.5 0 1 0 1 0v-3a.5.5 0 0 0-.594-.5zM7.406.009a.5.5 0 0 0-.406.5v3a.5.5 0 1 0 1 0v-3a.5.5 0 0 0-.594-.5zM9.406.009a.5.5 0 0 0-.406.5v3a.5.5 0 1 0 1 0v-3a.5.5 0 0 0-.594-.5zM11.406.009a.5.5 0 0 0-.406.5v3a.5.5 0 1 0 1 0v-3a.5.5 0 0 0-.594-.5z" style="text-indent:0;text-align:start;line-height:normal;text-transform:none;block-progression:tb;marker:none;-inkscape-font-specification:Sans" overflow="visible"/></g></svg>