<svg xmlns="http://www.w3.org/2000/svg" width="16" height="16.009" version="1" viewBox="0 0 16 16.009">
    <path d="M5.406 6.009a.502.502 0 1 0 .094 1h6a.5.5 0 1 0 0-1h-6a.5.5 0 0 0-.094 0zm0 2a.502.502 0 1 0 .094 1h5a.5.5 0 1 0 0-1h-5a.5.5 0 0 0-.094 0zm0 2a.502.502 0 1 0 .094 1h6a.5.5 0 1 0 0-1h-6a.5.5 0 0 0-.094 0zm0 2a.502.502 0 1 0 .094 1h3a.5.5 0 1 0 0-1h-3a.5.5 0 0 0-.094 0z" overflow="visible"/>
    <path d="M4 1.009c-1.09 0-2 .91-2 2v11c0 1.09.91 2 2 2h9c1.09 0 2-.91 2-2v-11c0-1.09-.91-2-2-2v13H4v-13z" overflow="visible"/>
    <path d="M5.406.009a.5.5 0 0 0-.406.5v3a.5.5 0 1 0 1 0v-3a.5.5 0 0 0-.594-.5zm2 0a.5.5 0 0 0-.406.5v3a.5.5 0 1 0 1 0v-3a.5.5 0 0 0-.594-.5zm2 0a.5.5 0 0 0-.406.5v3a.5.5 0 1 0 1 0v-3a.5.5 0 0 0-.594-.5zm2 0a.5.5 0 0 0-.406.5v3a.5.5 0 1 0 1 0v-3a.5.5 0 0 0-.594-.5z" overflow="visible"/>
</svg>