<svg height="16.033" width="16" xmlns="http://www.w3.org/2000/svg"><title>Gnome Symbolic Icon Theme</title><g fill="#bebebe"><path d="M6.875.01a1 1 0 0 0-.875 1v3.562L4.719 3.291A1.016 1.016 0 1 0 3.28 4.728L6 7.448v1.124L3.28 11.291a1.016 1.016 0 1 0 1.438 1.437l1.28-1.28v3.562a1 1 0 0 0 1.72.718l4-4a1 1 0 0 0 0-1.437L9.437 8.01l2.282-2.282a1 1 0 0 0 0-1.437l-4-4A1 1 0 0 0 6.875.01zM8 3.447L9.562 5.01 8 6.572V3.447zm0 6l1.562 1.563L8 12.572V9.447z" style="text-indent:0;text-align:start;line-height:normal;text-transform:none;block-progression:tb;marker:none;-inkscape-font-specification:Sans" font-weight="400" color="#000" overflow="visible" font-family="Sans"/><path d="M3 3.01h1v1H3zM3 12.01h1v1H3zM6 15.01h1v1H6zM6 .01h1v1H6z"/></g></svg>