<svg xmlns="http://www.w3.org/2000/svg" width="16" height="16" version="1" viewBox="0 0 16 16">
    <path d="M3.025 0l.033.002a2.96 2.96 0 0 0-.125 0H2.9L2.933 2 2.855.004A1.98 1.98 0 0 0 1 2.045v11.914A1.98 1.98 0 0 0 3.04 16h9.919a1.98 1.98 0 0 0 2.04-2.041V5a1.992 1.992 0 0 0-.616-1.422L11.426.62A1.99 1.99 0 0 0 10.004 0h-.008zm-.017 2c-.002-.002.005 0 .002 0h6.964c-.01 0 .015.011.008.004l.008.008 2.998 3.002.008.006c-.007-.007.004.018.004.01v8.959c0-.08-.093.01-.011.012H3.012c.081-.001-.01-.092-.012-.012V2.011c.001.055.027.005.008-.01z" overflow="visible" white-space="normal"/>
    <path d="M8 4.877a4.062 4.062 0 0 0-4.06 4.06A4.062 4.062 0 0 0 8 12.998c2.24 0 4.06-1.82 4.06-4.06A4.063 4.063 0 0 0 8 4.877zm0 1a3.043 3.043 0 0 1 3.06 3.06A3.043 3.043 0 0 1 8 11.998a3.043 3.043 0 0 1-3.06-3.06A3.043 3.043 0 0 1 8 5.876z" overflow="visible" white-space="normal"/>
    <path d="M8 6.938c-1.1 0-2 .9-2 2 0 1.099.9 2 2 2s2-.901 2-2c0-1.1-.9-2-2-2zm0 1c.562 0 1 .437 1 1 0 .562-.438 1-1 1-.563 0-1-.438-1-1 0-.563.437-1 1-1z" overflow="visible" white-space="normal"/>
    <path d="M6.331 5.6a2.991 2.991 0 0 0-1.669 1.684l1.907.954a1.31 1.31 0 0 1 .7-.731zm3.338 0L8.73 7.507c.322.136.571.405.7.731l1.907-.954A2.991 2.991 0 0 0 9.668 5.6zm-3.1 4.069l-1.907.953c.309.757.91 1.348 1.67 1.653l.953-1.907a1.318 1.318 0 0 1-.716-.7zm2.861 0a1.313 1.313 0 0 1-.715.699l.954 1.907a3.003 3.003 0 0 0 1.669-1.653z"/>
</svg>
