<svg xmlns="http://www.w3.org/2000/svg" width="16" height="16" version="1" viewBox="0 0 16 16">
    <path d="M8 0C3.585 0 0 3.585 0 8s3.585 8 8 8 8-3.585 8-8-3.585-8-8-8zm0 2c3.341 0 6 2.659 6 6s-2.659 6-6 6-6-2.659-6-6 2.659-6 6-6z" overflow="visible"/>
    <path d="M7.344 5A2.354 2.354 0 0 0 5 7.344v1.312A2.354 2.354 0 0 0 7.344 11h1.312A2.354 2.354 0 0 0 11 8.656V7.344A2.354 2.354 0 0 0 8.656 5H7.344zm0 1h1.312C9.406 6 10 6.594 10 7.344v1.312C10 9.406 9.406 10 8.656 10H7.344C6.594 10 6 9.406 6 8.656V7.344C6 6.594 6.594 6 7.344 6z" overflow="visible"/>
    <path d="M4.719 1.438A5.881 5.881 0 0 0 1.437 4.75l3.75 1.875c.252-.64.743-1.17 1.375-1.438L4.72 1.438zm6.562 0l-1.844 3.75a2.574 2.574 0 0 1 1.376 1.437l3.75-1.875a5.881 5.881 0 0 0-3.282-3.313zm-6.094 8l-3.75 1.874a5.904 5.904 0 0 0 3.282 3.25l1.875-3.75a2.59 2.59 0 0 1-1.407-1.374zm5.625 0a2.59 2.59 0 0 1-1.406 1.374l1.875 3.75a5.904 5.904 0 0 0 3.281-3.25l-3.75-1.874z"/>
</svg>
