<svg xmlns="http://www.w3.org/2000/svg" width="16" height="16" version="1" viewBox="0 0 16 16">
    <path d="M8.909 3.974c.018.167.062.328.062.5a4.5 4.5 0 0 1-4.5 4.5c-.118 0-.228-.022-.344-.031v2.219c0 1.004.809 1.812 1.813 1.812h1.545l2 2.047 2.062-2.047h1.612a1.809 1.809 0 0 0 1.812-1.812V5.787a1.809 1.809 0 0 0-1.812-1.813z" opacity=".5" overflow="visible"/>
    <path d="M4.471.974a3.5 3.5 0 1 0 0 7 3.5 3.5 0 0 0 0-7zm-.531 1h1.03L4.91 3.35a.2.2 0 0 0 0 .063.2.2 0 0 0 0 .03.2.2 0 0 0 .125.126.2.2 0 0 0 .03 0 .2.2 0 0 0 .063 0 .2.2 0 0 0 .063 0 .2.2 0 0 0 .031-.031l1.156-.75.5.906-1.218.625a.2.2 0 0 0-.032 0 .2.2 0 0 0-.03.031.2.2 0 0 0-.032.094.2.2 0 0 0 0 .062.2.2 0 0 0 0 .032.2.2 0 0 0 .031.062.2.2 0 0 0 .031.031.2.2 0 0 0 .032.031l1.25.625-.532.907-1.156-.781a.2.2 0 0 0-.031 0 .2.2 0 0 0-.063-.032.2.2 0 0 0-.062 0 .2.2 0 0 0-.125.094.2.2 0 0 0-.031.031.2.2 0 0 0 0 .032.2.2 0 0 0 0 .062l.062 1.375H3.94L4.034 5.6a.2.2 0 0 0-.032-.094.2.2 0 0 0-.03-.062.2.2 0 0 0-.063-.031.2.2 0 0 0-.063-.031.2.2 0 0 0-.031 0 .2.2 0 0 0-.094.03l-1.187.782-.5-.906 1.25-.625a.2.2 0 0 0 .031-.031.2.2 0 0 0 .031-.032.2.2 0 0 0 .031-.062.2.2 0 0 0 0-.031.2.2 0 0 0 0-.063.2.2 0 0 0 0-.031.2.2 0 0 0-.03-.063.2.2 0 0 0-.032-.03.2.2 0 0 0-.031 0l-1.25-.626.5-.906 1.187.75a.2.2 0 0 0 .031.031.2.2 0 0 0 .063 0 .2.2 0 0 0 .062 0 .2.2 0 0 0 .032 0 .2.2 0 0 0 .03-.031.2.2 0 0 0 .032-.031.2.2 0 0 0 .031-.031.2.2 0 0 0 0-.032.2.2 0 0 0 .031-.062.2.2 0 0 0 0-.031L3.94 1.974z" overflow="visible"/>
</svg>