<svg height="16" width="16" xmlns="http://www.w3.org/2000/svg"><title>Gnome Symbolic Icon Theme</title><g color="#000" fill="#bebebe"><path d="M.971 4.974v5h4.063v-5zm2 1.938l1-.938v3h-1zM1.971.974c-.61 0-1 .422-1 .969v.031h1v-1zm0 1v1h1v-1h-1zm1 0h1v-1h-1v1zm1 0v1h1v-1h-1zm0 1h-1v1h1v-1zm-2 0h-1v1h1v-1zM6.065 4.974v5h3.937v-5zm.906 1h1.047c.778 0 .953.398.953.993 0 .076-.023.117-.062.226l-.407.781h.47v1.063H6.94L7.968 7.13c.047-.094 0-.153-.06-.157h-.937zM6.065.974v1h.937v-1h-.937zm.937 1v1h1v-1h-1zm1 0h1v-1h-1v1zm1 0v1h1v-1h-1zm0 1h-1v1h1v-1zm-2 0h-.937v1h.937v-1zM11.065 4.974v5h3.937v-5zm.906 1h2.031l-.03.5v.563l-.063.125-.157.312.188.344.062.125V8.974h-2.03v-1h.905l-.125-.219-.125-.25.125-.25.157-.28h-.938zM11.065.974v1h.906v-1zm.906 1v1h1v-1zm1 0h1v-1h-1zm1 0v1h1v-1zm1 1zm-1 0h-1v1h1zm-2 0h-.906v1h.906z" style="marker:none" overflow="visible"/><path d="M6.065 4.974v5h3.937v-5zm.906 1h1.047c.778 0 .953.398.953.993 0 .076-.023.117-.062.226l-.407.781h.47v1.063H6.94L7.968 7.13c.047-.094 0-.153-.06-.157h-.937zM11.065 4.974v5h3.937v-5zm.906 1h2.031l-.03.5v.563l-.063.125-.157.312.188.344.062.125V8.974h-2.03v-1h.905l-.125-.219-.125-.25.125-.25.157-.28h-.938zM13.971 13.974c.61 0 1-.421 1-.969v-.03h-1v1zm0-1v-1h-1v1h1zm-1 0h-1v1h1v-1zm-1 0v-1h-1v1h1zm0-1h1v-1h-1v1zm2 0h1v-1h-1v1zM9.877 13.974v-1H8.94v1h.937zm-.937-1v-1h-1v1h1zm-1 0h-1v1h1v-1zm-1 0v-1h-1v1h1zm0-1h1v-1h-1v1zm2 0h.937v-1H8.94v1zM4.877 13.974v-1h-.906v1zm-.906-1v-1h-1v1zm-1 0h-1v1h1zm-1 0v-1h-1v1zm-1-1zm1 0h1v-1h-1zm2 0h.906v-1h-.906z" style="marker:none" overflow="visible"/></g></svg>