<svg height="16" width="16" xmlns="http://www.w3.org/2000/svg"><title>Gnome Symbolic Icon Theme</title><g font-weight="400" color="#000" fill="#bebebe" font-family="Sans"><path d="M6.507.996C3.48.996.997 3.475.997 6.5c0 3.025 2.482 5.504 5.51 5.504 3.03 0 5.511-2.479 5.511-5.504 0-3.025-2.482-5.504-5.51-5.504zm0 2.008c1.948 0 3.5 1.55 3.5 3.496a3.479 3.479 0 0 1-3.5 3.496c-1.947 0-3.5-1.55-3.5-3.496a3.479 3.479 0 0 1 3.5-3.496z" style="text-indent:0;text-align:start;line-height:normal;text-transform:none;block-progression:tb;marker:none;-inkscape-font-specification:Sans" overflow="visible"/><path d="M9.812 9a1 1 0 0 0-.5 1.719l4 4a1.005 1.005 0 1 0 1.406-1.438l-4-4A1 1 0 0 0 9.812 9z" style="text-indent:0;text-align:start;line-height:normal;text-transform:none;block-progression:tb;marker:none;-inkscape-font-specification:Sans" overflow="visible"/></g></svg>