<?xml version="1.0"?>
<svg xmlns="http://www.w3.org/2000/svg" height="16" width="16" viewBox="0 0 16 16" version="1">
    <title>
        Gnome Symbolic Icon Theme
    </title>
    <g>
        <path d="M8 1.007A3.996 3.996 0 0 0 4.007 5 3.996 3.996 0 0 0 8 8.993 3.996 3.996 0 0 0 11.993 5 3.996 3.996 0 0 0 8 1.007zM8 2.06A2.937 2.937 0 0 1 10.94 5 2.937 2.937 0 0 1 8 7.94 2.937 2.937 0 0 1 5.06 5 2.937 2.937 0 0 1 8 2.06z" overflow="visible"/>
        <path d="M4 8.007A3.996 3.996 0 0 0 .007 12 3.996 3.996 0 0 0 4 15.993 3.996 3.996 0 0 0 7.993 12 3.996 3.996 0 0 0 4 8.007zM4 9.06A2.937 2.937 0 0 1 6.94 12 2.937 2.937 0 0 1 4 14.94 2.937 2.937 0 0 1 1.06 12 2.937 2.937 0 0 1 4 9.06z" overflow="visible"/>
        <path d="M15.998 12A4 4 0 1 1 8 12a4 4 0 1 1 7.998 0z" overflow="visible"/>
        <path d="M7.467 12a3.467 3.467 0 1 1-6.933 0 3.467 3.467 0 1 1 6.933 0z" fill-opacity=".364" overflow="visible"/>
    </g>
</svg>
