<?xml version="1.0"?>
<svg xmlns="http://www.w3.org/2000/svg" height="16" width="16" viewBox="0 0 16 16" version="1">
    <title>
        Gnome Symbolic Icon Theme
    </title>
    <g>
        <path d="M13.288 9.688c-.494.48-1.077.697-1.788.697-.71 0-1.297-.224-1.791-.704-.777.28-1.705.991-1.706 2.233L8 14.231c0 .426.312.769.7.769h5.6c.388 0 .7-.343.7-.77v-2.307c0-1.067-.772-1.966-1.712-2.236z"/>
        <path d="M13.808 7.308a2.308 2.308 0 1 1-4.616 0 2.308 2.308 0 1 1 4.616 0z" overflow="visible"/>
        <path d="M6.288 5.688c-.494.48-1.077.697-1.788.697-.71 0-1.297-.224-1.791-.704-.777.28-1.705.991-1.706 2.233L1 10.231c0 .426.312.769.7.769h5.735c.063-.395.262-.723.565-1V7.923c0-1.067-.772-1.966-1.712-2.236z"/>
        <path d="M6.808 3.308a2.308 2.308 0 1 1-4.616 0 2.308 2.308 0 1 1 4.616 0z" overflow="visible"/>
    </g>
</svg>
