<svg height="16" xmlns="http://www.w3.org/2000/svg" width="16"><title>Gnome Symbolic Icon Theme</title><g color="#bebebe" fill="#bebebe"><path d="M2.188 0C.982 0 0 1.017 0 2.219V12.78C0 13.983.982 15 2.188 15h11.624C15.018 15 16 13.983 16 12.781V2.22C16 1.017 15.018 0 13.812 0H2.188zm0 2h11.624c.123 0 .188.08.188.219V12.78c0 .138-.065.219-.188.219H2.188C2.064 13 2 12.92 2 12.781V2.22C2 2.08 2.065 2 2.188 2z" style="text-indent:0;text-align:start;line-height:normal;text-transform:none;block-progression:tb;marker:none;-inkscape-font-specification:Bitstream Vera Sans" font-weight="400" overflow="visible" font-family="Bitstream Vera Sans"/><path d="M4.313 5.906a.6.6 0 0 0-.25 1.032L5.625 8.5l-1.563 1.563a.619.619 0 1 0 .875.875l2-2a.6.6 0 0 0 0-.875l-2-2a.6.6 0 0 0-.625-.157z" style="text-indent:0;text-align:start;line-height:normal;text-transform:none;block-progression:tb;marker:none;-inkscape-font-specification:Bitstream Vera Sans" font-weight="400" overflow="visible" font-family="Bitstream Vera Sans"/><path style="marker:none" overflow="visible" d="M8 10h3v1H8z"/></g></svg>