<svg xmlns="http://www.w3.org/2000/svg" width="17.067" height="17.067" version="1" viewBox="0 0 16 16">
    <path d="M3.19 1c-1.09 0-2 .91-2 2h7.812V1zm8.812 6v7H1.19c0 1.09.91 2 2 2h8.813c1.09 0 2-.91 2-2V7z"/>
    <path d="M.69 12a.5.5 0 1 0 0 1H2.5a.5.5 0 1 0 0-1zm0-2a.5.5 0 1 0 0 1H2.5a.5.5 0 1 0 0-1zm0-2a.5.5 0 1 0 0 1H2.5a.5.5 0 1 0 0-1z" solid-color="#000000"/>
    <path d="M.69 6a.5.5 0 1 0 0 1H2.5a.5.5 0 1 0 0-1zm0-2a.5.5 0 1 0 0 1H2.5a.5.5 0 1 0 0-1z" solid-color="#000000" white-space="normal"/>
    <path d="M7 10c.328.066.666.007 1 0 .334-.007.669.04 1 0 .624-.074 1.196-.462 1.523-.998s.411-1.207.26-1.817c-.152-.61-.532-1.154-1.032-1.533S8.635 5.054 8.009 5a3.737 3.737 0 0 0-2.565.746 3.69 3.69 0 0 0-1.381 2.285 3.647 3.647 0 0 0 .184 1.895c.228.6.618 1.137 1.119 1.54.5.402 1.11.668 1.744.761A3.647 3.647 0 0 0 9 12v-1c-.453.299-1 .453-1.542.437a2.677 2.677 0 0 1-1.513-.53 2.677 2.677 0 0 1-.933-1.304A2.676 2.676 0 0 1 5 8a2.819 2.819 0 0 1 1.154-1.51A3.124 3.124 0 0 1 8 6c.537.026 1.082.193 1.483.551.2.18.362.404.456.656.095.252.12.53.061.793a1.291 1.291 0 0 1-1 .978V8a1.622 1.622 0 0 0-2.405-.737c-.266.18-.476.44-.595.737-.158.395-.152.856.033 1.238.186.383.55.678.967.762zm1.036-.977a.708.708 0 0 1-.814.132.707.707 0 0 1-.378-.732.707.707 0 0 1 .453-.554A.706.706 0 0 1 8 8m4-7.98v1.997h-2v1.996h2V6.01h2V4.013h2V2.017h-2V.02z"/>
</svg>
