<?xml version="1.0"?>
<svg xmlns="http://www.w3.org/2000/svg" width="17.067" height="17.067" viewBox="0 0 16.000092 16" version="1">
    <title>
        Gnome Symbolic Icon Theme
    </title>
    <g>
        <path d="M12 1v1.997h-2v1.996h2V6.99h2V4.993h2V2.997h-2V1z"/>
        <path d="M6.41 6a.5.5 0 0 0-.406.5V9h-1.5a.5.5 0 1 0 0 1h2a.5.5 0 0 0 .5-.5v-3A.5.5 0 0 0 6.41 6z"/>
        <path d="M6.5 3C2.922 3 0 5.922 0 9.5S2.922 16 6.5 16 13 13.078 13 9.5a6.46 6.46 0 0 0-.188-1.5H10.72c.167.473.281.967.281 1.5 0 2.497-2.003 4.5-4.5 4.5A4.485 4.485 0 0 1 2 9.5C2 7.003 4.003 5 6.5 5c.932 0 1.79.27 2.5.75V3.5A6.442 6.442 0 0 0 6.5 3z"/>
    </g>
</svg>
