<svg xmlns="http://www.w3.org/2000/svg" width="17.067" height="17.067" viewBox="0 0 16.0002 16" version="1">
    <title>
        Gnome Symbolic Icon Theme
    </title>
    <path d="M11 11h-1c-.257 0-.528.13-.719.313L8 12.593l-1.281-1.28C6.529 11.13 6.257 11 6 11H5v1c0 .31.09.552.281.75l2.72 2.656 2.718-2.656c.19-.198.281-.44.281-.75v-1zM.26 6.64c-.344-.344-.349-1.075 0-1.424l.04-.04C4.567.931 11.467.938 15.725 5.196l.02.02c.351.35.319 1.07-.02 1.444l-1.93 1.997a.908.908 0 0 1-1.287 0L11.22 7.37a.908.908 0 0 1 0-1.287l.302-.302a8.161 8.161 0 0 0-7.039 0l.302.302a.908.908 0 0 1 0 1.287L3.498 8.657a.903.903 0 0 1-1.287 0z"/>
</svg>
