<svg width="17.067" height="17.067" version="1.1" viewBox="0 0 16 16" xmlns="http://www.w3.org/2000/svg" xmlns:osb="http://www.openswatchbook.org/uri/2009/osb">
<title>Gnome Symbolic Icon Theme</title>
<g transform="translate(-81 -867)">
<path d="m94.032 868c0.53403 0 0.96875 0.42699 0.96875 0.96875v0.0625c-0.01714 6.6128-5.3832 11.969-12 11.969h-0.0312c-0.54483 0-0.9688-0.446-0.9688-1v-3c0-0.554 0.446-1 1-1h2c0.554 0 1 0.446 1 1v0.46875c2.5569-0.90388 4.5649-2.9119 5.4688-5.4688h-0.46875c-0.55401 0-1-0.44599-1-1v-2c0-0.55401 0.44599-1 1-1h3.0312z" fill="#bebebe"/>
</g>
</svg>
