<svg width="17.067" height="17.067" version="1.1" viewBox="0 0 16.0002 16" xmlns="http://www.w3.org/2000/svg" xmlns:osb="http://www.openswatchbook.org/uri/2009/osb">
<title>Gnome Symbolic Icon Theme</title>
<g transform="translate(-101 -867)" fill="#bebebe">
<path d="m112 878h-1c-0.25689 1e-5 -0.52845 0.12983-0.71875 0.31251l-1.2812 1.2812-1.2812-1.2812c-0.19004-0.18293-0.46186-0.3125-0.71878-0.31245h-1l-1e-5 1c0 0.30945 0.0903 0.55231 0.2813 0.74998l2.7188 2.6562 2.7187-2.6562c0.19093-0.19772 0.28126-0.44056 0.28126-0.75v-1z" color="#bebebe" style="text-decoration-line:none;text-indent:0;text-transform:none"/>
<path d="m101.26 873.64c-0.34368-0.34368-0.34865-1.075-2e-5 -1.4237l0.0404-0.0403c4.2666-4.2446 11.167-4.2381 15.425 0.0201l0.02 0.0201c0.35061 0.35061 0.31853 1.0702-0.0201 1.4438l-1.9306 1.9969c-0.35652 0.35653-0.93056 0.35652-1.2871 1e-5l-1.2871-1.2871c-0.35652-0.35653-0.35653-0.93055-1e-5 -1.2871l0.30167-0.30165c-2.2272-1.0638-4.8116-1.0638-7.0388 1e-5l0.30166 0.30164c0.35653 0.35654 0.35652 0.93056 0 1.2871l-1.2871 1.2871c-0.35653 0.35653-0.93663 0.3625-1.2871 0z" enable-background="new"/>
</g>
</svg>
