<?xml version="1.0"?>
<svg xmlns="http://www.w3.org/2000/svg" width="17.067" height="17.067" viewBox="0 0 16 16" version="1">
    <title>
        Gnome Symbolic Icon Theme
    </title>
    <g transform="translate(-261 -767)">
        <path d="M265 781.43a1.573 1.573 0 0 1-3.145 0c0-.868 1.795-3.347 1.795-3.347s1.35 2.479 1.35 3.347z" clip-rule="evenodd"/>
        <path d="M271 769l-6 6-1 2.442.492.558 2.508-1 6-6zm0 1l1 1-4 4h-2z"/>
        <circle transform="translate(282.5 215.5)" cx="-10.25" cy="554.25" r="2.75"/>
        <path d="M267.59 769l.688.719 4 4 .718.687 1.125-1.125-.406-1-4-4-1.156-.25z"/>
    </g>
</svg>
