<?xml version="1.0"?>
<svg xmlns="http://www.w3.org/2000/svg" width="17.067" height="17.067" viewBox="0 0 16 16" version="1">
    <title>
        Gnome Symbolic Icon Theme
    </title>
    <g transform="translate(-261 -727)" fill="#bebebe">
        <path d="M269.55 735.09c-.705.624-1.54.906-2.555.906s-1.853-.29-2.558-.914c-1.11.363-2.436 1.288-2.438 2.902l-.004 3.012c0 .554.446 1 1 1h8c.554 0 1-.446 1-1v-3c0-1.387-1.102-2.556-2.445-2.906z"/>
        <circle transform="matrix(1.2 0 0 1.2 207.6 321)" cx="49.5" cy="342.5" r="2.5" color="#bebebe"/>
        <path d="M273 728v1.997h-2v1.996h2v1.997h2v-1.997h2v-1.996h-2V728z"/>
    </g>
</svg>
