<svg width="17.067" height="17.085" version="1.1" viewBox="0 0 16 16.01759" xmlns="http://www.w3.org/2000/svg">
<title>Gnome Symbolic Icon Theme</title>
<g transform="translate(-360,-766)" fill="#bebebe">
<path d="m367 780h-2.9688v-11h4.5625l3.4062 3.4062v5.5781l2 3.0156v-9.0313c-2e-3 -0.26843-0.11756-0.53419-0.3125-0.71875l-3.9688-3.9375c-0.18456-0.19494-0.45032-0.31049-0.71875-0.3125h-5.9688c-0.52358 5e-5 -0.99995 0.47642-1 1v12.969c5e-5 0.52358 0.47642 0.99995 1 1h5.0156z" color="#000000" style="text-decoration-line:none;text-indent:0;text-transform:none"/>
<path d="m369.02 773.86c-0.32486-0.059-0.6669-0.0455-0.99404-3e-3l0.9759 1.7287c0.20088 0.35507-0.0237 0.76283-0.45022 1.0091l-0.76991 0.44451c-0.43052 0.23932-0.91014 0.20778-1.1107-0.14747l-0.97565-1.7288c-0.20685 0.25617-0.39602 0.54042-0.51415 0.84765-0.56538 1.4706 0.23676 2.8917 1.7916 3.1742 0.32485 0.0591 0.66688 0.0455 0.99402 3e-3 0.0263-4e-3 1.5184 2.765 1.5184 2.765l3.5048 0.062-2.6673-4.1297c0.20681-0.25617 0.37073-0.54378 0.48887-0.85103 0.56534-1.4706-0.23679-2.8917-1.7916-3.1741z" color="#000000" style="text-decoration-line:none;text-indent:0;text-transform:none"/>
</g>
</svg>
