<svg xmlns="http://www.w3.org/2000/svg" viewBox="0 0 16 16" version="1">
    <title>
        Gnome Symbolic Icon Theme
    </title>
    <path d="M2.94 1a1 1 0 0 0-1 1v4a1 1 0 1 0 2 0V3h5.586l2.414 2.414V14h-8v-3c0-.667.186-.725.447-.855.262-.131.553-.145.553-.145h1.586l-.293.293A1 1 0 0 0 5.94 11v1h1a1 1 0 0 0 .717-.303L10.354 9 7.647 6.293A1 1 0 0 0 6.94 6h-1v1a1 1 0 0 0 .293.707l.01.01.283.283H4.94s-.709-.014-1.447.355C2.754 8.725 1.94 9.667 1.94 11v4a1 1 0 0 0 1 1h10a1 1 0 0 0 1-1V5a1 1 0 0 0-.293-.707l-3-3A1 1 0 0 0 9.94 1z" fill-rule="evenodd" solid-color="#000000"/>
</svg>
