<svg xmlns="http://www.w3.org/2000/svg" width="17.067" height="17.067" viewBox="0 0 16 16" version="1">
    <title>
        Gnome Symbolic Icon Theme
    </title>
    <path d="M4 5v1c0 .265.093.53.281.719l3 3 .282.281h.875l.28-.281 3-3A1.01 1.01 0 0 0 12 6V5h-1c-.265 0-.53.093-.719.281L8 7.562l-2.281-2.28A1.015 1.015 0 0 0 5 5z"/>
    <path d="M7 3v5h2V3z"/>
    <path d="M3 11v4h10v-4zm3.344 1.438a.651.651 0 0 1 .062 0c.291-.056.6.203.594.5V13h2v-.063c-.004-.264.236-.507.5-.507s.504.243.5.507V13c0 .545-.455 1-1 1H7c-.545 0-1-.455-1-1v-.063a.515.515 0 0 1 .344-.5z" fill-rule="evenodd"/>
    <path d="M3 0c-.545 0-1 .455-1 1v2c0 .545.455 1 1 1h10c.545 0 1-.455 1-1V1c0-.545-.455-1-1-1zm0 1h10v2H3zm1.41 8a.5.5 0 0 0-.313.219l-1 1.5a.5.5 0 1 0 .813.562l1-1.5A.5.5 0 0 0 4.41 9zm7 0a.5.5 0 0 0-.313.781l1 1.5a.5.5 0 1 0 .813-.562l-1-1.5a.5.5 0 0 0-.5-.219z"/>
</svg>
