<svg width="17.067" height="17.067" version="1.1" viewBox="0 0 16 16" xmlns="http://www.w3.org/2000/svg">
<title>Gnome Symbolic Icon Theme</title>
<g transform="translate(-40,-688)" fill="#bebebe">
<path d="m47.5 688.01c-4.1303 0-7.4866 3.3563-7.4866 7.4866 0 4.1303 3.3563 7.4866 7.4866 7.4866s7.4866-3.3563 7.4866-7.4866c0-4.1303-3.3563-7.4866-7.4866-7.4866zm0 1.9732c3.0494 0 5.5134 2.464 5.5134 5.5134s-2.464 5.5134-5.5134 5.5134-5.5134-2.464-5.5134-5.5134 2.464-5.5134 5.5134-5.5134z" color="#000000" style="text-decoration-line:none;text-indent:0;text-transform:none"/>
<path d="m50.406 692a0.50005 0.50005 0 0 0 -0.25 0.15625l-2.6562 2.6562-1.6562-1.6562a0.50005 0.50005 0 1 0 -0.6875 0.6875l2 2a0.50005 0.50005 0 0 0 0.6875 0l3-3a0.50005 0.50005 0 0 0 -0.4375 -0.84375z" color="#000000" style="text-decoration-line:none;text-indent:0;text-transform:none"/>
</g>
</svg>
