<svg version="1.1" viewBox="0 0 16 16" xmlns="http://www.w3.org/2000/svg" xmlns:osb="http://www.openswatchbook.org/uri/2009/osb">
<title>Gnome Symbolic Icon Theme</title>
<g transform="translate(-381.06 -807)">
<path d="m384 808a1.0001 1.0001 0 0 0 -1 1v4a1.0001 1.0001 0 1 0 2 0v-3h5.5859l2.4141 2.4141v8.5859h-8v-3c0-0.66667 0.18578-0.72473 0.44727-0.85547 0.26148-0.13074 0.55273-0.14453 0.55273-0.14453h1.5859l-0.29297 0.29297c-0.18755 0.1875-0.29293 0.44183-0.29297 0.70703v1h1c0.27 0 0.52853-0.10919 0.7168-0.30273l2.6973-2.6973-2.707-2.707c-0.1875-0.18755-0.44183-0.29293-0.70703-0.29297h-1v1c4e-5 0.2652 0.10566 0.51976 0.29297 0.70703 3e-3 4e-3 7e-3 7e-3 0.01 0.01l0.28297 0.28297h-1.5859s-0.70875-0.0138-1.4473 0.35547c-0.73851 0.36926-1.5527 1.3112-1.5527 2.6445v4a1.0001 1.0001 0 0 0 1 1h10a1.0001 1.0001 0 0 0 1 -1v-10a1.0001 1.0001 0 0 0 -0.29297 -0.70703l-3-3a1.0001 1.0001 0 0 0 -0.70703 -0.29297z" color="#000000" color-rendering="auto" dominant-baseline="auto" fill="#bebebe" fill-rule="evenodd" image-rendering="auto" shape-rendering="auto" solid-color="#000000" style="font-feature-settings:normal;font-variant-alternates:normal;font-variant-caps:normal;font-variant-ligatures:normal;font-variant-numeric:normal;font-variant-position:normal;isolation:auto;mix-blend-mode:normal;shape-padding:0;text-decoration-color:#000000;text-decoration-line:none;text-decoration-style:solid;text-indent:0;text-orientation:mixed;text-transform:none;white-space:normal"/>
</g>
</svg>
