<?xml version="1.0"?>
<svg xmlns="http://www.w3.org/2000/svg" width="17.067" height="17.085" viewBox="0 0 16 16.01759" version="1">
    <title>
        Gnome Symbolic Icon Theme
    </title>
    <g>
        <path d="M7 14H4.031V3h4.563L12 6.406v5.578L14 15V5.969a1.013 1.013 0 0 0-.313-.72L9.72 1.313A1.013 1.013 0 0 0 8.999 1H3.032c-.524 0-1 .476-1 1v12.969c0 .523.476 1 1 1h5.016z"/>
        <path d="M9.02 7.86a3.264 3.264 0 0 0-.994-.003l.976 1.729c.2.355-.024.763-.45 1.009l-.77.444c-.43.24-.91.208-1.111-.147l-.976-1.729a3.22 3.22 0 0 0-.514.848c-.565 1.47.237 2.891 1.792 3.174.325.059.667.045.994.003.026-.004 1.518 2.765 1.518 2.765l3.505.062-2.667-4.13c.207-.256.37-.544.489-.85.565-1.471-.237-2.893-1.792-3.175z"/>
    </g>
</svg>
