<svg width="17.067" height="17.067" version="1.1" viewBox="0 0 16 16" xmlns="http://www.w3.org/2000/svg">
<title>Gnome Symbolic Icon Theme</title>
<g transform="translate(-340,-646)" fill="#bebebe">
<path d="m342 652v7h12.02zm2 3.0536 3.1156 1.9776h-3.1156z"/>
<path d="m343.02 647.01c-0.52358 5e-5 -0.99995 0.47642-1 1v2.5625l2 1.1875v-2.75h4.5625l3.4062 3.4062v3.625l2 1.1875v-5.25c-2e-3 -0.26843-0.11756-0.53419-0.3125-0.71875l-3.9688-3.9375c-0.18456-0.19494-0.45032-0.31049-0.71875-0.3125zm-1 13v0.96875c5e-5 0.52358 0.47642 0.99995 1 1h9.9688c0.52358-5e-5 0.99995-0.47642 1-1v-0.96875z" color="#000000" style="text-decoration-line:none;text-indent:0;text-transform:none"/>
</g>
</svg>
