<svg width="17.067" height="17.067" version="1.1" viewBox="0 0 16 16" xmlns="http://www.w3.org/2000/svg">
<title>Gnome Symbolic Icon Theme</title>
<g transform="translate(-281,-727)" fill="#bebebe">
<path d="m285 728v2h8v-2zm-2 3c-0.5 0-1 0.5-1 1v4c0 0.5 0.5 1 1 1h1v-2h5.125c0.66316-0.63263 1.5507-1.0312 2.5312-1.0312 1.7815 0 3.2906 1.2798 3.625 2.9688 0.39274-0.13746 0.71875-0.53064 0.71875-0.9375v-4c0-0.5-0.5-1-1-1zm2 5v5h5.0938c-1.2537-0.5913-2.125-1.8752-2.125-3.3438 0-0.59537 0.15156-1.1564 0.40625-1.6562z"/>
<path d="m291.66 734.94c-1.4956 0-2.7188 1.2232-2.7188 2.7188s1.2232 2.7188 2.7188 2.7188c0.4871 0 0.94729-0.14835 1.3438-0.375a0.75008 0.75008 0 0 0 0.15625 0.21875l1.8438 1.8125a0.7513 0.7513 0 1 0 1.0625 -1.0625l-1.8438-1.8125a0.75008 0.75008 0 0 0 -0.21875 -0.15625c0.22665-0.39646 0.375-0.85664 0.375-1.3438 0-1.4956-1.2232-2.7188-2.7188-2.7188zm0 1c0.95516 0 1.7188 0.76359 1.7188 1.7188s-0.76359 1.7188-1.7188 1.7188-1.7188-0.76359-1.7188-1.7188 0.76359-1.7188 1.7188-1.7188z" color="#000000" enable-background="new" style="text-decoration-line:none;text-indent:0;text-transform:none"/>
</g>
</svg>
