<?xml version="1.0"?>
<svg xmlns="http://www.w3.org/2000/svg" width="16" height="16" viewBox="0 0 16 16.000099" version="1">
    <title>
        Gnome Symbolic Icon Theme
    </title>
    <path d="M2.94 1a1 1 0 0 0-1 1v13a1 1 0 0 0 1 1h2a1 1 0 1 0 0-2h-1V3h5.586l2.414 2.414V14h-3v-3.586l.293.293A1 1 0 0 0 9.94 11h1v-1a1 1 0 0 0-.303-.717L7.94 6.586 5.233 9.293A1 1 0 0 0 4.94 10v1h1a1 1 0 0 0 .707-.293l.01-.01.283-.283V15a1 1 0 0 0 1 1h5a1 1 0 0 0 1-1V5a1 1 0 0 0-.293-.707l-3-3A1 1 0 0 0 9.94 1z" fill-rule="evenodd" solid-color="#000000"/>
</svg>
