<?xml version="1.0"?>
<svg xmlns="http://www.w3.org/2000/svg" viewBox="0 0 16 16" version="1">
    <title>
        Gnome Symbolic Icon Theme
    </title>
    <path d="M3 1a1 1 0 0 0-1 1v13a1 1 0 0 0 1 1h10a1 1 0 0 0 1-1v-4c0-1.333-.814-2.275-1.553-2.644C11.71 7.985 11 8 11 8H9.414l.283-.283.01-.01C9.894 7.52 10 7.265 10 7V6H9a1 1 0 0 0-.707.293L5.586 9l2.697 2.697A1 1 0 0 0 9 12h1v-1a1 1 0 0 0-.293-.707L9.414 10H11s.291.014.553.145c.261.13.447.188.447.855v3H4V3h5.586L12 5.414V6a1 1 0 1 0 2 0V5a1 1 0 0 0-.293-.707l-3-3A1 1 0 0 0 10 1z" color="#000" fill="#bebebe" fill-rule="evenodd" solid-color="#000000"/>
</svg>
