<svg width="16" height="16" version="1.1" viewBox="0 0 16.000002 16" xmlns="http://www.w3.org/2000/svg" xmlns:osb="http://www.openswatchbook.org/uri/2009/osb">
<title>Gnome Symbolic Icon Theme</title>
<g transform="translate(-201 -766.99)" fill="#bebebe">
<path d="m205.81 767c-0.4584 0.0875-0.82072 0.5334-0.8125 1v7h2v-6h4v3h3v3h2v-3.4375c6e-3 -0.2641-0.0976-0.529-0.28125-0.7188l-3.5625-3.5624c-0.18978-0.1837-0.45469-0.28737-0.71875-0.28125h-5.4375c-0.0312-1e-3 -0.0625-1e-3 -0.0937 0-0.0312-1e-3 -0.0625-1e-3 -0.0937 0z" color="#000000" style="text-decoration-line:none;text-indent:0;text-transform:none"/>
<path d="m202.03 769.99s-1 0-1 1l-0.03125 9.0098c2e-5 0.83333 0.57399 1.5057 1.0625 1.75 0.48851 0.24436 0.9375 0.25 0.9375 0.25h12s0.44899-6e-3 0.9375-0.25c0.48851-0.24426 1.0625-0.91667 1.0625-1.75v-4h-13.031l-0.46875 4.0312c-0.0164 0.2618-0.26945 0.48511-0.53125 0.46875-0.2618-0.0164-0.48511-0.26945-0.46875-0.53125l0.5-4.5c0.01-0.22281 0.18713-0.42714 0.40625-0.46875 0.0312-3e-3 0.0626-3e-3 0.0937 0h0.5v-5.0098z" color="#000000" style="text-decoration-line:none;text-indent:0;text-transform:none"/>
</g>
</svg>
