<?xml version="1.0"?>
<svg xmlns="http://www.w3.org/2000/svg" width="17.067" height="17.067" viewBox="0 0 16 16" version="1">
    <title>
        Gnome Symbolic Icon Theme
    </title>
    <g fill="#bebebe">
        <path d="M4 1v2h8V1zM2 4c-.5 0-1 .5-1 1v4c0 .5.5 1 1 1h1V8h5.125a3.66 3.66 0 0 1 2.531-1.031c1.782 0 3.29 1.28 3.625 2.969C14.674 9.8 15 9.407 15 9V5c0-.5-.5-1-1-1zm2 5v5h5.094a3.709 3.709 0 0 1-2.125-3.344c0-.595.151-1.156.406-1.656z"/>
        <path d="M10.66 7.94c-1.496 0-2.719 1.223-2.719 2.719s1.223 2.719 2.719 2.719c.487 0 .947-.149 1.344-.375a.75.75 0 0 0 .156.218l1.844 1.813a.751.751 0 1 0 1.062-1.063l-1.843-1.812a.75.75 0 0 0-.22-.156c.227-.397.376-.857.376-1.344A2.726 2.726 0 0 0 10.66 7.94zm0 1c.955 0 1.719.764 1.719 1.719s-.764 1.719-1.719 1.719-1.719-.764-1.719-1.72.764-1.718 1.719-1.718z" color="#000"/>
    </g>
</svg>
