<svg width="16" height="16" version="1.1" viewBox="0 0 16 16.000099" xmlns="http://www.w3.org/2000/svg" xmlns:osb="http://www.openswatchbook.org/uri/2009/osb">
<title>Gnome Symbolic Icon Theme</title>
<g transform="translate(-401.06 -807)">
<path d="m404 808a1.0001 1.0001 0 0 0 -1 1v13a1.0001 1.0001 0 0 0 1 1h2a1.0001 1.0001 0 1 0 0 -2h-1v-11h5.5859l2.4141 2.4141v8.5859h-3v-3.5859l0.29297 0.29297c0.1875 0.18755 0.44183 0.29293 0.70703 0.29297h1v-1c0-0.27-0.10919-0.52853-0.30273-0.7168l-2.6973-2.6973-2.707 2.707c-0.18755 0.1875-0.29293 0.44183-0.29297 0.70703v1h1c0.2652-4e-5 0.51976-0.10566 0.70703-0.29297 4e-3 -3e-3 7e-3 -7e-3 0.01-0.01l0.28297-0.28297v4.5859a1.0001 1.0001 0 0 0 1 1h5a1.0001 1.0001 0 0 0 1 -1v-10a1.0001 1.0001 0 0 0 -0.29297 -0.70703l-3-3a1.0001 1.0001 0 0 0 -0.70703 -0.29297z" color="#000000" color-rendering="auto" dominant-baseline="auto" fill="#bebebe" fill-rule="evenodd" image-rendering="auto" shape-rendering="auto" solid-color="#000000" style="font-feature-settings:normal;font-variant-alternates:normal;font-variant-caps:normal;font-variant-ligatures:normal;font-variant-numeric:normal;font-variant-position:normal;isolation:auto;mix-blend-mode:normal;shape-padding:0;text-decoration-color:#000000;text-decoration-line:none;text-decoration-style:solid;text-indent:0;text-orientation:mixed;text-transform:none;white-space:normal"/>
</g>
</svg>
