<?xml version="1.0"?>
<svg xmlns="http://www.w3.org/2000/svg" width="16" height="16" viewBox="0 0 16.000002 16" version="1">
    <title>
        Gnome Symbolic Icon Theme
    </title>
    <g>
        <path d="M4.81.01c-.458.087-.82.533-.812 1v7h2v-6h4v3h3v3h2V4.572a1.013 1.013 0 0 0-.282-.718L11.154.29a1.012 1.012 0 0 0-.719-.281H4.998a1.464 1.464 0 0 0-.094 0 1.464 1.464 0 0 0-.094 0z"/>
        <path d="M1.03 3s-1 0-1 1l-.031 9.01c0 .833.574 1.506 1.062 1.75.489.244.938.25.938.25h12s.449-.006.937-.25c.489-.244 1.063-.917 1.063-1.75v-4H2.968l-.469 4.031a.52.52 0 0 1-.531.469.52.52 0 0 1-.469-.531l.5-4.5a.515.515 0 0 1 .406-.47.489.489 0 0 1 .094 0h.5V3z"/>
    </g>
</svg>
