<svg xmlns="http://www.w3.org/2000/svg" version="1" viewBox="0 0 16 16">
    <path d="M8 1.03a6.963 6.963 0 0 0-6.969 6.969c0 3.853 3.116 6.969 6.969 6.969s6.969-3.116 6.969-6.97A6.963 6.963 0 0 0 8 1.03zM5 4.999h1.031c.255.011.51.128.688.312l1.28 1.281 1.313-1.28c.266-.231.447-.306.688-.313h1v1c0 .286-.034.55-.25.75L9.469 8.03l1.25 1.25c.188.188.281.453.281.719v1h-1c-.265 0-.53-.093-.719-.282L8 9.437l-1.281 1.28A1.015 1.015 0 0 1 6 11H5v-1c0-.266.093-.53.281-.719l1.282-1.25L5.28 6.749a.909.909 0 0 1-.28-.75v-1z"/>
</svg>
