<svg width="17.067" height="17.078" version="1.1" viewBox="0 0 16 16.010475" xmlns="http://www.w3.org/2000/svg" xmlns:osb="http://www.openswatchbook.org/uri/2009/osb">
<title>Gnome Symbolic Icon Theme</title>
<g transform="translate(-41 -787)" fill="#bebebe">
<path d="m44.5 796c-1.9212 0-3.5 1.5788-3.5 3.5s1.5788 3.5 3.5 3.5 3.5-1.5788 3.5-3.5-1.5788-3.5-3.5-3.5zm0 2c0.84027 0 1.5 0.65973 1.5 1.5s-0.65973 1.5-1.5 1.5-1.5-0.65973-1.5-1.5 0.65973-1.5 1.5-1.5z" color="#000000" color-rendering="auto" image-rendering="auto" shape-rendering="auto" solid-color="#000000" style="isolation:auto;mix-blend-mode:normal;text-decoration-color:#000000;text-decoration-line:none;text-decoration-style:solid;text-indent:0;text-transform:none;white-space:normal"/>
<path d="m53.5 796c-1.9212 0-3.5 1.5788-3.5 3.5s1.5788 3.5 3.5 3.5 3.5-1.5788 3.5-3.5-1.5788-3.5-3.5-3.5zm0 2c0.84027 0 1.5 0.65973 1.5 1.5s-0.65973 1.5-1.5 1.5-1.5-0.65973-1.5-1.5 0.65973-1.5 1.5-1.5z" color="#000000" color-rendering="auto" image-rendering="auto" shape-rendering="auto" solid-color="#000000" style="isolation:auto;mix-blend-mode:normal;text-decoration-color:#000000;text-decoration-line:none;text-decoration-style:solid;text-indent:0;text-transform:none;white-space:normal"/>
<path d="m44.096 787c-1.0604 0.554-1.4065 1.7592-0.79429 2.7188l4.4204 7.2812-1.7463 2.368 1.4141 2.0852 1.61-2.4844 1.5787 2.4844 1.4011-1.9968-1.7021-2.4563 4.4204-7.2812c0.61223-0.95955 0.26612-2.1648-0.79429-2.7188l-4.9039 8z"/>
</g>
</svg>
