<svg xmlns="http://www.w3.org/2000/svg" width="16" height="16" version="1" viewBox="0 0 16 16">
    <path d="M6.507 1.027C3.48 1.027.997 3.506.997 6.53c0 3.026 2.482 5.505 5.51 5.505 3.03 0 5.511-2.48 5.511-5.505s-2.482-5.504-5.51-5.504zm0 2.009c1.948 0 3.5 1.55 3.5 3.495a3.479 3.479 0 0 1-3.5 3.496 3.48 3.48 0 0 1-3.5-3.496 3.479 3.479 0 0 1 3.5-3.495z" overflow="visible"/>
    <path d="M9.812 9.031a1 1 0 0 0-.5 1.719l4 4a1.005 1.005 0 1 0 1.407-1.438l-4-4a1 1 0 0 0-.907-.28z" overflow="visible"/>
</svg>
