<svg width="17.067" height="17.067" version="1.1" viewBox="0 0 16 16" xmlns="http://www.w3.org/2000/svg">
<title>Gnome Symbolic Icon Theme</title>
<g transform="translate(-121 -667)" fill="#bebebe">
<path d="m125 673v2h6.5c0.84027 0 1.5 0.65973 1.5 1.5s-0.65973 1.5-1.5 1.5h-0.5v2h0.5c1.9212 0 3.5-1.5788 3.5-3.5s-1.5788-3.5-3.5-3.5z" color="#000000" style="text-decoration-line:none;text-indent:0;text-transform:none"/>
<path d="m128 670.02v1c0 0.25689-0.12983 0.52846-0.3125 0.71875l-2.2812 2.2812 2.2812 2.2812c0.18267 0.19029 0.3125 0.46186 0.3125 0.71875v1h-1c-0.30945 0-0.55232-0.0903-0.75-0.28125l-3.6562-3.7188 3.6562-3.7188c0.19768-0.19095 0.44055-0.28125 0.75-0.28125z" color="#bebebe" style="text-decoration-line:none;text-indent:0;text-transform:none"/>
</g>
</svg>
