<svg xmlns="http://www.w3.org/2000/svg" width="17.067" height="17.078" version="1" viewBox="0 0 16 16.01">
    <path d="M3.5 9C1.579 9 0 10.579 0 12.5S1.579 16 3.5 16 7 14.421 7 12.5 5.421 9 3.5 9zm0 2c.84 0 1.5.66 1.5 1.5S4.34 14 3.5 14 2 13.34 2 12.5 2.66 11 3.5 11zm9-2C10.579 9 9 10.579 9 12.5s1.579 3.5 3.5 3.5 3.5-1.579 3.5-3.5S14.421 9 12.5 9zm0 2c.84 0 1.5.66 1.5 1.5s-.66 1.5-1.5 1.5-1.5-.66-1.5-1.5.66-1.5 1.5-1.5z" solid-color="#000000"/>
    <path d="M3.096 0c-1.06.554-1.407 1.76-.794 2.719L6.722 10l-1.746 2.368 1.414 2.085L8 11.97l1.579 2.484 1.4-1.997L9.279 10l4.42-7.281c.612-.96.266-2.165-.794-2.719L8 8z"/>
</svg>
