<?xml version="1.0"?>
<svg xmlns="http://www.w3.org/2000/svg" xmlns:osb="http://www.openswatchbook.org/uri/2009/osb" version="1.1" viewBox="0 0 16 16">
<title>Gnome Symbolic Icon Theme</title>
<g transform="translate(-420.98 -766.99)" fill="none">
<path d="m423.66 777.28 5.8493-5.8508 2.9998 2.9998-5.8289 5.8731-4.0268 1.0718z"/>
<path d="m426 767c-1.3333 0-2.2752 0.81426-2.6445 1.5527-0.36923 0.73854-0.35547 1.4473-0.35547 1.4473v1.5859l-0.28321-0.28321c-3e-3 -3e-3 -5e-3 -6e-3 -8e-3 -0.01-0.18665-0.18658-0.44163-0.29271-0.70684-0.29273h-1v1c5e-5 0.26522 0.10545 0.51951 0.29297 0.70703l2.707 2.707 2.6973-2.6973c0.19374-0.18807 0.30272-0.44681 0.30273-0.7168v-1h-1c-0.26523 4e-5 -0.51953 0.10546-0.70703 0.29297l-0.29297 0.29297v-1.5859s0.0134-0.29137 0.14453-0.55273c0.13078-0.26143 0.18882-0.44726 0.85547-0.44727h5.959l-1.6621 1.6602 3.0527 3.0527 1.7695-1.7695c0.3073-0.3073 0.3073-0.80208 0-1.1094l-1.8359-1.834-1.584-1.4102c-0.44778-0.38134-0.88712-0.58984-1.6992-0.58984z" image-rendering="auto" solid-color="#000000"/>
</g>
</svg>
