<svg xmlns="http://www.w3.org/2000/svg" viewBox="0 0 16 16">
    <path d="M2.68 10.29l5.85-5.85 3 2.999-5.83 5.873-4.027 1.072z"/>
    <path d="M5.02.01c-1.333 0-2.275.814-2.645 1.553C2.006 2.3 2.02 3.01 2.02 3.01v1.586l-.283-.283-.008-.01a1.002 1.002 0 0 0-.707-.293h-1v1a1 1 0 0 0 .293.707l2.707 2.707 2.697-2.697a.999.999 0 0 0 .303-.717v-1h-1a1 1 0 0 0-.707.293l-.293.293V3.01s.013-.291.145-.553c.13-.261.188-.447.855-.447h5.959L9.319 3.67l3.053 3.053 1.77-1.77a.783.783 0 0 0 0-1.11L12.304 2.01 10.721.6C10.273.218 9.834.01 9.022.01z" solid-color="#000000"/>
</svg>
