<svg width="17.039" height="17.067" version="1.1" viewBox="0 0 15.973606 16" xmlns="http://www.w3.org/2000/svg">
<title>Gnome Symbolic Icon Theme</title>
<g transform="translate(-181 -807)">
<path d="m188 807v1.0312c-3.1624 0.26289-5.6896 2.8023-5.9375 5.9688h-1.0625v1h1.0625c0.24791 3.1668 2.7747 5.7062 5.9375 5.9688v1.0312h1v-1.0312c3.1881-0.23381 5.724-2.7806 5.9688-5.9688h1.0312v-1h-1.0312c-0.2448-3.1887-2.7798-5.767-5.9688-6v-1zm0.53125 2.8125c2.6064 0 4.6875 2.0811 4.6875 4.6875s-2.0811 4.6875-4.6875 4.6875c-2.6064 0-4.75-2.0811-4.75-4.6875s2.1436-4.6875 4.75-4.6875zm-0.03125 1.1875c-1.933 0-3.5 1.567-3.5 3.5s1.567 3.5 3.5 3.5c1.933 0 3.5-1.567 3.5-3.5s-1.567-3.5-3.5-3.5z" color="#000000" fill="none"/>
</g>
</svg>
