<svg xmlns="http://www.w3.org/2000/svg" width="17.039" height="17.067" viewBox="0 0 15.973606 16">
    <title>
        Gnome Symbolic Icon Theme
    </title>
    <path d="M7 0v1.031A6.514 6.514 0 0 0 1.062 7H0v1h1.063A6.514 6.514 0 0 0 7 13.969V15h1v-1.031c3.188-.234 5.724-2.78 5.969-5.969H15V7h-1.031C13.724 3.811 11.189 1.233 8 1V0zm.531 2.813c2.607 0 4.688 2.08 4.688 4.687s-2.081 4.688-4.688 4.688c-2.606 0-4.75-2.082-4.75-4.688s2.144-4.688 4.75-4.688zM7.5 4a3.5 3.5 0 1 0 0 7 3.5 3.5 0 0 0 0-7z"/>
</svg>
