<svg xmlns="http://www.w3.org/2000/svg" width="17.069" height="17.067" viewBox="0 0 16.002 16">
    <path d="M7.936 2l-7.934.01L0 13.979h9.97l.026-9.918c0-1.124-.936-2.06-2.06-2.06zM3.018 5h1c.31 0 .552.09.75.281L7.424 8l-2.656 2.719c-.198.19-.44.281-.75.281h-1v-1c0-.257.13-.528.313-.719l1.28-1.28-1.28-1.282c-.183-.19-.313-.462-.313-.719zm6.969-2.97s1.031.484 1.031 1.969v10h.985v-10c0-1.25-2.016-1.969-2.016-1.969zm1.984 0s1.031.484 1.031 1.969v10h1v-10c0-1.25-2.031-1.969-2.031-1.969z" solid-color="#000000"/>
</svg>
