<svg width="16" height="16" version="1.1" viewBox="0 0 16.00034 16" xmlns="http://www.w3.org/2000/svg" xmlns:osb="http://www.openswatchbook.org/uri/2009/osb">
<title>Gnome Symbolic Icon Theme</title>
<g transform="translate(-301 -727)" fill="none">
<path d="m313 736v1.9968h-2v1.9967h2v1.9967h2v-1.9967h2v-1.9967h-2v-1.9968z"/>
<path d="m303 728c-0.83333 0-1.5253 0.56422-1.7695 1.0527-0.24426 0.48852-0.23047 0.94727-0.23047 0.94727v10c0 0.83333 0.56422 1.5253 1.0527 1.7695 0.48852 0.24426 0.94727 0.23047 0.94727 0.23047h6s1 0 1-1-1-1-1-1h-6v-10h4.5859l2 2h5.4141v2c0 1 1 1 1 1s1 0 1-1v-2s0.0138-0.45875-0.23047-0.94727c-0.24426-0.48851-0.9362-1.0527-1.7695-1.0527h-4.5859l-2-2z" color="#000000" color-rendering="auto" dominant-baseline="auto" image-rendering="auto" shape-rendering="auto" solid-color="#000000" style="font-feature-settings:normal;font-variant-alternates:normal;font-variant-caps:normal;font-variant-ligatures:normal;font-variant-numeric:normal;font-variant-position:normal;isolation:auto;mix-blend-mode:normal;shape-padding:0;text-decoration-color:#000000;text-decoration-line:none;text-decoration-style:solid;text-indent:0;text-orientation:mixed;text-transform:none;white-space:normal"/>
</g>
</svg>
