<svg xmlns="http://www.w3.org/2000/svg" width="17.067" height="17.067" viewBox="0 0 16.0002 16">
    <title>
        Gnome Symbolic Icon Theme
    </title>
    <path d="M0 5v1c0 .257.13.528.313.719l1.28 1.28-1.28 1.282C.13 9.471 0 9.743 0 10v1h1c.31 0 .552-.09.75-.281l2.656-2.72L1.75 5.282C1.552 5.091 1.31 5 1 5zM16 5v1c0 .257-.13.528-.313.719l-1.28 1.28 1.28 1.282c.183.19.313.462.313.719v1h-1c-.31 0-.552-.09-.75-.281l-2.656-2.72 2.656-2.718c.198-.19.44-.281.75-.281zM7 3v2h1.906C8.851 5 9 5.171 9 5.094v.937H8c-1.716 0-3.038 1.11-3.063 2.469-.012.68.32 1.353.875 1.813s1.31.718 2.188.718h3V5.094C11 3.923 10.103 3 8.906 3zm1 5.031h1v1H8c-.52 0-.78-.146-.906-.25s-.158-.178-.157-.25c.003-.144.093-.5 1.063-.5z"/>
</svg>
