<svg xmlns="http://www.w3.org/2000/svg" width="17.067" height="17.067" viewBox="0 0 16 16">
    <path d="M5 3v2h6c.428 0 1 .614 1 1v1H7c-.92 0-1.736.384-2.25.969S3.994 9.279 4 10c.006.72.269 1.453.781 2.031S6.091 13 7 13h7V6a3 3 0 0 0-3-3zm2 6h5v2H7c-.398 0-.567-.11-.719-.281S6.002 10.279 6 10c-.002-.28.105-.554.25-.719S6.578 9 7 9z"/>
    <path d="M4 3v2h5c.428 0 1 .614 1 1v1H5c-.92 0-1.736.384-2.25.969S1.994 9.279 2 10c.006.72.269 1.453.781 2.031S4.091 13 5 13h7V6a3 3 0 0 0-3-3zm1 6h5v2H5c-.398 0-.567-.11-.719-.281S4.002 10.279 4 10c-.002-.28.105-.554.25-.719S4.578 9 5 9z"/>
</svg>
