<svg xmlns="http://www.w3.org/2000/svg" width="17.067" height="17.067" viewBox="0 0 16 16">
    <path d="M6 .05v2h6c.428 0 1 .614 1 1v1H8c-.92 0-1.736.384-2.25.969s-.756 1.31-.75 2.03c.006.722.269 1.454.781 2.032s1.31.969 2.219.969h7v-7a3 3 0 0 0-3-3zm2 6h5v2H8c-.398 0-.567-.11-.719-.281S7.002 7.329 7 7.05c-.002-.28.105-.554.25-.719s.328-.281.75-.281zM4 15H3c-.265 0-.53-.093-.719-.281l-2-2L0 12.438v-.875l.281-.282 2-2C2.47 9.093 2.735 9 3 9h1v1c0 .265-.093.53-.281.719L2.437 12l1.282 1.281c.188.188.28.454.28.719v1z"/>
    <path d="M2 11v2h12.938v-2z"/>
</svg>
