<svg xmlns="http://www.w3.org/2000/svg" width="17.067" height="17.067" viewBox="0 0 16.000002 16">
    <title>
        Gnome Symbolic Icon Theme
    </title>
    <path d="M2 0v2h6c.428 0 1 .614 1 1v1H4c-.92 0-1.736.384-2.25.969S.994 6.279 1 7c.006.72.269 1.453.781 2.031S3.091 10 4 10h7V3a3 3 0 0 0-3-3zm2 6h5v2H4c-.398 0-.567-.11-.719-.281S3.002 7.279 3 7c-.002-.28.105-.554.25-.719S3.578 6 4 6zM12 15h1c.265 0 .53-.093.719-.281l2-2 .281-.281v-.875l-.281-.282-2-2A1.015 1.015 0 0 0 13 9h-1v1c0 .265.093.53.281.719L13.562 12l-1.28 1.281A1.015 1.015 0 0 0 12 14v1z"/>
    <path d="M.94 11v2h13.062v-2z"/>
</svg>
