<?xml version="1.0"?>
<svg xmlns="http://www.w3.org/2000/svg" width="17.067" height="17.067" version="1.1" viewBox="0 0 16 16">
<title>Gnome Symbolic Icon Theme</title>
<g transform="translate(-361 -627)" fill="none">
<path d="m367.5 629c-1.9212 0-3.5 1.5788-3.5 3.5v0.5h2v-0.5c0-0.84027 0.65973-1.5 1.5-1.5s1.5 0.65973 1.5 1.5v6.5h2v-6.5c0-1.9212-1.5788-3.5-3.5-3.5z"/>
<path d="m374 636h-1c-0.25689 0-0.52846 0.12983-0.71875 0.3125l-2.2812 2.2812-2.2812-2.2812c-0.19029-0.18267-0.46186-0.3125-0.71875-0.3125h-1v1c0 0.30945 0.0903 0.55232 0.28125 0.75l3.7188 3.6562 3.7188-3.6562c0.19095-0.19768 0.28125-0.44055 0.28125-0.75z"/>
</g>
</svg>
