<svg xmlns="http://www.w3.org/2000/svg" width="17.067" height="17.047" viewBox="0 0 16 15.981833">
    <title>
        Gnome Symbolic Icon Theme
    </title>
    <path d="M11.001 11.98h-1c-.257 0-.529.108-.719.261l-1.281 1.07-1.282-1.07A1.202 1.202 0 0 0 6 11.98H5v.835c0 .259.09.462.282.627l2.741 2.533 2.697-2.533a.78.78 0 0 0 .281-.627v-.835zM9.804 4.04a.936 1.01 0 0 0 .185 1.998h4.937a.936 1.01 0 1 0 0-1.998H9.989a.936 1.01 0 0 0-.185 0zM.813 4.04c-.45.102-.79.599-.743 1.088.045.49.47.905.93.91h4.916c.535.085 1.084-.42 1.084-1 0-.578-.549-1.083-1.084-.998H1a.834.834 0 0 0-.187 0zM6.059.96a2.492 2.492 0 0 0-1.906 1.469 2.686 2.686 0 0 0-.157.531H12c-.026-.125-.053-.262-.093-.375A2.467 2.467 0 0 0 9.563.96H6.434c-.127 0-.253-.018-.375 0zm-2.063 6c.236 1.132 1.24 2 2.438 2h3.129c1.197 0 2.202-.868 2.437-2z"/>
</svg>
