<svg width="17.067" height="17.047" version="1.1" viewBox="0 0 16 15.981833" xmlns="http://www.w3.org/2000/svg">
<title>Gnome Symbolic Icon Theme</title>
<g transform="translate(-61 -807.04)" fill="none">
<path d="m72.001 819.02h-1.0001c-0.25694 1e-5 -0.52852 0.10844-0.71884 0.26103l-1.2814 1.0702-1.2814-1.0702c-0.19007-0.15281-0.4619-0.26103-0.71886-0.26099h-1.0001l-1e-5 0.83531c0 0.25848 0.09021 0.46133 0.28133 0.62645l2.7415 2.5336 2.6966-2.5336c0.19096-0.16516 0.28129-0.368 0.28129-0.62647v-0.83531z" color="#bebebe" style="text-decoration-line:none;text-indent:0;text-transform:none"/>
<path d="m70.804 811.08a0.9359 1.0099 0 0 0 0.18513 1.9977h4.9368a0.9359 1.0099 0 1 0 0 -1.9977h-4.9368a0.9359 1.0099 0 0 0 -0.18513 0z" color="#000000" style="text-decoration-line:none;text-indent:0;text-transform:none"/>
<path d="m61.813 811.08c-0.4499 0.10227-0.78916 0.59895-0.7434 1.0883 0.04581 0.4894 0.47028 0.9044 0.93022 0.90939h4.9161c0.53523 0.0854 1.0839-0.42019 1.0839-0.99887 0-0.57867-0.54865-1.0843-1.0839-0.99886h-4.9161c-0.06211-7e-3 -0.12475-7e-3 -0.18682 0z" color="#000000" style="text-decoration-line:none;text-indent:0;text-transform:none"/>
<path d="m67.059 808c-0.85418 0.12953-1.5686 0.69462-1.9063 1.4688-0.07101 0.16272-0.1182 0.34541-0.15625 0.53125h8.0038c-0.0261-0.12512-0.05351-0.26249-0.09371-0.375-0.34646-0.96755-1.2693-1.625-2.3437-1.625h-3.1288c-0.12696 0-0.25298-0.0185-0.37499 0zm-2.0625 6c0.23531 1.132 1.2399 2 2.4375 2h3.1288c1.1976 0 2.2022-0.86805 2.4375-2z" color="#000000" enable-background="new" style="text-decoration-line:none;text-indent:0;text-transform:none"/>
</g>
</svg>
