<?xml version="1.0"?>
<svg xmlns="http://www.w3.org/2000/svg" width="17.067" height="17.067" version="1.1" viewBox="0 0 16 16">
<title>Gnome Symbolic Icon Theme</title>
<g transform="translate(-360 -786)">
<path d="m361 786v2c0.55228 0 1 0.44772 1 1s-0.44772 1-1 1v1c0.55229 0 1 0.44772 1 1s-0.44771 1-1 1v1c0.55228 0 1 0.44772 1 1s-0.44772 1-1 1v1c0.55228 0 1 0.44772 1 1s-0.44772 1-1 1v2h2c0-0.55228 0.44772-1 1-1s1 0.44772 1 1h1c0-0.55228 0.44772-1 1-1s1 0.44772 1 1h1c0-0.55228 0.44772-1 1-1 0.55229 0 1 0.44772 1 1h1c0-0.55228 0.44771-1 1-1s1 0.44772 1 1h2v-2c-0.55229 0-1-0.44772-1-1s0.44771-1 1-1v-1c-0.55229 0-1-0.44772-1-1s0.44771-1 1-1v-1c-0.55229 0-1-0.44772-1-1s0.44771-1 1-1v-1c-0.55229 0-1-0.44772-1-1s0.44771-1 1-1v-2h-2c0 0.55228-0.44771 1-1 1s-1-0.44772-1-1h-1c0 0.55228-0.44771 1-1 1-0.55228 0-1-0.44772-1-1h-1c0 0.55228-0.44772 1-1 1s-1-0.44772-1-1h-1c0 0.55228-0.44772 1-1 1s-1-0.44772-1-1zm2 2h11v11h-2v-2.0625c0-1.0667-0.77865-1.9804-1.7188-2.25-0.49379 0.47964-1.0704 0.6875-1.7812 0.6875s-1.2875-0.20786-1.7812-0.6875c-0.77657 0.27945-1.7177 0.97676-1.7188 2.2188v2.0938h-2z"/>
<circle transform="matrix(.92307 0 0 .92307 322.81 476.15)" cx="49.5" cy="342.5" r="2.5"/>
</g>
</svg>
