<svg xmlns="http://www.w3.org/2000/svg" width="17.067" height="17.067" viewBox="0 0 16 16">
    <title>
        Gnome Symbolic Icon Theme
    </title>
    <path d="M1.78 1.72a1 1 0 0 0-.406 1.781l5 4 .625.5.625-.5 5-4a1 1 0 1 0-1.25-1.562l-4.375 3.5-4.375-3.5a1 1 0 0 0-.844-.219z"/>
    <path d="M.81 1c-.458.087-.82.533-.812 1v9c0 .523.476 1 1 1h6v-2h-5V3h10v4h2V2c0-.524-.477-1-1-1h-12a1.478 1.478 0 0 0-.094 0A1.478 1.478 0 0 0 .81 1z"/>
    <path class="warning" d="M8.88 8.07a.86.86 0 0 0-.875.867v6.196a.86.86 0 0 0 .875.868h6.25a.86.86 0 0 0 .875-.868V8.937a.86.86 0 0 0-.875-.867zm2.125.991h2v3.966h-2zm0 4.957h2v.991h-2z" fill="#f57900"/>
</svg>
