<svg xmlns="http://www.w3.org/2000/svg" width="17.067" height="17.067" viewBox="0 0 16 16">
    <path d="M9 7V6c0-.265-.093-.53-.281-.719l-3-3L5.437 2h-.874l-.282.281-3 3A1.015 1.015 0 0 0 1 6v1h1c.265 0 .53-.093.719-.281L5 4.437 7.281 6.72c.188.188.454.28.719.28h1z"/>
    <path d="M4 4v7h2V4zm11 4v1c0 .265-.093.53-.281.719l-3 3-.281.281h-.875l-.282-.281-3-3A1.015 1.015 0 0 1 7 9V8h1c.265 0 .53.093.719.281L11 10.563l2.281-2.282c.188-.188.454-.28.719-.28h1z"/>
    <path d="M10 4v7h2V4z"/>
</svg>
