<?xml version="1.0"?>
<svg xmlns="http://www.w3.org/2000/svg" width="17.067" height="17.067" version="1.1" viewBox="0 0 16 16">
<title>Gnome Symbolic Icon Theme</title>
<g transform="translate(-321 -647)">
<path d="m322.78 648.72a1.0001 1 0 0 0 -0.40625 1.7811l5 3.9997 0.625 0.49997 0.625-0.49997 5-3.9997a1.0005 1.0004 0 1 0 -1.25 -1.5624l-4.375 3.4998-4.375-3.4998a1.0001 1 0 0 0 -0.84375 -0.21873z"/>
<path d="m321.81 648c-0.45841 0.0875-0.82073 0.53337-0.8125 0.99993v8.9994c5e-5 0.52354 0.47641 0.99987 1 0.99992h5.9999v-1.9999h-4.9999v-6.9995h10l-1.4e-4 3.9997h2l1.4e-4 -4.9997c-5e-5 -0.52354-0.47642-0.99988-1-0.99993h-12c-0.0312-9.9e-4 -0.0625-9.9e-4 -0.0937 0-0.0312-9.9e-4 -0.0625-9.9e-4 -0.0937 0z"/>
<path class="warning" d="m329.88 655.07c-0.49245 0-0.875 0.37923-0.875 0.8674v6.1957c0 0.48816 0.38255 0.8674 0.875 0.8674h6.25c0.49245 0 0.875-0.37924 0.875-0.8674v-6.1957c0-0.48817-0.38255-0.8674-0.875-0.8674zm2.125 0.99131h2v3.9653h-2zm0 4.9566h2v0.99131h-2z" fill="#f57900"/>
</g>
</svg>
