<svg width="17.067" height="17.067" version="1.1" viewBox="0 0 16 16" xmlns="http://www.w3.org/2000/svg">
<title>Gnome Symbolic Icon Theme</title>
<g transform="translate(-81 -687)" fill="none">
<path d="m90 694-1e-5 -1c-3e-5 -0.26531-0.0931-0.53058-0.28124-0.71876l-3-3-0.28125-0.28126h-0.87499l-0.28126 0.28126-3 3c-0.18821 0.18818-0.28121 0.45347-0.28121 0.71876l-1e-5 1h1c0.26531 4e-5 0.53059-0.0931 0.71877-0.28121l2.2812-2.2813 2.2812 2.2812c0.18817 0.18815 0.45345 0.28125 0.71875 0.28125h1z" color="#000000" style="text-decoration-line:none;text-indent:0;text-transform:none"/>
<path d="m85 691v7h2v-7z" color="#000000" style="text-decoration-line:none;text-indent:0;text-transform:none"/>
<path d="m96 695-1e-5 1c-3e-5 0.26531-0.0931 0.53058-0.28124 0.71876l-3 3-0.28125 0.28126h-0.87499l-0.28126-0.28126-3-3c-0.18821-0.18818-0.28121-0.45347-0.28121-0.71876l-1e-5 -1h1c0.26531-4e-5 0.53059 0.0931 0.71877 0.28121l2.2812 2.2813 2.2812-2.2812c0.18817-0.18815 0.45345-0.28125 0.71875-0.28125h1z" color="#000000" style="text-decoration-line:none;text-indent:0;text-transform:none"/>
<path d="m91 691v7h2v-7z" color="#000000" style="text-decoration-line:none;text-indent:0;text-transform:none"/>
</g>
</svg>
