<?xml version="1.0"?>
<svg xmlns="http://www.w3.org/2000/svg" width="17.067" height="17.067" version="1.1" viewBox="0 0 16 16">
<title>Gnome Symbolic Icon Theme</title>
<g transform="translate(-60 -606)">
<g transform="translate(40 119)" fill="none">
<path d="m34 491c-0.17738 8e-3 -0.35117 0.0592-0.5 0.15625l-5 3c-0.2824 0.17971-0.4375 0.51173-0.4375 0.84375s0.1551 0.66404 0.4375 0.84375l5 3c0.14883 0.097 0.32262 0.14825 0.5 0.15625h1v-8h-0.84375z"/>
<path d="m27 491c-0.17738 8e-3 -0.35117 0.0592-0.5 0.15625l-5 3c-0.2824 0.17971-0.4375 0.51173-0.4375 0.84375s0.1551 0.66404 0.4375 0.84375l5 3c0.14883 0.097 0.32262 0.14825 0.5 0.15625h1v-8h-0.84375z"/>
</g>
</g>
</svg>
