<?xml version="1.0"?>
<svg xmlns="http://www.w3.org/2000/svg" width="17.067" height="17.067" version="1.1" viewBox="0 0 16 16">
<title>Gnome Symbolic Icon Theme</title>
<g transform="translate(-261 -667)">
<path d="m268 670v10h2v-10z"/>
<path d="m265 677v1c0 0.26528 0.093 0.53057 0.28125 0.71875l3.7188 3.7188 3.7188-3.7188c0.18814-0.18817 0.28122-0.45344 0.28125-0.71875v-1h-1c-0.2653 0-0.53058 0.0931-0.71875 0.28125l-2.2812 2.2812-2.2812-2.2812c-0.18818-0.18811-0.45344-0.28129-0.71875-0.28125z"/>
<path d="m265 673v-1c0-0.26528 0.093-0.53057 0.28125-0.71875l3.7188-3.7188 3.7188 3.7188c0.18814 0.18817 0.28122 0.45344 0.28125 0.71875v1h-1c-0.2653 0-0.53058-0.0931-0.71875-0.28125l-2.2812-2.2812-2.2812 2.2812c-0.18818 0.18811-0.45344 0.28129-0.71875 0.28125z"/>
</g>
</svg>
