<svg xmlns="http://www.w3.org/2000/svg" width="17.067" height="17.067" viewBox="0 0 16.000002 16">
    <title>
        Gnome Symbolic Icon Theme
    </title>
    <path d="M6.51 1C3.481 1 1 3.479 1 6.505c0 3.025 2.481 5.504 5.51 5.504s5.51-2.479 5.51-5.505C12.02 3.48 9.54 1 6.51 1zm0 2.009c1.947 0 3.5 1.55 3.5 3.495A3.479 3.479 0 0 1 6.51 10c-1.947 0-3.5-1.55-3.5-3.496a3.479 3.479 0 0 1 3.5-3.495z"/>
    <path d="M9.81 9a1 1 0 0 0-.5 1.719l4 4a1.006 1.006 0 1 0 1.406-1.438l-4-4A1 1 0 0 0 9.81 9z"/>
</svg>
