<svg xmlns="http://www.w3.org/2000/svg" width="17.067" height="17.093" viewBox="0 0 16 16.02426">
    <title>
        Gnome Symbolic Icon Theme
    </title>
    <path d="M4.84 1.83a1 1 0 0 0-.348.134 6.956 6.956 0 0 0-2.544 2.518c-1.94 3.33-.812 7.65 2.517 9.59 3.33 1.94 7.648.812 9.587-2.519 1.94-3.33.812-7.65-2.517-9.59a1.008 1.008 0 1 0-1.018 1.742 4.975 4.975 0 0 1 1.794 6.83 4.973 4.973 0 0 1-6.828 1.795 4.982 4.982 0 0 1-1.821-6.804l.026-.026A5.041 5.041 0 0 1 5.51 3.678 1 1 0 0 0 4.84 1.83z"/>
    <path d="M7.78.02a1 1 0 0 0-.781 1v5a1 1 0 1 0 2 0v-5a1 1 0 0 0-1.219-1z"/>
</svg>
