<?xml version="1.0"?>
<svg xmlns="http://www.w3.org/2000/svg" width="17.067" height="17.067" version="1.1" viewBox="0 0 16.000002 16">
<title>Gnome Symbolic Icon Theme</title>
<g transform="translate(-101 -847)">
<path d="m107.51 848c-3.0289 0-5.5107 2.479-5.5107 5.5045 0 3.0254 2.4819 5.5045 5.5107 5.5045 3.0288 0 5.5107-2.479 5.5107-5.5045 0-3.0254-2.4819-5.5045-5.5107-5.5045zm0 2.0089c1.9474 0 3.4995 1.5504 3.4995 3.4955 0 1.9451-1.5522 3.4955-3.4995 3.4955-1.9474 0-3.4995-1.5504-3.4995-3.4955 0-1.9452 1.5522-3.4955 3.4995-3.4955z"/>
<path d="m110.81 856a1.0001 1.0001 0 0 0 -0.5 1.7188l4 4a1.0055 1.0055 0 1 0 1.4062 -1.4375l-4-4a1.0001 1.0001 0 0 0 -0.90625 -0.28125z"/>
</g>
</svg>
