<?xml version="1.0"?>
<svg xmlns="http://www.w3.org/2000/svg" width="17.067" height="17.093" version="1.1" viewBox="0 0 16 16.02426">
<title>Gnome Symbolic Icon Theme</title>
<g transform="translate(-100 -685.98)" fill="none">
<path d="m104.84 687.81a0.99998 1.0002 0 0 0 -0.34813 0.13393c-1.0534 0.60965-1.9314 1.466-2.544 2.5179-1.9396 3.3304-0.81232 7.6493 2.5173 9.5893 3.3296 1.94 7.6475 0.8125 9.587-2.5179 1.9396-3.3304 0.81232-7.6493-2.5173-9.5893a1.0081 1.0084 0 1 0 -1.0176 1.7411c2.3957 1.3959 3.1898 4.4341 1.7942 6.8304-1.3956 2.3963-4.433 3.1905-6.8288 1.7946-2.3854-1.3899-3.1918-4.4121-1.821-6.8036l0.0268-0.0268c0.43759-0.75138 1.0685-1.3859 1.821-1.8214a0.99998 1.0002 0 0 0 -0.66949 -1.8482z"/>
<path d="m107.78 686a1.0001 1.0001 0 0 0 -0.78125 1v5a1.0001 1.0001 0 1 0 2 0v-5a1.0001 1.0001 0 0 0 -1.2188 -1z"/>
</g>
</svg>
