<svg xmlns="http://www.w3.org/2000/svg" width="17.067" height="17.067" viewBox="0 0 16 16">
    <path d="M11.375.25c-.24.435-.468 1.006-.719 1.438-.094-.007-.185-.032-.281-.032-.332 0-.66.049-.969.125C9.101 1.398 8.776.883 8.47.5a5.381 5.381 0 0 0-.813.375c.096.483.277 1.071.375 1.563a3.857 3.857 0 0 0-.875.874c-.491-.098-1.08-.279-1.562-.374-.149.26-.27.527-.375.812.383.307.898.632 1.28.938a4.053 4.053 0 0 0-.124.968c0 .096.025.188.031.282-.432.25-1.002.478-1.437.718.05.275.128.554.218.813.492-.01 1.1-.095 1.594-.094.187.392.42.754.719 1.063-.172.467-.448 1.008-.625 1.468.213.176.45.327.688.47.369-.321.775-.772 1.156-1.095a3.93 3.93 0 0 0 1.219.313c.164.477.304 1.088.468 1.562a5.44 5.44 0 0 0 .875-.062c.08-.493.11-1.119.188-1.625.41-.117.811-.267 1.156-.5.424.264.899.629 1.312.875.224-.19.435-.401.625-.625-.246-.414-.61-.888-.875-1.313.233-.345.384-.746.5-1.156.507-.077 1.133-.107 1.625-.187a5.41 5.41 0 0 0 .063-.875c-.474-.165-1.086-.305-1.563-.47-.047-.43-.14-.84-.312-1.218.322-.38.774-.787 1.094-1.156a5.562 5.562 0 0 0-.469-.688c-.46.177-1 .453-1.469.625a3.985 3.985 0 0 0-1.062-.718c-.001-.495.084-1.103.093-1.594a5.63 5.63 0 0 0-.812-.219zm-1 3.406a2 2 0 1 1 0 4 2 2 0 0 1 0-4z"/>
    <path d="M3.688 7.75c-.23.047-.444.131-.656.219-.017.624.087 1.442-.156 1.656-.24.21-1.039.034-1.657-.031a3.627 3.627 0 0 0-.312.75c.478.396 1.14.839 1.156 1.156.016.321-.626.805-1.062 1.25.103.258.25.493.406.719.608-.127 1.366-.374 1.625-.188.263.19.265 1.005.344 1.625.25.075.512.105.78.125.282-.555.568-1.32.876-1.406.316-.089.963.458 1.5.781.218-.151.413-.337.594-.531-.254-.572-.722-1.292-.594-1.594.127-.302.975-.47 1.562-.687.005-.074.032-.145.032-.22 0-.19-.035-.378-.063-.562-.606-.16-1.467-.24-1.625-.53-.157-.289.242-1.062.438-1.657a3.687 3.687 0 0 0-.657-.469c-.5.375-1.084.995-1.406.938-.317-.056-.663-.82-1-1.344-.04.007-.085-.008-.125 0zm.625 1.875a1.688 1.688 0 1 1 0 3.375 1.688 1.688 0 0 1 0-3.375z"/>
</svg>
