<svg xmlns="http://www.w3.org/2000/svg" width="17.067" height="17.067" viewBox="0 0 16 16">
    <title>
        Gnome Symbolic Icon Theme
    </title>
    <path d="M3 3v2h1.906C4.851 5 5 5.171 5 5.094v.937H4C2.284 6.031.962 7.141.937 8.5c-.012.68.32 1.353.875 1.813s1.31.718 2.188.718h3V5.094C7 3.923 6.103 3 4.906 3zm1 5.031h1v1H4c-.52 0-.78-.146-.906-.25s-.158-.178-.156-.25c.002-.144.092-.5 1.062-.5zM8 2v9.031h3c.939 0 1.782-.382 2.313-.969s.76-1.332.75-2.062c-.01-.73-.286-1.454-.813-2.031S11.921 5 11 5h-1V2zm2 5h1c.422 0 .62.135.781.313s.278.442.281.718c.005.276-.098.52-.25.688-.151.168-.353.312-.812.312h-1zM3 11.28l-.344.375-2 2a.5.5 0 1 0 .688.687L3 12.686l1.656 1.656.344.375.344-.375L7 12.686l1.656 1.656.344.375.344-.375L11 12.686l1.656 1.656.344.375.343-.375 2-2a.5.5 0 1 0-.687-.687L13 13.311l-1.656-1.656L11 11.28l-.344.375L9 13.311l-1.656-1.656L7 11.28l-.344.375L5 13.311l-1.656-1.656z"/>
</svg>
