<?xml version="1.0"?>
<svg xmlns="http://www.w3.org/2000/svg" width="17.067" height="17.067" version="1.1" viewBox="0 0 16 16">
<title>Gnome Symbolic Icon Theme</title>
<g transform="translate(-261 -827)">
<path d="m264 830v2h1.9062c-0.0552 0 0.0937 0.17104 0.0937 0.0937v0.9375h-1c-1.7159 0-3.0379 1.1099-3.0625 2.4688-0.0123 0.67944 0.3195 1.3532 0.875 1.8125s1.3096 0.71875 2.1875 0.71875h3v-5.9375c5e-5 -1.1711-0.89686-2.0937-2.0937-2.0937zm1 5.0312h1v1h-1c-0.51941 0-0.78011-0.14571-0.90625-0.25s-0.15755-0.17804-0.15625-0.25c3e-3 -0.14393 0.0927-0.5 1.0625-0.5z"/>
<path d="m269 829v9.0312h3c0.93855 0 1.7825-0.3823 2.3125-0.96875s0.75988-1.3327 0.75-2.0625c-0.01-0.72982-0.28566-1.4541-0.8125-2.0312s-1.329-0.96875-2.25-0.96875h-1v-3zm2 5h1c0.42179 0 0.61965 0.13545 0.78125 0.3125s0.27751 0.44294 0.28125 0.71875c4e-3 0.27581-0.0984 0.51973-0.25 0.6875-0.15163 0.16777-0.35374 0.3125-0.8125 0.3125h-1z"/>
<path d="m264 838.28-0.34375 0.375-2 2a0.50005 0.50005 0 1 0 0.6875 0.6875l1.6562-1.6562 1.6562 1.6562 0.34375 0.375 0.34375-0.375 1.6562-1.6562 1.6562 1.6562 0.34375 0.375 0.34375-0.375 1.6562-1.6562 1.6562 1.6562 0.34375 0.375 0.34375-0.375 2-2a0.50005 0.50005 0 1 0 -0.6875 -0.6875l-1.6562 1.6562-1.6562-1.6562-0.34375-0.375-0.34375 0.375-1.6562 1.6562-1.6562-1.6562-0.34375-0.375-0.34375 0.375-1.6562 1.6562-1.6562-1.6562z"/>
</g>
</svg>
