<svg xmlns="http://www.w3.org/2000/svg" width="17.067" height="17.067" viewBox="0 0 16 16">
    <title>
        Gnome Symbolic Icon Theme
    </title>
    <path d="M1.781 9A1 1 0 0 0 1 10v4a1 1 0 0 0 1 1h4a1 1 0 1 0 0-2H3v-3a1 1 0 0 0-1.22-1z"/>
    <path d="M6.375 8.5a1 1 0 0 0-.594.281l-4.5 4.5A1.016 1.016 0 1 0 2.72 14.72l4.5-4.5A1 1 0 0 0 6.375 8.5z"/>
    <path d="M1 14h1v1H1zM9.906 1A1.001 1.001 0 1 0 10 3h3v3a1 1 0 1 0 2 0V2a1 1 0 0 0-1-1h-4a1 1 0 0 0-.094 0z"/>
    <path d="M14 1h1v1h-1z"/>
    <path d="M13.781 1a1 1 0 0 0-.5.281l-4.5 4.47a1.016 1.016 0 1 0 1.437 1.437l4.5-4.47A1 1 0 0 0 13.781 1zM1 9h1v1H1zM6 14h1v1H6zM14 6h1v1h-1zM9 1h1v1H9z"/>
</svg>
