<?xml version="1.0"?>
<svg xmlns="http://www.w3.org/2000/svg" width="17.158" height="17.093" version="1.1" viewBox="0 0 16.085251 16.02426">
<title>Gnome Symbolic Icon Theme</title>
<g transform="translate(-60.952 -646.98)">
<path d="m71.781 647a1.0001 1.0001 0 0 0 -0.78125 1v4a1.0001 1.0001 0 0 0 1 1h4a1.0001 1.0001 0 1 0 0 -2h-3v-3a1.0001 1.0001 0 0 0 -1.2188 -1z"/>
<path d="m75.875 647a1.0001 1.0001 0 0 0 -0.59375 0.28125l-4 4a1.0165 1.0165 0 1 0 1.4375 1.4375l4-4a1.0001 1.0001 0 0 0 -0.84375 -1.7188z"/>
<rect x="71" y="652" width="1" height="1"/>
<path d="m61.906 653a1.0001 1.0001 0 0 0 -0.90625 1v8a1.0001 1.0001 0 0 0 1 1h8a1.0001 1.0001 0 0 0 1 -1v-8a1.0001 1.0001 0 0 0 -1 -1h-8a1.0001 1.0001 0 0 0 -0.09375 0zm1.0938 2h6v6h-6z"/>
<path d="m61.906 655a1.0011 1.0011 0 1 0 0.09375 2h8a1.0001 1.0001 0 1 0 0 -2h-8a1.0001 1.0001 0 0 0 -0.09375 0z"/>
<rect x="76" y="652" width="1" height="1"/>
<rect x="71" y="647" width="1" height="1"/>
<rect x="70" y="662" width="1" height="1"/>
<rect x="61" y="662" width="1" height="1"/>
</g>
</svg>
