<svg xmlns="http://www.w3.org/2000/svg" width="17.067" height="17.067" viewBox="0 0 16 16">
    <g transform="translate(-181 -867)">
        <path d="M181 868v13h6c.175 0 .525.152.813.344s.468.375.468.375l.719.718.719-.75S190.615 881 191 881h6v-13h-6c-.877 0-1.56.348-2.031.688-.03-.021-.031-.011-.063-.032-.46-.303-1.078-.656-1.906-.656h-5zm2 2h4c.138 0 .515.147.813.344s.5.375.5.375l.718.687.688-.718s.9-.688 1.281-.688h4v9h-4c-.877 0-1.56.347-2.031.688-.02-.014-.011-.018-.031-.032-.46-.308-1.103-.656-1.938-.656h-4z"/>
        <rect width="3" height="2" x="-187" y="872" opacity=".35" rx=".375" ry=".375" transform="scale(-1 1)"/>
        <rect width="3" height="2" x="-187" y="875" opacity=".35" rx=".375" ry=".375" transform="scale(-1 1)"/>
        <rect width="3" height="2" x="-194" y="872" opacity=".35" rx=".375" ry=".375" transform="scale(-1 1)"/>
        <rect width="3" height="2" x="-194" y="875" opacity=".35" rx=".375" ry=".375" transform="scale(-1 1)"/>
    </g>
</svg>
