<svg xmlns="http://www.w3.org/2000/svg" width="17.067" height="17.067" viewBox="0 0 16 16">
    <path d="M6.72 2a5.636 5.636 0 0 0-.563.063A6.03 6.03 0 0 0 2.19 4.405C.207 7.048.766 10.831 3.407 12.813c2.642 1.98 6.425 1.422 8.407-1.22.122-.17.189-.382.187-.593v-1h-1a1.024 1.024 0 0 0-.812.406c-1.333 1.777-3.817 2.114-5.594.781C2.818 9.855 2.48 7.37 3.814 5.594 5.146 3.817 7.63 3.48 9.407 4.812c.43.323.77.733 1.032 1.188H9a1 1 0 0 0-1 1v1h6V2h-1a1 1 0 0 0-1 1v1.687A5.966 5.966 0 0 0 6.72 2z"/>
</svg>
