<?xml version="1.0"?>
<svg xmlns="http://www.w3.org/2000/svg" width="17.067" height="17.067" version="1.1" viewBox="0 0 16 16">
<title>Gnome Symbolic Icon Theme</title>
<g transform="translate(-181 -867)" fill="none">
<path d="m181 868v13h6c0.1754 0 0.52538 0.15166 0.8125 0.34375s0.46875 0.375 0.46875 0.375l0.71875 0.71875 0.71875-0.75s0.8963-0.6875 1.2812-0.6875h6v-13h-6c-0.87652 0-1.5602 0.34756-2.0312 0.6875-0.0301-0.0207-0.031-0.0105-0.0625-0.0312-0.46068-0.30376-1.0781-0.6563-1.9062-0.6563h-5zm2 2h4c0.13821 0 0.51476 0.14746 0.8125 0.34375s0.5 0.375 0.5 0.375l0.71875 0.6875 0.6875-0.71875s0.89975-0.6875 1.2812-0.6875h4v9h-4c-0.87693 0-1.5601 0.34735-2.0312 0.6875-0.0196-0.0135-0.011-0.0177-0.0312-0.0312-0.4603-0.30796-1.1024-0.6563-1.9376-0.6563h-4z"/>
<rect transform="scale(-1,1)" x="-187" y="872" width="3" height="2" rx=".375" ry=".375" opacity=".35"/>
<rect transform="scale(-1,1)" x="-187" y="875" width="3" height="2.0002" rx=".375" ry=".375" opacity=".35"/>
<rect transform="scale(-1,1)" x="-194" y="872" width="3" height="2.0002" rx=".375" ry=".375" opacity=".35"/>
<rect transform="scale(-1,1)" x="-194" y="875" width="3" height="2.0002" rx=".375" ry=".375" opacity=".35"/>
</g>
</svg>
