<svg xmlns="http://www.w3.org/2000/svg" width="17.158" height="17.093" viewBox="0 0 16.085 16.024">
    <path d="M10.829.02a1 1 0 0 0-.781 1v4a1 1 0 0 0 1 1h4a1 1 0 1 0 0-2h-3v-3a1 1 0 0 0-1.219-1z"/>
    <path d="M14.923.02a1 1 0 0 0-.594.281l-4 4a1.016 1.016 0 1 0 1.438 1.438l4-4a1 1 0 0 0-.844-1.72z"/>
    <path d="M10.048 5.02h1v1h-1zm-9.094 1a1 1 0 0 0-.906 1v8a1 1 0 0 0 1 1h8a1 1 0 0 0 1-1v-8a1 1 0 0 0-1-1h-8a1 1 0 0 0-.094 0zm1.094 2h6v6h-6z"/>
    <path d="M.954 8.02a1.001 1.001 0 1 0 .094 2h8a1 1 0 1 0 0-2h-8a1 1 0 0 0-.094 0zm14.094-3h1v1h-1zm-5-5h1v1h-1zm-1 15h1v1h-1zm-9 0h1v1h-1z"/>
</svg>
